{"glyphs":{"0":{"ha":881,"x_min":90,"x_max":792,"o":"m 435 -12 q 174 115 257 -12 q 90 433 90 243 q 139 665 90 564 q 270 821 188 765 q 453 876 353 876 q 713 758 635 876 q 792 443 792 640 q 745 210 792 314 q 617 47 699 106 q 435 -12 536 -12 m 439 51 q 614 151 558 51 q 669 431 669 251 q 444 813 669 813 q 268 717 325 813 q 211 450 211 621 q 266 166 211 281 q 439 51 321 51 z "},"1":{"ha":594,"x_min":56,"x_max":564,"o":"m 269 740 q 176 710 240 728 q 69 686 113 692 l 56 751 q 194 801 125 767 q 314 879 264 836 l 315 879 l 382 865 l 382 71 l 564 60 l 564 0 l 83 0 l 83 60 l 269 71 l 269 740 z "},"2":{"ha":825,"x_min":72,"x_max":776,"o":"m 72 47 q 313 217 201 119 q 492 421 425 315 q 560 615 560 526 q 511 746 560 697 q 372 794 463 794 q 227 760 289 794 q 117 679 165 726 l 78 732 q 215 834 129 789 q 403 879 301 879 q 562 844 497 879 q 658 751 626 808 q 689 626 689 693 q 553 333 689 485 q 221 65 418 181 l 669 94 l 715 215 l 776 203 l 743 0 l 89 0 l 72 47 z "},"3":{"ha":772,"x_min":89,"x_max":699,"o":"m 208 -224 q 92 -211 144 -224 l 92 -146 q 190 -157 131 -157 q 394 -120 308 -157 q 524 -21 479 -83 q 569 115 569 42 q 508 267 569 213 q 319 324 447 322 q 258 307 308 318 l 229 299 l 208 365 q 317 397 272 378 q 465 499 407 433 q 524 639 524 564 q 474 760 524 722 q 347 799 425 799 q 224 776 285 799 q 119 718 164 753 l 89 768 q 208 843 128 807 q 376 879 289 879 q 573 825 497 879 q 649 658 649 771 q 611 533 649 593 q 515 428 574 474 q 389 360 456 383 q 426 361 401 361 q 572 330 510 361 q 666 246 633 299 q 699 131 699 193 q 638 -53 699 28 q 465 -178 576 -133 q 208 -224 354 -224 z "},"4":{"ha":879,"x_min":58,"x_max":854,"o":"m 550 0 l 88 0 l 58 56 q 272 483 150 229 q 486 943 394 738 l 519 943 l 601 897 l 213 146 l 160 64 l 550 83 l 550 361 l 649 369 l 649 88 l 854 97 l 854 0 l 649 0 l 649 -224 l 550 -224 l 550 0 z "},"5":{"ha":810,"x_min":132,"x_max":711,"o":"m 135 -161 q 218 -165 175 -165 q 403 -125 319 -165 q 536 -10 488 -85 q 585 158 585 64 q 527 342 585 283 q 368 400 469 400 q 264 386 322 400 q 164 353 206 372 l 132 376 l 201 868 l 575 868 l 589 894 l 669 894 l 647 771 l 286 771 l 219 425 q 314 460 256 446 q 429 474 372 474 q 635 398 558 474 q 711 174 711 322 q 651 -19 711 72 q 483 -167 592 -111 q 232 -224 374 -224 q 135 -214 172 -224 l 135 -161 z "},"6":{"ha":915,"x_min":113,"x_max":808,"o":"m 463 -15 q 272 41 351 -15 q 153 192 193 97 q 113 401 113 288 q 195 724 113 575 q 408 969 278 872 q 679 1092 539 1065 l 706 1040 q 416 859 533 986 q 257 574 299 732 q 358 650 293 618 q 508 682 424 682 q 732 597 656 682 q 808 363 808 513 q 767 176 808 263 q 648 37 726 89 q 463 -15 569 -15 m 482 607 q 372 587 422 607 q 288 538 322 567 q 242 483 254 510 q 239 444 239 458 q 288 161 235 275 q 471 47 342 47 q 590 90 542 47 q 663 197 639 132 q 686 333 686 263 q 631 542 686 476 q 482 607 576 607 z "},"7":{"ha":811,"x_min":74,"x_max":739,"o":"m 235 -200 q 363 99 301 -51 q 539 538 424 249 l 635 779 l 196 775 l 147 601 l 74 614 l 101 868 l 715 868 l 739 838 q 549 303 733 826 q 357 -233 360 -228 l 235 -200 z "},"8":{"ha":871,"x_min":100,"x_max":778,"o":"m 100 254 q 154 410 100 338 q 318 532 208 482 q 188 641 233 583 q 143 788 143 699 q 186 926 143 868 q 299 1015 229 985 q 446 1044 368 1044 q 654 982 574 1044 q 735 815 735 919 q 685 665 735 735 q 546 542 636 594 q 717 418 657 481 q 778 265 778 356 q 729 119 778 182 q 602 22 681 56 q 435 -12 524 -12 q 274 15 350 -12 q 149 103 199 43 q 100 254 100 163 m 242 813 q 274 718 242 758 q 351 649 306 678 q 485 575 397 621 q 595 664 554 610 q 636 783 636 718 q 583 933 636 879 q 440 988 529 988 q 299 940 357 988 q 242 813 242 892 m 664 240 q 633 331 664 292 q 558 399 603 371 q 435 468 514 428 l 375 500 q 256 406 301 465 q 210 278 210 347 q 274 110 210 172 q 447 49 338 49 q 551 73 501 49 q 633 141 601 97 q 664 240 664 185 z "},"9":{"ha":915,"x_min":108,"x_max":807,"o":"m 460 879 q 653 826 575 879 q 769 681 731 772 q 807 476 807 590 q 732 143 807 294 q 534 -106 657 -8 q 271 -231 411 -203 l 244 -178 q 520 4 414 -121 q 663 292 626 129 q 565 215 628 247 q 429 182 501 182 q 194 273 279 182 q 108 517 108 364 q 151 697 108 614 q 273 829 193 779 q 460 879 353 879 m 440 254 q 549 275 499 254 q 632 326 599 296 q 678 385 665 357 q 681 433 681 418 q 632 710 681 604 q 451 817 583 817 q 331 776 381 817 q 256 673 281 736 q 231 542 231 610 q 288 324 231 393 q 440 254 344 254 z "},"\u0000":{"ha":0,"x_min":0,"x_max":0,"o":""},"\r":{"ha":329,"x_min":0,"x_max":0,"o":""}," ":{"ha":329,"x_min":0,"x_max":0,"o":""},"A":{"ha":953,"x_min":-15,"x_max":971,"o":"m 418 1042 l 532 1042 l 881 72 l 971 60 l 971 0 l 632 0 l 632 60 l 754 72 l 681 293 l 247 293 l 174 74 l 297 60 l 297 0 l -15 0 l -15 60 l 74 72 l 418 1042 m 499 828 l 460 960 l 422 824 l 271 365 l 656 365 l 499 828 z "},"Á":{"ha":953,"x_min":-15,"x_max":971,"o":"m 418 1042 l 532 1042 l 881 72 l 971 60 l 971 0 l 632 0 l 632 60 l 754 72 l 681 293 l 247 293 l 174 74 l 297 60 l 297 0 l -15 0 l -15 60 l 74 72 l 418 1042 m 499 828 l 460 960 l 422 824 l 271 365 l 656 365 l 499 828 m 374 1149 l 563 1361 l 658 1300 q 556 1198 625 1254 q 432 1114 486 1142 l 374 1149 z "},"Ă":{"ha":953,"x_min":-15,"x_max":971,"o":"m 418 1042 l 532 1042 l 881 72 l 971 60 l 971 0 l 632 0 l 632 60 l 754 72 l 681 293 l 247 293 l 174 74 l 297 60 l 297 0 l -15 0 l -15 60 l 74 72 l 418 1042 m 499 828 l 460 960 l 422 824 l 271 365 l 656 365 l 499 828 m 472 1122 q 307 1179 367 1122 q 247 1325 247 1236 q 249 1353 247 1343 l 313 1353 q 314 1333 313 1342 q 358 1249 322 1285 q 472 1214 394 1214 q 589 1250 553 1214 q 633 1335 625 1286 q 635 1353 635 1343 l 696 1353 q 697 1326 697 1343 q 635 1181 697 1239 q 472 1122 574 1122 z "},"Ắ":{"ha":953,"x_min":-15,"x_max":971,"o":"m 418 1042 l 532 1042 l 881 72 l 971 60 l 971 0 l 632 0 l 632 60 l 754 72 l 681 293 l 247 293 l 174 74 l 297 60 l 297 0 l -15 0 l -15 60 l 74 72 l 418 1042 m 499 828 l 460 960 l 422 824 l 271 365 l 656 365 l 499 828 m 413 1224 l 544 1365 l 618 1306 q 557 1241 597 1275 q 463 1176 517 1207 l 413 1224 m 472 1028 q 325 1061 382 1028 q 268 1146 268 1094 q 271 1183 268 1174 l 342 1183 l 342 1168 q 375 1127 342 1142 q 472 1113 408 1113 q 572 1126 536 1113 q 607 1167 607 1140 q 606 1183 607 1179 l 674 1183 q 676 1147 676 1164 q 621 1060 676 1093 q 472 1028 565 1028 z "},"Ặ":{"ha":953,"x_min":-15,"x_max":971,"o":"m 418 1042 l 532 1042 l 881 72 l 971 60 l 971 0 l 632 0 l 632 60 l 754 72 l 681 293 l 247 293 l 174 74 l 297 60 l 297 0 l -15 0 l -15 60 l 74 72 l 418 1042 m 499 828 l 460 960 l 422 824 l 271 365 l 656 365 l 499 828 m 472 1122 q 307 1179 367 1122 q 247 1325 247 1236 q 249 1353 247 1343 l 313 1353 q 314 1333 313 1342 q 358 1249 322 1285 q 472 1214 394 1214 q 589 1250 553 1214 q 633 1335 625 1286 q 635 1353 635 1343 l 696 1353 q 697 1326 697 1343 q 635 1181 697 1239 q 472 1122 574 1122 m 456 -272 q 402 -248 422 -272 q 382 -189 382 -224 q 405 -121 382 -150 q 469 -92 428 -92 q 525 -117 504 -92 q 546 -175 546 -142 q 524 -245 546 -218 q 458 -272 501 -272 l 456 -272 z "},"Ằ":{"ha":953,"x_min":-15,"x_max":971,"o":"m 418 1042 l 532 1042 l 881 72 l 971 60 l 971 0 l 632 0 l 632 60 l 754 72 l 681 293 l 247 293 l 174 74 l 297 60 l 297 0 l -15 0 l -15 60 l 74 72 l 418 1042 m 499 828 l 460 960 l 422 824 l 271 365 l 656 365 l 499 828 m 486 1171 q 392 1235 432 1201 q 331 1300 351 1269 l 404 1360 l 536 1218 l 486 1171 m 472 1028 q 325 1061 382 1028 q 268 1146 268 1094 q 271 1183 268 1174 l 342 1183 l 342 1168 q 375 1127 342 1142 q 472 1113 408 1113 q 572 1126 536 1113 q 607 1167 607 1140 q 606 1183 607 1179 l 674 1183 q 676 1147 676 1164 q 621 1060 676 1093 q 472 1028 565 1028 z "},"Ẳ":{"ha":953,"x_min":-15,"x_max":971,"o":"m 418 1042 l 532 1042 l 881 72 l 971 60 l 971 0 l 632 0 l 632 60 l 754 72 l 681 293 l 247 293 l 174 74 l 297 60 l 297 0 l -15 0 l -15 60 l 74 72 l 418 1042 m 499 828 l 460 960 l 422 824 l 271 365 l 656 365 l 499 828 m 436 1144 q 426 1158 431 1149 q 422 1175 422 1167 q 446 1211 422 1193 q 466 1234 460 1225 q 472 1257 472 1243 q 457 1284 472 1274 q 415 1294 442 1294 q 350 1281 379 1294 l 346 1354 q 380 1362 349 1358 q 431 1365 411 1365 q 536 1340 497 1365 q 575 1275 575 1315 q 566 1240 575 1254 q 539 1211 557 1225 q 504 1160 504 1186 q 507 1146 504 1154 l 436 1144 m 472 1028 q 333 1060 383 1028 q 282 1146 282 1093 q 285 1183 282 1174 l 356 1183 l 356 1168 q 383 1126 356 1140 q 472 1113 410 1113 q 593 1167 593 1113 q 592 1183 593 1179 l 660 1183 q 663 1147 663 1164 q 613 1060 663 1093 q 472 1028 564 1028 z "},"Ẵ":{"ha":953,"x_min":-15,"x_max":971,"o":"m 418 1042 l 532 1042 l 881 72 l 971 60 l 971 0 l 632 0 l 632 60 l 754 72 l 681 293 l 247 293 l 174 74 l 297 60 l 297 0 l -15 0 l -15 60 l 74 72 l 418 1042 m 499 828 l 460 960 l 422 824 l 271 365 l 656 365 l 499 828 m 269 1251 q 287 1301 271 1275 q 330 1343 303 1326 q 389 1360 357 1360 q 437 1351 418 1360 q 481 1322 456 1342 q 513 1300 500 1307 q 543 1293 525 1293 q 579 1301 568 1293 q 599 1322 590 1308 q 614 1346 607 1336 l 661 1313 q 615 1236 653 1268 q 539 1204 578 1204 q 497 1214 514 1204 q 453 1243 479 1224 q 417 1268 432 1260 q 382 1276 401 1276 q 351 1267 363 1276 q 331 1242 340 1257 q 315 1219 322 1228 l 269 1251 m 472 1028 q 333 1060 383 1028 q 282 1146 282 1093 q 285 1183 282 1174 l 356 1183 l 356 1168 q 387 1127 356 1142 q 472 1113 418 1113 q 593 1167 593 1113 q 592 1183 593 1179 l 660 1183 q 663 1147 663 1164 q 613 1060 663 1093 q 472 1028 564 1028 z "},"Ǎ":{"ha":953,"x_min":-15,"x_max":971,"o":"m 418 1042 l 532 1042 l 881 72 l 971 60 l 971 0 l 632 0 l 632 60 l 754 72 l 681 293 l 247 293 l 174 74 l 297 60 l 297 0 l -15 0 l -15 60 l 74 72 l 418 1042 m 499 828 l 460 960 l 422 824 l 271 365 l 656 365 l 499 828 m 474 1225 l 646 1364 l 692 1335 l 526 1147 l 421 1147 l 253 1333 l 303 1364 l 474 1225 z "},"Â":{"ha":953,"x_min":-15,"x_max":971,"o":"m 418 1042 l 532 1042 l 881 72 l 971 60 l 971 0 l 632 0 l 632 60 l 754 72 l 681 293 l 247 293 l 174 74 l 297 60 l 297 0 l -15 0 l -15 60 l 74 72 l 418 1042 m 499 828 l 460 960 l 422 824 l 271 365 l 656 365 l 499 828 m 525 1365 l 704 1165 l 654 1135 l 474 1282 l 289 1135 l 243 1164 l 421 1365 l 525 1365 z "},"Ấ":{"ha":953,"x_min":-15,"x_max":971,"o":"m 418 1042 l 532 1042 l 881 72 l 971 60 l 971 0 l 632 0 l 632 60 l 754 72 l 681 293 l 247 293 l 174 74 l 297 60 l 297 0 l -15 0 l -15 60 l 74 72 l 418 1042 m 499 828 l 460 960 l 422 824 l 271 365 l 656 365 l 499 828 m 692 1224 l 824 1365 l 897 1306 q 836 1241 876 1275 q 742 1176 796 1207 l 692 1224 m 528 1307 l 690 1132 l 646 1088 l 472 1219 l 299 1088 l 253 1132 l 417 1307 l 528 1307 z "},"Ậ":{"ha":953,"x_min":-15,"x_max":971,"o":"m 456 -272 q 402 -248 422 -272 q 382 -189 382 -224 q 405 -121 382 -150 q 469 -92 428 -92 q 525 -117 504 -92 q 546 -175 546 -142 q 524 -245 546 -218 q 458 -272 501 -272 l 456 -272 m 418 1042 l 532 1042 l 881 72 l 971 60 l 971 0 l 632 0 l 632 60 l 754 72 l 681 293 l 247 293 l 174 74 l 297 60 l 297 0 l -15 0 l -15 60 l 74 72 l 418 1042 m 499 828 l 460 960 l 422 824 l 271 365 l 656 365 l 499 828 m 525 1365 l 704 1165 l 654 1135 l 474 1282 l 289 1135 l 243 1164 l 421 1365 l 525 1365 z "},"Ầ":{"ha":953,"x_min":-15,"x_max":971,"o":"m 418 1042 l 532 1042 l 881 72 l 971 60 l 971 0 l 632 0 l 632 60 l 754 72 l 681 293 l 247 293 l 174 74 l 297 60 l 297 0 l -15 0 l -15 60 l 74 72 l 418 1042 m 499 828 l 460 960 l 422 824 l 271 365 l 656 365 l 499 828 m 833 1176 q 739 1241 779 1207 q 678 1306 699 1275 l 751 1365 l 883 1224 l 833 1176 m 528 1307 l 690 1132 l 646 1088 l 472 1219 l 299 1088 l 253 1132 l 417 1307 l 528 1307 z "},"Ẩ":{"ha":953,"x_min":-15,"x_max":971,"o":"m 418 1042 l 532 1042 l 881 72 l 971 60 l 971 0 l 632 0 l 632 60 l 754 72 l 681 293 l 247 293 l 174 74 l 297 60 l 297 0 l -15 0 l -15 60 l 74 72 l 418 1042 m 499 828 l 460 960 l 422 824 l 271 365 l 656 365 l 499 828 m 751 1082 q 729 1133 729 1114 q 740 1164 729 1153 q 772 1188 750 1175 q 803 1208 793 1199 q 814 1236 814 1218 q 800 1276 814 1257 q 751 1299 786 1294 q 723 1294 743 1300 q 699 1286 703 1289 l 694 1356 q 717 1363 697 1360 q 751 1365 736 1365 q 859 1336 821 1365 q 897 1249 897 1307 q 881 1198 897 1217 q 835 1160 865 1179 q 800 1133 810 1143 q 788 1106 788 1121 q 790 1090 788 1101 l 751 1082 m 528 1307 l 690 1132 l 646 1088 l 472 1219 l 299 1088 l 253 1132 l 417 1307 l 528 1307 z "},"Ẫ":{"ha":953,"x_min":-15,"x_max":971,"o":"m 418 1042 l 532 1042 l 881 72 l 971 60 l 971 0 l 632 0 l 632 60 l 754 72 l 681 293 l 247 293 l 174 74 l 297 60 l 297 0 l -15 0 l -15 60 l 74 72 l 418 1042 m 499 828 l 460 960 l 422 824 l 271 365 l 656 365 l 499 828 m 269 1353 q 287 1404 271 1378 q 332 1449 303 1431 q 400 1467 361 1467 q 453 1454 429 1467 q 508 1418 478 1442 q 551 1390 535 1399 q 585 1381 567 1381 q 633 1392 617 1381 q 669 1433 649 1404 l 717 1400 q 669 1326 708 1354 q 581 1297 631 1297 q 535 1308 557 1297 q 481 1340 514 1318 q 433 1369 453 1360 q 396 1378 414 1378 q 354 1363 372 1378 q 315 1321 336 1349 l 269 1353 m 525 1265 l 722 1138 l 674 1088 l 472 1183 l 267 1088 l 222 1138 l 417 1265 l 525 1265 z "},"Ä":{"ha":953,"x_min":-15,"x_max":971,"o":"m 418 1042 l 532 1042 l 881 72 l 971 60 l 971 0 l 632 0 l 632 60 l 754 72 l 681 293 l 247 293 l 174 74 l 297 60 l 297 0 l -15 0 l -15 60 l 74 72 l 418 1042 m 499 828 l 460 960 l 422 824 l 271 365 l 656 365 l 499 828 m 299 1147 q 248 1170 267 1147 q 229 1226 229 1193 q 250 1292 229 1265 q 310 1319 271 1319 l 311 1319 q 365 1294 344 1319 q 385 1238 385 1269 q 363 1173 385 1199 q 300 1147 340 1147 l 299 1147 m 629 1147 q 578 1170 597 1147 q 560 1226 560 1193 q 581 1292 560 1265 q 640 1319 601 1319 l 642 1319 q 694 1295 675 1319 q 714 1238 714 1271 q 692 1173 714 1199 q 629 1147 669 1147 z "},"Ạ":{"ha":953,"x_min":-15,"x_max":971,"o":"m 418 1042 l 532 1042 l 881 72 l 971 60 l 971 0 l 632 0 l 632 60 l 754 72 l 681 293 l 247 293 l 174 74 l 297 60 l 297 0 l -15 0 l -15 60 l 74 72 l 418 1042 m 499 828 l 460 960 l 422 824 l 271 365 l 656 365 l 499 828 m 456 -272 q 402 -248 422 -272 q 382 -189 382 -224 q 405 -121 382 -150 q 469 -92 428 -92 q 525 -117 504 -92 q 546 -175 546 -142 q 524 -245 546 -218 q 458 -272 501 -272 l 456 -272 z "},"À":{"ha":953,"x_min":-15,"x_max":971,"o":"m 418 1042 l 532 1042 l 881 72 l 971 60 l 971 0 l 632 0 l 632 60 l 754 72 l 681 293 l 247 293 l 174 74 l 297 60 l 297 0 l -15 0 l -15 60 l 74 72 l 418 1042 m 499 828 l 460 960 l 422 824 l 271 365 l 656 365 l 499 828 m 513 1114 q 389 1198 458 1142 q 286 1300 319 1254 l 382 1361 l 571 1149 l 513 1114 z "},"Ả":{"ha":953,"x_min":-15,"x_max":971,"o":"m 418 1042 l 532 1042 l 881 72 l 971 60 l 971 0 l 632 0 l 632 60 l 754 72 l 681 293 l 247 293 l 174 74 l 297 60 l 297 0 l -15 0 l -15 60 l 74 72 l 418 1042 m 499 828 l 460 960 l 422 824 l 271 365 l 656 365 l 499 828 m 450 1078 q 434 1106 440 1089 q 428 1140 428 1124 q 438 1160 428 1153 q 467 1179 447 1168 q 502 1204 492 1194 q 513 1232 513 1214 q 433 1285 513 1285 q 374 1271 399 1285 l 369 1344 q 415 1359 388 1353 q 465 1365 442 1365 q 611 1247 611 1365 q 595 1197 611 1214 q 547 1161 579 1179 q 511 1136 515 1140 q 499 1099 499 1126 q 501 1078 499 1085 l 450 1078 z "},"Ā":{"ha":953,"x_min":-15,"x_max":971,"o":"m 418 1042 l 532 1042 l 881 72 l 971 60 l 971 0 l 632 0 l 632 60 l 754 72 l 681 293 l 247 293 l 174 74 l 297 60 l 297 0 l -15 0 l -15 60 l 74 72 l 418 1042 m 499 828 l 460 960 l 422 824 l 271 365 l 656 365 l 499 828 m 669 1193 l 275 1193 l 275 1281 l 669 1281 l 669 1193 z "},"Ą":{"ha":942,"x_min":-15,"x_max":971,"o":"m 419 1042 l 533 1042 l 881 72 l 971 60 l 971 0 l 892 0 q 781 -82 825 -29 q 736 -179 736 -135 q 767 -247 736 -225 q 844 -268 797 -268 q 953 -240 900 -268 l 953 -299 q 881 -333 924 -321 q 796 -346 839 -346 q 676 -315 724 -346 q 628 -215 628 -283 q 680 -94 628 -158 q 804 0 732 -31 l 632 0 l 632 60 l 754 72 l 681 293 l 247 293 l 174 74 l 297 60 l 297 0 l -15 0 l -15 60 l 74 72 l 419 1042 m 500 828 l 461 960 l 424 824 l 271 365 l 656 365 l 500 828 z "},"Å":{"ha":953,"x_min":-15,"x_max":971,"o":"m -15 60 l 74 72 l 414 1032 q 295 1088 336 1044 q 254 1193 254 1131 q 322 1320 254 1275 q 479 1365 389 1365 q 635 1320 579 1365 q 690 1199 690 1275 q 647 1090 690 1132 q 535 1033 604 1047 l 881 72 l 971 60 l 971 0 l 632 0 l 632 60 l 754 72 l 681 293 l 247 293 l 174 74 l 297 60 l 297 0 l -15 0 l -15 60 m 340 1200 q 374 1116 340 1150 q 474 1082 408 1082 q 572 1110 539 1082 q 606 1190 606 1138 q 574 1277 606 1244 q 476 1310 542 1310 q 376 1282 411 1310 q 340 1200 340 1254 m 656 365 l 499 828 l 460 960 l 422 824 l 271 365 l 656 365 z "},"Ǻ":{"ha":953,"x_min":-15,"x_max":971,"o":"m -15 60 l 74 72 l 400 985 q 303 1027 339 996 q 268 1104 268 1058 q 310 1192 268 1157 q 426 1233 353 1228 l 515 1365 l 628 1314 q 584 1264 604 1282 q 539 1232 564 1246 q 640 1187 603 1222 q 676 1100 676 1151 q 644 1026 676 1057 q 551 986 611 996 l 881 72 l 971 60 l 971 0 l 632 0 l 632 60 l 754 72 l 681 293 l 247 293 l 174 74 l 297 60 l 297 0 l -15 0 l -15 60 m 353 1104 q 386 1052 353 1071 q 472 1033 419 1033 q 558 1053 525 1033 q 592 1104 592 1072 q 558 1159 592 1138 q 472 1181 525 1181 q 386 1159 419 1181 q 353 1104 353 1138 m 656 365 l 499 828 l 460 960 l 422 824 l 271 365 l 656 365 z "},"Ã":{"ha":953,"x_min":-15,"x_max":971,"o":"m 418 1042 l 532 1042 l 881 72 l 971 60 l 971 0 l 632 0 l 632 60 l 754 72 l 681 293 l 247 293 l 174 74 l 297 60 l 297 0 l -15 0 l -15 60 l 74 72 l 418 1042 m 499 828 l 460 960 l 422 824 l 271 365 l 656 365 l 499 828 m 581 1138 q 512 1153 539 1138 q 449 1197 485 1168 q 408 1228 425 1218 q 369 1239 390 1239 q 317 1218 333 1239 q 288 1158 301 1197 l 229 1189 q 381 1322 275 1322 q 450 1306 422 1322 q 511 1260 478 1290 q 549 1228 532 1239 q 585 1217 565 1217 q 634 1241 615 1217 q 665 1301 653 1265 l 724 1271 q 672 1173 703 1208 q 581 1138 642 1138 z "},"Æ":{"ha":1265,"x_min":-125,"x_max":1243,"o":"m 557 306 l 182 306 l 85 72 l 193 58 l 193 0 l -125 0 l -125 58 l -24 72 l 376 960 l 188 975 l 188 1032 l 1124 1032 l 1147 824 l 1081 824 l 1039 964 l 671 969 l 671 564 l 922 568 l 939 683 l 1010 683 l 1010 376 l 939 376 l 922 496 l 671 499 l 671 68 l 1096 82 l 1176 256 l 1243 238 l 1190 0 l 435 0 l 435 58 l 557 72 l 557 306 m 557 965 l 461 965 l 383 788 l 213 378 l 557 378 l 557 965 z "},"Ǽ":{"ha":1265,"x_min":-125,"x_max":1243,"o":"m 557 306 l 182 306 l 85 72 l 193 58 l 193 0 l -125 0 l -125 58 l -24 72 l 376 960 l 188 975 l 188 1032 l 1124 1032 l 1147 824 l 1081 824 l 1039 964 l 671 969 l 671 564 l 922 568 l 939 683 l 1010 683 l 1010 376 l 939 376 l 922 496 l 671 499 l 671 68 l 1096 82 l 1176 256 l 1243 238 l 1190 0 l 435 0 l 435 58 l 557 72 l 557 306 m 557 965 l 461 965 l 383 788 l 213 378 l 557 378 l 557 965 m 535 1149 l 724 1361 l 819 1300 q 717 1198 786 1254 q 593 1114 647 1142 l 535 1149 z "},"B":{"ha":933,"x_min":69,"x_max":879,"o":"m 189 957 l 72 972 l 72 1032 l 246 1032 q 364 1038 292 1032 q 463 1043 431 1043 q 724 983 643 1043 q 806 810 806 924 q 752 641 806 713 q 600 550 699 569 q 805 488 731 554 q 879 308 879 421 q 781 81 879 169 q 461 -8 683 -8 q 376 -6 435 -8 q 240 0 304 0 l 69 0 l 69 60 l 189 72 l 189 957 m 303 574 q 390 572 325 572 l 474 572 q 635 626 579 572 q 690 783 690 681 q 635 932 690 885 q 447 979 581 979 q 344 974 397 979 q 303 971 311 971 l 303 574 m 303 69 q 460 58 339 58 q 685 117 615 58 q 754 288 754 176 q 694 449 754 399 q 501 500 635 500 l 399 500 q 303 499 324 500 l 303 69 z "},"Ḃ":{"ha":933,"x_min":69,"x_max":879,"o":"m 189 957 l 72 972 l 72 1032 l 246 1032 q 364 1038 292 1032 q 463 1043 431 1043 q 724 983 643 1043 q 806 810 806 924 q 752 641 806 713 q 600 550 699 569 q 805 488 731 554 q 879 308 879 421 q 781 81 879 169 q 461 -8 683 -8 q 376 -6 435 -8 q 240 0 304 0 l 69 0 l 69 60 l 189 72 l 189 957 m 303 574 q 390 572 325 572 l 474 572 q 635 626 579 572 q 690 783 690 681 q 635 932 690 885 q 447 979 581 979 q 344 974 397 979 q 303 971 311 971 l 303 574 m 303 69 q 460 58 339 58 q 685 117 615 58 q 754 288 754 176 q 694 449 754 399 q 501 500 635 500 l 399 500 q 303 499 324 500 l 303 69 m 460 1161 q 408 1183 428 1161 q 389 1240 389 1206 q 410 1306 389 1279 q 471 1332 432 1332 q 524 1308 504 1332 q 544 1251 544 1283 q 522 1187 544 1213 q 460 1161 500 1161 z "},"Ḅ":{"ha":933,"x_min":69,"x_max":879,"o":"m 189 957 l 72 972 l 72 1032 l 246 1032 q 364 1038 292 1032 q 463 1043 431 1043 q 724 983 643 1043 q 806 810 806 924 q 752 641 806 713 q 600 550 699 569 q 805 488 731 554 q 879 308 879 421 q 781 81 879 169 q 461 -8 683 -8 q 376 -6 435 -8 q 240 0 304 0 l 69 0 l 69 60 l 189 72 l 189 957 m 303 574 q 390 572 325 572 l 474 572 q 635 626 579 572 q 690 783 690 681 q 635 932 690 885 q 447 979 581 979 q 344 974 397 979 q 303 971 311 971 l 303 574 m 303 69 q 460 58 339 58 q 685 117 615 58 q 754 288 754 176 q 694 449 754 399 q 501 500 635 500 l 399 500 q 303 499 324 500 l 303 69 m 457 -272 q 403 -248 424 -272 q 383 -189 383 -224 q 406 -121 383 -150 q 471 -92 429 -92 q 526 -117 506 -92 q 547 -175 547 -142 q 525 -245 547 -218 q 460 -272 503 -272 l 457 -272 z "},"C":{"ha":901,"x_min":50,"x_max":849,"o":"m 524 -15 q 268 51 375 -15 q 106 239 161 118 q 50 521 50 360 q 115 792 50 672 q 293 977 181 911 q 544 1043 406 1043 q 681 1032 615 1043 q 788 1011 747 1021 q 838 999 828 1001 l 826 772 l 754 772 l 724 933 q 649 964 703 951 q 517 976 594 976 q 344 924 421 976 q 224 772 268 872 q 181 533 181 672 q 219 293 181 403 q 335 117 257 183 q 526 51 413 51 q 650 65 606 51 q 725 103 694 78 l 781 233 l 849 224 l 814 38 q 733 19 781 36 q 638 -6 683 3 q 524 -15 592 -15 z "},"Ć":{"ha":901,"x_min":50,"x_max":849,"o":"m 524 -15 q 268 51 375 -15 q 106 239 161 118 q 50 521 50 360 q 115 792 50 672 q 293 977 181 911 q 544 1043 406 1043 q 681 1032 615 1043 q 788 1011 747 1021 q 838 999 828 1001 l 826 772 l 754 772 l 724 933 q 649 964 703 951 q 517 976 594 976 q 344 924 421 976 q 224 772 268 872 q 181 533 181 672 q 219 293 181 403 q 335 117 257 183 q 526 51 413 51 q 650 65 606 51 q 725 103 694 78 l 781 233 l 849 224 l 814 38 q 733 19 781 36 q 638 -6 683 3 q 524 -15 592 -15 m 408 1149 l 597 1361 l 693 1300 q 590 1198 660 1254 q 467 1114 521 1142 l 408 1149 z "},"Č":{"ha":901,"x_min":50,"x_max":849,"o":"m 524 -15 q 268 51 375 -15 q 106 239 161 118 q 50 521 50 360 q 115 792 50 672 q 293 977 181 911 q 544 1043 406 1043 q 681 1032 615 1043 q 788 1011 747 1021 q 838 999 828 1001 l 826 772 l 754 772 l 724 933 q 649 964 703 951 q 517 976 594 976 q 344 924 421 976 q 224 772 268 872 q 181 533 181 672 q 219 293 181 403 q 335 117 257 183 q 526 51 413 51 q 650 65 606 51 q 725 103 694 78 l 781 233 l 849 224 l 814 38 q 733 19 781 36 q 638 -6 683 3 q 524 -15 592 -15 m 508 1225 l 681 1364 l 726 1335 l 561 1147 l 456 1147 l 288 1333 l 338 1364 l 508 1225 z "},"Ç":{"ha":901,"x_min":50,"x_max":849,"o":"m 524 -15 q 268 51 375 -15 q 106 239 161 118 q 50 521 50 360 q 115 792 50 672 q 293 977 181 911 q 544 1043 406 1043 q 681 1032 615 1043 q 788 1011 747 1021 q 838 999 828 1001 l 826 772 l 754 772 l 724 933 q 649 964 703 951 q 517 976 594 976 q 344 924 421 976 q 224 772 268 872 q 181 533 181 672 q 219 293 181 403 q 335 117 257 183 q 526 51 413 51 q 650 65 606 51 q 725 103 694 78 l 781 233 l 849 224 l 814 38 q 733 19 781 36 q 638 -6 683 3 q 524 -15 592 -15 m 453 -326 q 401 -321 429 -326 q 354 -308 374 -315 l 356 -226 q 388 -234 369 -231 q 419 -237 407 -237 q 500 -218 475 -237 q 525 -139 525 -199 q 509 -62 525 -101 q 478 0 493 -22 l 510 8 l 535 0 q 593 -81 564 -26 q 622 -190 622 -135 q 580 -295 622 -264 q 453 -326 538 -326 z "},"Ĉ":{"ha":901,"x_min":50,"x_max":849,"o":"m 524 -15 q 268 51 375 -15 q 106 239 161 118 q 50 521 50 360 q 115 792 50 672 q 293 977 181 911 q 544 1043 406 1043 q 681 1032 615 1043 q 788 1011 747 1021 q 838 999 828 1001 l 826 772 l 754 772 l 724 933 q 649 964 703 951 q 517 976 594 976 q 344 924 421 976 q 224 772 268 872 q 181 533 181 672 q 219 293 181 403 q 335 117 257 183 q 526 51 413 51 q 650 65 606 51 q 725 103 694 78 l 781 233 l 849 224 l 814 38 q 733 19 781 36 q 638 -6 683 3 q 524 -15 592 -15 m 560 1365 l 739 1165 l 689 1135 l 508 1282 l 324 1135 l 278 1164 l 456 1365 l 560 1365 z "},"Ċ":{"ha":901,"x_min":50,"x_max":849,"o":"m 524 -15 q 268 51 375 -15 q 106 239 161 118 q 50 521 50 360 q 115 792 50 672 q 293 977 181 911 q 544 1043 406 1043 q 681 1032 615 1043 q 788 1011 747 1021 q 838 999 828 1001 l 826 772 l 754 772 l 724 933 q 649 964 703 951 q 517 976 594 976 q 344 924 421 976 q 224 772 268 872 q 181 533 181 672 q 219 293 181 403 q 335 117 257 183 q 526 51 413 51 q 650 65 606 51 q 725 103 694 78 l 781 233 l 849 224 l 814 38 q 733 19 781 36 q 638 -6 683 3 q 524 -15 592 -15 m 500 1161 q 449 1183 468 1161 q 429 1240 429 1206 q 451 1306 429 1279 q 511 1332 472 1332 q 565 1308 544 1332 q 585 1251 585 1283 q 563 1187 585 1213 q 500 1161 540 1161 z "},"D":{"ha":1050,"x_min":69,"x_max":1000,"o":"m 189 957 l 78 972 l 78 1032 l 246 1032 q 369 1038 289 1032 q 492 1043 450 1043 q 876 912 751 1043 q 1000 547 1000 781 q 935 256 1000 382 q 753 59 869 129 q 488 -11 638 -11 q 381 -6 456 -11 q 247 0 294 0 l 69 0 l 69 60 l 189 72 l 189 957 m 303 68 q 443 57 360 57 l 490 57 q 692 113 604 58 q 828 271 779 167 q 878 522 878 375 q 456 976 878 976 q 351 971 410 976 q 303 968 315 968 l 303 68 z "},"Ǳ":{"ha":1957,"x_min":69,"x_max":1897,"o":"m 189 957 l 78 972 l 78 1032 l 246 1032 q 369 1038 289 1032 q 492 1043 450 1043 q 876 912 751 1043 q 1000 547 1000 781 q 935 256 1000 382 q 753 59 869 129 q 488 -11 638 -11 q 381 -6 456 -11 q 247 0 294 0 l 69 0 l 69 60 l 189 72 l 189 957 m 303 68 q 443 57 360 57 l 490 57 q 692 113 604 58 q 828 271 779 167 q 878 522 878 375 q 456 976 878 976 q 351 971 410 976 q 303 968 315 968 l 303 68 m 1742 972 l 1300 958 l 1232 778 l 1168 785 l 1197 1036 l 1851 1036 l 1882 985 l 1338 174 l 1247 65 l 1761 89 l 1831 308 l 1897 293 l 1864 0 l 1142 0 l 1108 54 l 1663 872 l 1742 972 z "},"Ǆ":{"ha":1957,"x_min":69,"x_max":1897,"o":"m 189 957 l 78 972 l 78 1032 l 246 1032 q 369 1038 289 1032 q 492 1043 450 1043 q 876 912 751 1043 q 1000 547 1000 781 q 935 256 1000 382 q 753 59 869 129 q 488 -11 638 -11 q 381 -6 456 -11 q 247 0 294 0 l 69 0 l 69 60 l 189 72 l 189 957 m 303 68 q 443 57 360 57 l 490 57 q 692 113 604 58 q 828 271 779 167 q 878 522 878 375 q 456 976 878 976 q 351 971 410 976 q 303 968 315 968 l 303 68 m 1742 972 l 1300 958 l 1232 778 l 1168 785 l 1197 1036 l 1851 1036 l 1882 985 l 1338 174 l 1247 65 l 1761 89 l 1831 308 l 1897 293 l 1864 0 l 1142 0 l 1108 54 l 1663 872 l 1742 972 m 1561 1225 l 1733 1364 l 1779 1335 l 1614 1147 l 1508 1147 l 1340 1333 l 1390 1364 l 1561 1225 z "},"Ð":{"ha":1050,"x_min":69,"x_max":1000,"o":"m 189 957 l 78 972 l 78 1032 l 246 1032 q 369 1038 289 1032 q 492 1043 450 1043 q 876 912 751 1043 q 1000 547 1000 781 q 935 256 1000 382 q 753 59 869 129 q 488 -11 638 -11 q 381 -6 456 -11 q 247 0 294 0 l 69 0 l 69 60 l 189 72 l 189 507 l 82 507 l 82 571 l 189 571 l 189 957 m 564 507 l 303 507 l 303 68 q 443 57 360 57 l 490 57 q 692 113 604 58 q 828 271 779 167 q 878 522 878 375 q 456 976 878 976 q 351 971 410 976 q 303 968 315 968 l 303 571 l 564 571 l 564 507 z "},"Ď":{"ha":1050,"x_min":69,"x_max":1000,"o":"m 189 957 l 78 972 l 78 1032 l 246 1032 q 369 1038 289 1032 q 492 1043 450 1043 q 876 912 751 1043 q 1000 547 1000 781 q 935 256 1000 382 q 753 59 869 129 q 488 -11 638 -11 q 381 -6 456 -11 q 247 0 294 0 l 69 0 l 69 60 l 189 72 l 189 957 m 303 68 q 443 57 360 57 l 490 57 q 692 113 604 58 q 828 271 779 167 q 878 522 878 375 q 456 976 878 976 q 351 971 410 976 q 303 968 315 968 l 303 68 m 526 1225 l 699 1364 l 744 1335 l 579 1147 l 474 1147 l 306 1333 l 356 1364 l 526 1225 z "},"Đ":{"ha":1050,"x_min":69,"x_max":1000,"o":"m 189 957 l 78 972 l 78 1032 l 246 1032 q 369 1038 289 1032 q 492 1043 450 1043 q 876 912 751 1043 q 1000 547 1000 781 q 935 256 1000 382 q 753 59 869 129 q 488 -11 638 -11 q 381 -6 456 -11 q 247 0 294 0 l 69 0 l 69 60 l 189 72 l 189 507 l 82 507 l 82 571 l 189 571 l 189 957 m 564 507 l 303 507 l 303 68 q 443 57 360 57 l 490 57 q 692 113 604 58 q 828 271 779 167 q 878 522 878 375 q 456 976 878 976 q 351 971 410 976 q 303 968 315 968 l 303 571 l 564 571 l 564 507 z "},"Ḋ":{"ha":1050,"x_min":69,"x_max":1000,"o":"m 189 957 l 78 972 l 78 1032 l 246 1032 q 369 1038 289 1032 q 492 1043 450 1043 q 876 912 751 1043 q 1000 547 1000 781 q 935 256 1000 382 q 753 59 869 129 q 488 -11 638 -11 q 381 -6 456 -11 q 247 0 294 0 l 69 0 l 69 60 l 189 72 l 189 957 m 303 68 q 443 57 360 57 l 490 57 q 692 113 604 58 q 828 271 779 167 q 878 522 878 375 q 456 976 878 976 q 351 971 410 976 q 303 968 315 968 l 303 68 m 518 1161 q 467 1183 486 1161 q 447 1240 447 1206 q 469 1306 447 1279 q 529 1332 490 1332 q 583 1308 563 1332 q 603 1251 603 1283 q 581 1187 603 1213 q 518 1161 558 1161 z "},"Ḍ":{"ha":1050,"x_min":69,"x_max":1000,"o":"m 189 957 l 78 972 l 78 1032 l 246 1032 q 369 1038 289 1032 q 492 1043 450 1043 q 876 912 751 1043 q 1000 547 1000 781 q 935 256 1000 382 q 753 59 869 129 q 488 -11 638 -11 q 381 -6 456 -11 q 247 0 294 0 l 69 0 l 69 60 l 189 72 l 189 957 m 303 68 q 443 57 360 57 l 490 57 q 692 113 604 58 q 828 271 779 167 q 878 522 878 375 q 456 976 878 976 q 351 971 410 976 q 303 968 315 968 l 303 68 m 515 -272 q 462 -248 482 -272 q 442 -189 442 -224 q 465 -121 442 -150 q 529 -92 488 -92 q 585 -117 564 -92 q 606 -175 606 -142 q 583 -245 606 -218 q 518 -272 561 -272 l 515 -272 z "},"ǲ":{"ha":1815,"x_min":69,"x_max":1760,"o":"m 189 957 l 78 972 l 78 1032 l 246 1032 q 369 1038 289 1032 q 492 1043 450 1043 q 876 912 751 1043 q 1000 547 1000 781 q 935 256 1000 382 q 753 59 869 129 q 488 -11 638 -11 q 381 -6 456 -11 q 247 0 294 0 l 69 0 l 69 60 l 189 72 l 189 957 m 303 68 q 443 57 360 57 l 490 57 q 692 113 604 58 q 828 271 779 167 q 878 522 878 375 q 456 976 878 976 q 351 971 410 976 q 303 968 315 968 l 303 68 m 1244 689 l 1225 558 l 1149 558 l 1149 771 l 1726 771 l 1750 719 l 1318 150 l 1224 71 l 1635 83 l 1689 235 l 1760 226 l 1733 0 l 1124 0 l 1099 53 l 1536 618 l 1622 699 l 1244 689 z "},"ǅ":{"ha":1815,"x_min":69,"x_max":1760,"o":"m 189 957 l 78 972 l 78 1032 l 246 1032 q 369 1038 289 1032 q 492 1043 450 1043 q 876 912 751 1043 q 1000 547 1000 781 q 935 256 1000 382 q 753 59 869 129 q 488 -11 638 -11 q 381 -6 456 -11 q 247 0 294 0 l 69 0 l 69 60 l 189 72 l 189 957 m 303 68 q 443 57 360 57 l 490 57 q 692 113 604 58 q 828 271 779 167 q 878 522 878 375 q 456 976 878 976 q 351 971 410 976 q 303 968 315 968 l 303 68 m 1244 689 l 1225 558 l 1149 558 l 1149 771 l 1726 771 l 1750 719 l 1318 150 l 1224 71 l 1635 83 l 1689 235 l 1760 226 l 1733 0 l 1124 0 l 1099 53 l 1536 618 l 1622 699 l 1244 689 m 1453 981 l 1650 1190 l 1693 1163 l 1506 892 l 1400 892 l 1211 1161 l 1260 1190 l 1453 981 z "},"E":{"ha":901,"x_min":69,"x_max":865,"o":"m 189 957 l 72 972 l 72 1032 l 760 1032 l 779 828 l 713 828 l 675 961 l 303 968 l 303 564 l 558 568 l 576 683 l 646 683 l 646 376 l 576 376 l 558 494 l 303 499 l 303 71 l 728 82 l 799 256 l 865 235 l 822 0 l 69 0 l 69 60 l 189 72 l 189 957 z "},"É":{"ha":901,"x_min":69,"x_max":865,"o":"m 189 957 l 72 972 l 72 1032 l 760 1032 l 779 828 l 713 828 l 675 961 l 303 968 l 303 564 l 558 568 l 576 683 l 646 683 l 646 376 l 576 376 l 558 494 l 303 499 l 303 71 l 728 82 l 799 256 l 865 235 l 822 0 l 69 0 l 69 60 l 189 72 l 189 957 m 375 1149 l 564 1361 l 660 1300 q 557 1198 626 1254 q 433 1114 488 1142 l 375 1149 z "},"Ĕ":{"ha":901,"x_min":69,"x_max":865,"o":"m 189 957 l 72 972 l 72 1032 l 760 1032 l 779 828 l 713 828 l 675 961 l 303 968 l 303 564 l 558 568 l 576 683 l 646 683 l 646 376 l 576 376 l 558 494 l 303 499 l 303 71 l 728 82 l 799 256 l 865 235 l 822 0 l 69 0 l 69 60 l 189 72 l 189 957 m 474 1122 q 308 1179 368 1122 q 249 1325 249 1236 q 250 1353 249 1343 l 314 1353 q 315 1333 314 1342 q 360 1249 324 1285 q 474 1214 396 1214 q 590 1250 554 1214 q 635 1335 626 1286 q 636 1353 636 1343 l 697 1353 q 699 1326 699 1343 q 637 1181 699 1239 q 474 1122 575 1122 z "},"Ě":{"ha":901,"x_min":69,"x_max":865,"o":"m 189 957 l 72 972 l 72 1032 l 760 1032 l 779 828 l 713 828 l 675 961 l 303 968 l 303 564 l 558 568 l 576 683 l 646 683 l 646 376 l 576 376 l 558 494 l 303 499 l 303 71 l 728 82 l 799 256 l 865 235 l 822 0 l 69 0 l 69 60 l 189 72 l 189 957 m 475 1225 l 647 1364 l 693 1335 l 528 1147 l 422 1147 l 254 1333 l 304 1364 l 475 1225 z "},"Ȩ":{"ha":901,"x_min":69,"x_max":865,"o":"m 397 -326 q 346 -321 374 -326 q 299 -308 318 -315 l 300 -226 q 333 -234 314 -231 q 364 -237 351 -237 q 444 -218 419 -237 q 469 -139 469 -199 q 453 -62 469 -101 q 422 0 438 -22 l 69 0 l 69 60 l 189 72 l 189 957 l 72 972 l 72 1032 l 760 1032 l 779 828 l 713 828 l 675 961 l 303 968 l 303 564 l 558 568 l 576 683 l 646 683 l 646 376 l 576 376 l 558 494 l 303 499 l 303 71 l 728 82 l 799 256 l 865 235 l 822 0 l 479 0 q 538 -81 508 -26 q 567 -190 567 -135 q 524 -295 567 -264 q 397 -326 482 -326 z "},"Ê":{"ha":901,"x_min":69,"x_max":865,"o":"m 189 957 l 72 972 l 72 1032 l 760 1032 l 779 828 l 713 828 l 675 961 l 303 968 l 303 564 l 558 568 l 576 683 l 646 683 l 646 376 l 576 376 l 558 494 l 303 499 l 303 71 l 728 82 l 799 256 l 865 235 l 822 0 l 69 0 l 69 60 l 189 72 l 189 957 m 526 1365 l 706 1165 l 656 1135 l 475 1282 l 290 1135 l 244 1164 l 422 1365 l 526 1365 z "},"Ế":{"ha":901,"x_min":69,"x_max":899,"o":"m 189 957 l 72 972 l 72 1032 l 760 1032 l 779 828 l 713 828 l 675 961 l 303 968 l 303 564 l 558 568 l 576 683 l 646 683 l 646 376 l 576 376 l 558 494 l 303 499 l 303 71 l 728 82 l 799 256 l 865 235 l 822 0 l 69 0 l 69 60 l 189 72 l 189 957 m 693 1224 l 825 1365 l 899 1306 q 838 1241 878 1275 q 743 1176 797 1207 l 693 1224 m 529 1307 l 692 1132 l 647 1088 l 474 1219 l 300 1088 l 254 1132 l 418 1307 l 529 1307 z "},"Ệ":{"ha":901,"x_min":69,"x_max":865,"o":"m 189 957 l 72 972 l 72 1032 l 760 1032 l 779 828 l 713 828 l 675 961 l 303 968 l 303 564 l 558 568 l 576 683 l 646 683 l 646 376 l 576 376 l 558 494 l 303 499 l 303 71 l 728 82 l 799 256 l 865 235 l 822 0 l 69 0 l 69 60 l 189 72 l 189 957 m 442 -272 q 388 -248 408 -272 q 368 -189 368 -224 q 391 -121 368 -150 q 456 -92 414 -92 q 511 -117 490 -92 q 532 -175 532 -142 q 510 -245 532 -218 q 444 -272 488 -272 l 442 -272 m 526 1365 l 706 1165 l 656 1135 l 475 1282 l 290 1135 l 244 1164 l 422 1365 l 526 1365 z "},"Ề":{"ha":901,"x_min":69,"x_max":885,"o":"m 189 957 l 72 972 l 72 1032 l 760 1032 l 779 828 l 713 828 l 675 961 l 303 968 l 303 564 l 558 568 l 576 683 l 646 683 l 646 376 l 576 376 l 558 494 l 303 499 l 303 71 l 728 82 l 799 256 l 865 235 l 822 0 l 69 0 l 69 60 l 189 72 l 189 957 m 835 1176 q 740 1241 781 1207 q 679 1306 700 1275 l 753 1365 l 885 1224 l 835 1176 m 529 1307 l 692 1132 l 647 1088 l 474 1219 l 300 1088 l 254 1132 l 418 1307 l 529 1307 z "},"Ể":{"ha":901,"x_min":69,"x_max":899,"o":"m 189 957 l 72 972 l 72 1032 l 760 1032 l 779 828 l 713 828 l 675 961 l 303 968 l 303 564 l 558 568 l 576 683 l 646 683 l 646 376 l 576 376 l 558 494 l 303 499 l 303 71 l 728 82 l 799 256 l 865 235 l 822 0 l 69 0 l 69 60 l 189 72 l 189 957 m 753 1082 q 731 1133 731 1114 q 741 1164 731 1153 q 774 1188 751 1175 q 805 1208 794 1199 q 815 1236 815 1218 q 801 1276 815 1257 q 753 1299 788 1294 q 724 1294 744 1300 q 700 1286 704 1289 l 696 1356 q 718 1363 699 1360 q 753 1365 738 1365 q 860 1336 822 1365 q 899 1249 899 1307 q 883 1198 899 1217 q 836 1160 867 1179 q 801 1133 811 1143 q 789 1106 789 1121 q 792 1090 789 1101 l 753 1082 m 529 1307 l 692 1132 l 647 1088 l 474 1219 l 300 1088 l 254 1132 l 418 1307 l 529 1307 z "},"Ễ":{"ha":901,"x_min":69,"x_max":865,"o":"m 189 957 l 72 972 l 72 1032 l 760 1032 l 779 828 l 713 828 l 675 961 l 303 968 l 303 564 l 558 568 l 576 683 l 646 683 l 646 376 l 576 376 l 558 494 l 303 499 l 303 71 l 728 82 l 799 256 l 865 235 l 822 0 l 69 0 l 69 60 l 189 72 l 189 957 m 271 1353 q 288 1404 272 1378 q 333 1449 304 1431 q 401 1467 363 1467 q 455 1454 431 1467 q 510 1418 479 1442 q 552 1390 536 1399 q 586 1381 568 1381 q 634 1392 618 1381 q 671 1433 650 1404 l 718 1400 q 671 1326 710 1354 q 582 1297 632 1297 q 537 1308 558 1297 q 482 1340 515 1318 q 435 1369 454 1360 q 397 1378 415 1378 q 356 1363 374 1378 q 317 1321 338 1349 l 271 1353 m 526 1265 l 724 1138 l 675 1088 l 474 1183 l 268 1088 l 224 1138 l 418 1265 l 526 1265 z "},"Ë":{"ha":901,"x_min":69,"x_max":865,"o":"m 189 957 l 72 972 l 72 1032 l 760 1032 l 779 828 l 713 828 l 675 961 l 303 968 l 303 564 l 558 568 l 576 683 l 646 683 l 646 376 l 576 376 l 558 494 l 303 499 l 303 71 l 728 82 l 799 256 l 865 235 l 822 0 l 69 0 l 69 60 l 189 72 l 189 957 m 300 1147 q 249 1170 268 1147 q 231 1226 231 1193 q 251 1292 231 1265 q 311 1319 272 1319 l 313 1319 q 366 1294 346 1319 q 386 1238 386 1269 q 364 1173 386 1199 q 301 1147 342 1147 l 300 1147 m 631 1147 q 580 1170 599 1147 q 561 1226 561 1193 q 582 1292 561 1265 q 642 1319 603 1319 l 643 1319 q 696 1295 676 1319 q 715 1238 715 1271 q 693 1173 715 1199 q 631 1147 671 1147 z "},"Ė":{"ha":901,"x_min":69,"x_max":865,"o":"m 189 957 l 72 972 l 72 1032 l 760 1032 l 779 828 l 713 828 l 675 961 l 303 968 l 303 564 l 558 568 l 576 683 l 646 683 l 646 376 l 576 376 l 558 494 l 303 499 l 303 71 l 728 82 l 799 256 l 865 235 l 822 0 l 69 0 l 69 60 l 189 72 l 189 957 m 467 1161 q 415 1183 435 1161 q 396 1240 396 1206 q 417 1306 396 1279 q 478 1332 439 1332 q 531 1308 511 1332 q 551 1251 551 1283 q 529 1187 551 1213 q 467 1161 507 1161 z "},"Ẹ":{"ha":901,"x_min":69,"x_max":865,"o":"m 189 957 l 72 972 l 72 1032 l 760 1032 l 779 828 l 713 828 l 675 961 l 303 968 l 303 564 l 558 568 l 576 683 l 646 683 l 646 376 l 576 376 l 558 494 l 303 499 l 303 71 l 728 82 l 799 256 l 865 235 l 822 0 l 69 0 l 69 60 l 189 72 l 189 957 m 442 -272 q 388 -248 408 -272 q 368 -189 368 -224 q 391 -121 368 -150 q 456 -92 414 -92 q 511 -117 490 -92 q 532 -175 532 -142 q 510 -245 532 -218 q 444 -272 488 -272 l 442 -272 z "},"È":{"ha":901,"x_min":69,"x_max":865,"o":"m 189 957 l 72 972 l 72 1032 l 760 1032 l 779 828 l 713 828 l 675 961 l 303 968 l 303 564 l 558 568 l 576 683 l 646 683 l 646 376 l 576 376 l 558 494 l 303 499 l 303 71 l 728 82 l 799 256 l 865 235 l 822 0 l 69 0 l 69 60 l 189 72 l 189 957 m 514 1114 q 390 1198 460 1142 q 288 1300 321 1254 l 383 1361 l 572 1149 l 514 1114 z "},"Ẻ":{"ha":901,"x_min":69,"x_max":865,"o":"m 189 957 l 72 972 l 72 1032 l 760 1032 l 779 828 l 713 828 l 675 961 l 303 968 l 303 564 l 558 568 l 576 683 l 646 683 l 646 376 l 576 376 l 558 494 l 303 499 l 303 71 l 728 82 l 799 256 l 865 235 l 822 0 l 69 0 l 69 60 l 189 72 l 189 957 m 451 1078 q 435 1106 442 1089 q 429 1140 429 1124 q 439 1160 429 1153 q 468 1179 449 1168 q 503 1204 493 1194 q 514 1232 514 1214 q 435 1285 514 1285 q 375 1271 400 1285 l 371 1344 q 416 1359 389 1353 q 467 1365 443 1365 q 613 1247 613 1365 q 597 1197 613 1214 q 549 1161 581 1179 q 513 1136 517 1140 q 500 1099 500 1126 q 503 1078 500 1085 l 451 1078 z "},"Ē":{"ha":901,"x_min":69,"x_max":865,"o":"m 189 957 l 72 972 l 72 1032 l 760 1032 l 779 828 l 713 828 l 675 961 l 303 968 l 303 564 l 558 568 l 576 683 l 646 683 l 646 376 l 576 376 l 558 494 l 303 499 l 303 71 l 728 82 l 799 256 l 865 235 l 822 0 l 69 0 l 69 60 l 189 72 l 189 957 m 671 1193 l 276 1193 l 276 1281 l 671 1281 l 671 1193 z "},"Ę":{"ha":903,"x_min":69,"x_max":865,"o":"m 189 957 l 72 972 l 72 1032 l 760 1032 l 779 828 l 713 828 l 675 961 l 303 968 l 303 564 l 558 568 l 576 683 l 646 683 l 646 376 l 576 376 l 558 494 l 303 499 l 303 71 l 728 82 l 799 256 l 865 235 l 822 0 l 804 0 q 713 -40 760 -8 q 637 -109 667 -71 q 607 -179 607 -147 q 637 -247 607 -225 q 714 -268 667 -268 q 822 -240 769 -268 l 822 -299 q 751 -333 793 -321 q 665 -346 708 -346 q 544 -315 593 -346 q 496 -215 496 -283 q 554 -95 496 -158 q 693 0 613 -32 l 69 0 l 69 60 l 189 72 l 189 957 z "},"Ẽ":{"ha":901,"x_min":69,"x_max":865,"o":"m 189 957 l 72 972 l 72 1032 l 760 1032 l 779 828 l 713 828 l 675 961 l 303 968 l 303 564 l 558 568 l 576 683 l 646 683 l 646 376 l 576 376 l 558 494 l 303 499 l 303 71 l 728 82 l 799 256 l 865 235 l 822 0 l 69 0 l 69 60 l 189 72 l 189 957 m 582 1138 q 513 1153 540 1138 q 450 1197 486 1168 q 409 1228 426 1218 q 371 1239 392 1239 q 319 1218 335 1239 q 289 1158 303 1197 l 231 1189 q 382 1322 276 1322 q 451 1306 424 1322 q 513 1260 479 1290 q 550 1228 533 1239 q 586 1217 567 1217 q 635 1241 617 1217 q 667 1301 654 1265 l 725 1271 q 674 1173 704 1208 q 582 1138 643 1138 z "},"F":{"ha":857,"x_min":67,"x_max":808,"o":"m 189 957 l 67 972 l 67 1032 l 794 1032 l 808 804 l 732 804 l 694 961 l 303 968 l 303 557 l 581 561 l 604 674 l 668 674 l 668 367 l 604 367 l 581 485 l 303 490 l 303 72 l 521 60 l 521 0 l 75 0 l 75 60 l 189 72 l 189 957 z "},"Ḟ":{"ha":857,"x_min":67,"x_max":808,"o":"m 189 957 l 67 972 l 67 1032 l 794 1032 l 808 804 l 732 804 l 694 961 l 303 968 l 303 557 l 581 561 l 604 674 l 668 674 l 668 367 l 604 367 l 581 485 l 303 490 l 303 72 l 521 60 l 521 0 l 75 0 l 75 60 l 189 72 l 189 957 m 464 1161 q 413 1183 432 1161 q 393 1240 393 1206 q 415 1306 393 1279 q 475 1332 436 1332 q 528 1308 508 1332 q 549 1251 549 1283 q 526 1187 549 1213 q 464 1161 504 1161 z "},"G":{"ha":1025,"x_min":67,"x_max":997,"o":"m 544 -15 q 289 51 397 -15 q 124 235 181 118 q 67 499 67 351 q 135 791 67 668 q 322 978 204 914 q 588 1043 440 1043 q 751 1031 679 1043 q 901 1000 824 1018 l 890 769 l 818 769 l 788 929 q 713 962 765 947 q 575 976 661 976 q 380 926 465 976 q 246 777 294 876 q 197 535 197 678 q 237 297 197 407 q 357 119 276 188 q 553 51 438 51 q 692 69 626 51 q 796 115 758 86 l 796 432 l 603 446 l 603 519 l 997 519 l 997 446 l 913 432 l 913 56 q 814 32 883 54 q 683 -3 743 10 q 544 -15 622 -15 z "},"Ǵ":{"ha":1025,"x_min":67,"x_max":997,"o":"m 544 -15 q 289 51 397 -15 q 124 235 181 118 q 67 499 67 351 q 135 791 67 668 q 322 978 204 914 q 588 1043 440 1043 q 751 1031 679 1043 q 901 1000 824 1018 l 890 769 l 818 769 l 788 929 q 713 962 765 947 q 575 976 661 976 q 380 926 465 976 q 246 777 294 876 q 197 535 197 678 q 237 297 197 407 q 357 119 276 188 q 553 51 438 51 q 692 69 626 51 q 796 115 758 86 l 796 432 l 603 446 l 603 519 l 997 519 l 997 446 l 913 432 l 913 56 q 814 32 883 54 q 683 -3 743 10 q 544 -15 622 -15 m 456 1149 l 644 1361 l 740 1300 q 638 1198 707 1254 q 514 1114 568 1142 l 456 1149 z "},"Ğ":{"ha":1025,"x_min":67,"x_max":997,"o":"m 544 -15 q 289 51 397 -15 q 124 235 181 118 q 67 499 67 351 q 135 791 67 668 q 322 978 204 914 q 588 1043 440 1043 q 751 1031 679 1043 q 901 1000 824 1018 l 890 769 l 818 769 l 788 929 q 713 962 765 947 q 575 976 661 976 q 380 926 465 976 q 246 777 294 876 q 197 535 197 678 q 237 297 197 407 q 357 119 276 188 q 553 51 438 51 q 692 69 626 51 q 796 115 758 86 l 796 432 l 603 446 l 603 519 l 997 519 l 997 446 l 913 432 l 913 56 q 814 32 883 54 q 683 -3 743 10 q 544 -15 622 -15 m 554 1122 q 389 1179 449 1122 q 329 1325 329 1236 q 331 1353 329 1343 l 394 1353 q 396 1333 394 1342 q 440 1249 404 1285 q 554 1214 476 1214 q 671 1250 635 1214 q 715 1335 707 1286 q 717 1353 717 1343 l 778 1353 q 779 1326 779 1343 q 717 1181 779 1239 q 554 1122 656 1122 z "},"Ǧ":{"ha":1025,"x_min":67,"x_max":997,"o":"m 544 -15 q 289 51 397 -15 q 124 235 181 118 q 67 499 67 351 q 135 791 67 668 q 322 978 204 914 q 588 1043 440 1043 q 751 1031 679 1043 q 901 1000 824 1018 l 890 769 l 818 769 l 788 929 q 713 962 765 947 q 575 976 661 976 q 380 926 465 976 q 246 777 294 876 q 197 535 197 678 q 237 297 197 407 q 357 119 276 188 q 553 51 438 51 q 692 69 626 51 q 796 115 758 86 l 796 432 l 603 446 l 603 519 l 997 519 l 997 446 l 913 432 l 913 56 q 814 32 883 54 q 683 -3 743 10 q 544 -15 622 -15 m 556 1225 l 728 1364 l 774 1335 l 608 1147 l 503 1147 l 335 1333 l 385 1364 l 556 1225 z "},"Ĝ":{"ha":1025,"x_min":67,"x_max":997,"o":"m 544 -15 q 289 51 397 -15 q 124 235 181 118 q 67 499 67 351 q 135 791 67 668 q 322 978 204 914 q 588 1043 440 1043 q 751 1031 679 1043 q 901 1000 824 1018 l 890 769 l 818 769 l 788 929 q 713 962 765 947 q 575 976 661 976 q 380 926 465 976 q 246 777 294 876 q 197 535 197 678 q 237 297 197 407 q 357 119 276 188 q 553 51 438 51 q 692 69 626 51 q 796 115 758 86 l 796 432 l 603 446 l 603 519 l 997 519 l 997 446 l 913 432 l 913 56 q 814 32 883 54 q 683 -3 743 10 q 544 -15 622 -15 m 607 1365 l 786 1165 l 736 1135 l 556 1282 l 371 1135 l 325 1164 l 503 1365 l 607 1365 z "},"Ģ":{"ha":1025,"x_min":67,"x_max":997,"o":"m 544 -15 q 289 51 397 -15 q 124 235 181 118 q 67 499 67 351 q 135 791 67 668 q 322 978 204 914 q 588 1043 440 1043 q 751 1031 679 1043 q 901 1000 824 1018 l 890 769 l 818 769 l 788 929 q 713 962 765 947 q 575 976 661 976 q 380 926 465 976 q 246 777 294 876 q 197 535 197 678 q 237 297 197 407 q 357 119 276 188 q 553 51 438 51 q 692 69 626 51 q 796 115 758 86 l 796 432 l 603 446 l 603 519 l 997 519 l 997 446 l 913 432 l 913 56 q 814 32 883 54 q 683 -3 743 10 q 544 -15 622 -15 m 601 -192 q 581 -283 601 -242 q 535 -349 560 -324 q 497 -378 510 -374 l 496 -378 l 458 -351 l 458 -343 q 492 -304 479 -333 q 506 -243 506 -275 q 498 -214 506 -225 q 476 -193 490 -203 q 457 -173 464 -185 q 450 -142 450 -161 q 471 -94 450 -108 q 511 -81 492 -81 l 517 -81 q 578 -110 556 -81 q 601 -192 601 -139 z "},"Ġ":{"ha":1025,"x_min":67,"x_max":997,"o":"m 544 -15 q 289 51 397 -15 q 124 235 181 118 q 67 499 67 351 q 135 791 67 668 q 322 978 204 914 q 588 1043 440 1043 q 751 1031 679 1043 q 901 1000 824 1018 l 890 769 l 818 769 l 788 929 q 713 962 765 947 q 575 976 661 976 q 380 926 465 976 q 246 777 294 876 q 197 535 197 678 q 237 297 197 407 q 357 119 276 188 q 553 51 438 51 q 692 69 626 51 q 796 115 758 86 l 796 432 l 603 446 l 603 519 l 997 519 l 997 446 l 913 432 l 913 56 q 814 32 883 54 q 683 -3 743 10 q 544 -15 622 -15 m 547 1161 q 496 1183 515 1161 q 476 1240 476 1206 q 498 1306 476 1279 q 558 1332 519 1332 q 612 1308 592 1332 q 632 1251 632 1283 q 610 1187 632 1213 q 547 1161 588 1161 z "},"Ḡ":{"ha":1025,"x_min":67,"x_max":997,"o":"m 544 -15 q 289 51 397 -15 q 124 235 181 118 q 67 499 67 351 q 135 791 67 668 q 322 978 204 914 q 588 1043 440 1043 q 751 1031 679 1043 q 901 1000 824 1018 l 890 769 l 818 769 l 788 929 q 713 962 765 947 q 575 976 661 976 q 380 926 465 976 q 246 777 294 876 q 197 535 197 678 q 237 297 197 407 q 357 119 276 188 q 553 51 438 51 q 692 69 626 51 q 796 115 758 86 l 796 432 l 603 446 l 603 519 l 997 519 l 997 446 l 913 432 l 913 56 q 814 32 883 54 q 683 -3 743 10 q 544 -15 622 -15 m 751 1193 l 357 1193 l 357 1281 l 751 1281 l 751 1193 z "},"H":{"ha":1144,"x_min":75,"x_max":1067,"o":"m 193 957 l 79 972 l 79 1032 l 428 1032 l 428 972 l 307 957 l 307 567 l 838 567 l 838 957 l 722 972 l 722 1032 l 1067 1032 l 1067 972 l 953 957 l 953 72 l 1067 60 l 1067 0 l 721 0 l 721 60 l 838 72 l 838 493 l 307 493 l 307 72 l 429 60 l 429 0 l 75 0 l 75 60 l 193 72 l 193 957 z "},"Ħ":{"ha":1144,"x_min":33,"x_max":1111,"o":"m 193 957 l 79 972 l 79 1033 l 426 1033 l 426 972 l 306 957 l 306 771 l 839 771 l 839 957 l 724 972 l 724 1033 l 1067 1033 l 1067 972 l 953 957 l 953 771 l 1111 771 l 1111 707 l 953 707 l 953 74 l 1067 58 l 1067 0 l 724 0 l 724 58 l 839 74 l 839 429 l 306 429 l 306 72 l 428 60 l 428 0 l 75 0 l 75 60 l 193 72 l 193 707 l 33 707 l 33 771 l 193 771 l 193 957 m 306 707 l 306 500 l 839 500 l 839 707 l 306 707 z "},"Ĥ":{"ha":1144,"x_min":75,"x_max":1067,"o":"m 193 957 l 79 972 l 79 1032 l 428 1032 l 428 972 l 307 957 l 307 567 l 838 567 l 838 957 l 722 972 l 722 1032 l 1067 1032 l 1067 972 l 953 957 l 953 72 l 1067 60 l 1067 0 l 721 0 l 721 60 l 838 72 l 838 493 l 307 493 l 307 72 l 429 60 l 429 0 l 75 0 l 75 60 l 193 72 l 193 957 m 636 1365 l 815 1165 l 765 1135 l 585 1282 l 400 1135 l 354 1164 l 532 1365 l 636 1365 z "},"Ḥ":{"ha":1144,"x_min":75,"x_max":1067,"o":"m 193 957 l 79 972 l 79 1032 l 428 1032 l 428 972 l 307 957 l 307 567 l 838 567 l 838 957 l 722 972 l 722 1032 l 1067 1032 l 1067 972 l 953 957 l 953 72 l 1067 60 l 1067 0 l 721 0 l 721 60 l 838 72 l 838 493 l 307 493 l 307 72 l 429 60 l 429 0 l 75 0 l 75 60 l 193 72 l 193 957 m 563 -272 q 509 -248 529 -272 q 489 -189 489 -224 q 512 -121 489 -150 q 576 -92 535 -92 q 632 -117 611 -92 q 653 -175 653 -142 q 631 -245 653 -218 q 565 -272 608 -272 l 563 -272 z "},"I":{"ha":551,"x_min":83,"x_max":468,"o":"m 218 957 l 83 972 l 83 1032 l 468 1032 l 468 972 l 333 957 l 333 72 l 468 58 l 468 0 l 83 0 l 83 60 l 218 72 l 218 957 z "},"Ĳ":{"ha":1072,"x_min":83,"x_max":1011,"o":"m 218 957 l 83 972 l 83 1032 l 468 1032 l 468 972 l 333 957 l 333 72 l 468 58 l 468 0 l 83 0 l 83 60 l 218 72 l 218 957 m 550 -190 q 664 -127 614 -174 q 735 -12 714 -81 q 758 115 753 44 q 763 351 763 186 l 763 956 l 624 972 l 624 1032 l 1011 1032 l 1011 972 l 878 956 l 878 382 l 878 274 q 875 130 878 186 q 864 29 872 74 q 760 -153 842 -83 q 581 -240 679 -222 l 550 -190 z "},"Í":{"ha":551,"x_min":83,"x_max":468,"o":"m 218 957 l 83 972 l 83 1032 l 468 1032 l 468 972 l 333 957 l 333 72 l 468 58 l 468 0 l 83 0 l 83 60 l 218 72 l 218 957 m 178 1149 l 367 1361 l 463 1300 q 360 1198 429 1254 q 236 1114 290 1142 l 178 1149 z "},"Ĭ":{"ha":551,"x_min":51,"x_max":501,"o":"m 218 957 l 83 972 l 83 1032 l 468 1032 l 468 972 l 333 957 l 333 72 l 468 58 l 468 0 l 83 0 l 83 60 l 218 72 l 218 957 m 276 1122 q 111 1179 171 1122 q 51 1325 51 1236 q 53 1353 51 1343 l 117 1353 q 118 1333 117 1342 q 163 1249 126 1285 q 276 1214 199 1214 q 393 1250 357 1214 q 438 1335 429 1286 q 439 1353 439 1343 l 500 1353 q 501 1326 501 1343 q 440 1181 501 1239 q 276 1122 378 1122 z "},"Ǐ":{"ha":551,"x_min":57,"x_max":496,"o":"m 218 957 l 83 972 l 83 1032 l 468 1032 l 468 972 l 333 957 l 333 72 l 468 58 l 468 0 l 83 0 l 83 60 l 218 72 l 218 957 m 278 1225 l 450 1364 l 496 1335 l 331 1147 l 225 1147 l 57 1333 l 107 1364 l 278 1225 z "},"Î":{"ha":551,"x_min":47,"x_max":508,"o":"m 218 957 l 83 972 l 83 1032 l 468 1032 l 468 972 l 333 957 l 333 72 l 468 58 l 468 0 l 83 0 l 83 60 l 218 72 l 218 957 m 329 1365 l 508 1165 l 458 1135 l 278 1282 l 93 1135 l 47 1164 l 225 1365 l 329 1365 z "},"Ï":{"ha":551,"x_min":33,"x_max":518,"o":"m 218 957 l 83 972 l 83 1032 l 468 1032 l 468 972 l 333 957 l 333 72 l 468 58 l 468 0 l 83 0 l 83 60 l 218 72 l 218 957 m 103 1147 q 52 1170 71 1147 q 33 1226 33 1193 q 54 1292 33 1265 q 114 1319 75 1319 l 115 1319 q 169 1294 149 1319 q 189 1238 189 1269 q 167 1173 189 1199 q 104 1147 144 1147 l 103 1147 m 433 1147 q 383 1170 401 1147 q 364 1226 364 1193 q 385 1292 364 1265 q 444 1319 406 1319 l 446 1319 q 499 1295 479 1319 q 518 1238 518 1271 q 496 1173 518 1199 q 433 1147 474 1147 z "},"İ":{"ha":551,"x_min":83,"x_max":468,"o":"m 218 957 l 83 972 l 83 1032 l 468 1032 l 468 972 l 333 957 l 333 72 l 468 58 l 468 0 l 83 0 l 83 60 l 218 72 l 218 957 m 269 1161 q 218 1183 238 1161 q 199 1240 199 1206 q 220 1306 199 1279 q 281 1332 242 1332 q 334 1308 314 1332 q 354 1251 354 1283 q 332 1187 354 1213 q 269 1161 310 1161 z "},"Ị":{"ha":551,"x_min":83,"x_max":468,"o":"m 218 957 l 83 972 l 83 1032 l 468 1032 l 468 972 l 333 957 l 333 72 l 468 58 l 468 0 l 83 0 l 83 60 l 218 72 l 218 957 m 267 -272 q 213 -248 233 -272 q 193 -189 193 -224 q 216 -121 193 -150 q 281 -92 239 -92 q 336 -117 315 -92 q 357 -175 357 -142 q 335 -245 357 -218 q 269 -272 313 -272 l 267 -272 z "},"Ì":{"ha":551,"x_min":83,"x_max":468,"o":"m 218 957 l 83 972 l 83 1032 l 468 1032 l 468 972 l 333 957 l 333 72 l 468 58 l 468 0 l 83 0 l 83 60 l 218 72 l 218 957 m 317 1114 q 193 1198 263 1142 q 90 1300 124 1254 l 186 1361 l 375 1149 l 317 1114 z "},"Ỉ":{"ha":551,"x_min":83,"x_max":468,"o":"m 218 957 l 83 972 l 83 1032 l 468 1032 l 468 972 l 333 957 l 333 72 l 468 58 l 468 0 l 83 0 l 83 60 l 218 72 l 218 957 m 254 1078 q 238 1106 244 1089 q 232 1140 232 1124 q 242 1160 232 1153 q 271 1179 251 1168 q 306 1204 296 1194 q 317 1232 317 1214 q 238 1285 317 1285 q 178 1271 203 1285 l 174 1344 q 219 1359 192 1353 q 269 1365 246 1365 q 415 1247 415 1365 q 399 1197 415 1214 q 351 1161 383 1179 q 315 1136 319 1140 q 303 1099 303 1126 q 306 1078 303 1085 l 254 1078 z "},"Ī":{"ha":551,"x_min":79,"x_max":474,"o":"m 218 957 l 83 972 l 83 1032 l 468 1032 l 468 972 l 333 957 l 333 72 l 468 58 l 468 0 l 83 0 l 83 60 l 218 72 l 218 957 m 474 1193 l 79 1193 l 79 1281 l 474 1281 l 474 1193 z "},"Į":{"ha":551,"x_min":83,"x_max":468,"o":"m 218 957 l 83 972 l 83 1032 l 468 1032 l 468 972 l 333 957 l 333 72 l 468 58 l 468 0 l 397 0 q 285 -83 332 -29 q 238 -179 238 -136 q 267 -247 238 -225 q 346 -268 297 -268 q 454 -240 401 -268 l 454 -299 q 383 -333 425 -321 q 297 -346 340 -346 q 176 -315 225 -346 q 128 -215 128 -283 q 184 -97 128 -161 q 311 0 240 -32 l 83 0 l 83 60 l 218 72 l 218 957 z "},"Ĩ":{"ha":551,"x_min":33,"x_max":528,"o":"m 218 957 l 83 972 l 83 1032 l 468 1032 l 468 972 l 333 957 l 333 72 l 468 58 l 468 0 l 83 0 l 83 60 l 218 72 l 218 957 m 385 1138 q 316 1153 343 1138 q 253 1197 289 1168 q 212 1228 229 1218 q 174 1239 194 1239 q 122 1218 138 1239 q 92 1158 106 1197 l 33 1189 q 185 1322 79 1322 q 254 1306 226 1322 q 315 1260 282 1290 q 353 1228 336 1239 q 389 1217 369 1217 q 438 1241 419 1217 q 469 1301 457 1265 l 528 1271 q 476 1173 507 1208 q 385 1138 446 1138 z "},"J":{"ha":521,"x_min":-1,"x_max":460,"o":"m -1 -190 q 113 -127 63 -174 q 183 -12 163 -81 q 206 115 201 44 q 211 351 211 186 l 211 956 l 72 972 l 72 1032 l 460 1032 l 460 972 l 326 956 l 326 382 l 326 274 q 324 130 326 186 q 313 29 321 74 q 209 -153 290 -83 q 29 -240 128 -222 l -1 -190 z "},"Ĵ":{"ha":521,"x_min":-1,"x_max":497,"o":"m -1 -190 q 113 -127 63 -174 q 183 -12 163 -81 q 206 115 201 44 q 211 351 211 186 l 211 956 l 72 972 l 72 1032 l 460 1032 l 460 972 l 326 956 l 326 382 l 326 274 q 324 130 326 186 q 313 29 321 74 q 209 -153 290 -83 q 29 -240 128 -222 l -1 -190 m 318 1365 l 497 1165 l 447 1135 l 267 1282 l 82 1135 l 36 1164 l 214 1365 l 318 1365 z "},"K":{"ha":992,"x_min":74,"x_max":990,"o":"m 824 0 q 758 58 797 0 q 647 239 718 115 q 538 419 579 356 q 458 524 497 483 l 307 353 l 307 72 l 438 58 l 438 0 l 74 0 l 74 60 l 193 72 l 193 957 l 76 972 l 76 1032 l 426 1032 l 426 972 l 307 957 l 307 451 l 742 957 l 624 972 l 624 1032 l 946 1032 l 946 972 l 844 957 l 525 600 q 625 488 574 560 q 765 281 676 415 q 870 125 833 175 q 925 74 907 75 l 990 58 l 990 0 l 824 0 z "},"Ķ":{"ha":992,"x_min":74,"x_max":990,"o":"m 824 0 q 758 58 797 0 q 647 239 718 115 q 538 419 579 356 q 458 524 497 483 l 307 353 l 307 72 l 438 58 l 438 0 l 74 0 l 74 60 l 193 72 l 193 957 l 76 972 l 76 1032 l 426 1032 l 426 972 l 307 957 l 307 451 l 742 957 l 624 972 l 624 1032 l 946 1032 l 946 972 l 844 957 l 525 600 q 625 488 574 560 q 765 281 676 415 q 870 125 833 175 q 925 74 907 75 l 990 58 l 990 0 l 824 0 m 629 -192 q 608 -283 629 -242 q 563 -349 588 -324 q 525 -378 538 -374 l 524 -378 l 486 -351 l 486 -343 q 520 -304 507 -333 q 533 -243 533 -275 q 526 -214 533 -225 q 504 -193 518 -203 q 485 -173 492 -185 q 478 -142 478 -161 q 499 -94 478 -108 q 539 -81 519 -81 l 544 -81 q 606 -110 583 -81 q 629 -192 629 -139 z "},"L":{"ha":876,"x_min":74,"x_max":847,"o":"m 193 957 l 76 972 l 76 1032 l 446 1032 l 446 972 l 307 957 l 307 72 l 703 83 l 781 300 l 847 289 l 796 0 l 74 0 l 74 60 l 193 72 l 193 957 z "},"Ǉ":{"ha":1397,"x_min":74,"x_max":1336,"o":"m 193 957 l 76 972 l 76 1032 l 446 1032 l 446 972 l 307 957 l 307 72 l 703 83 l 781 300 l 847 289 l 796 0 l 74 0 l 74 60 l 193 72 l 193 957 m 875 -190 q 989 -127 939 -174 q 1060 -12 1039 -81 q 1083 115 1078 44 q 1088 351 1088 186 l 1088 956 l 949 972 l 949 1032 l 1336 1032 l 1336 972 l 1203 956 l 1203 382 l 1203 274 q 1200 130 1203 186 q 1189 29 1197 74 q 1085 -153 1167 -83 q 906 -240 1004 -222 l 875 -190 z "},"Ĺ":{"ha":876,"x_min":74,"x_max":847,"o":"m 193 957 l 76 972 l 76 1032 l 446 1032 l 446 972 l 307 957 l 307 72 l 703 83 l 781 300 l 847 289 l 796 0 l 74 0 l 74 60 l 193 72 l 193 957 m 153 1149 l 342 1361 l 438 1300 q 335 1198 404 1254 q 211 1114 265 1142 l 153 1149 z "},"Ľ":{"ha":876,"x_min":74,"x_max":847,"o":"m 193 957 l 76 972 l 76 1032 l 446 1032 l 446 972 l 307 957 l 307 72 l 703 83 l 781 300 l 847 289 l 796 0 l 74 0 l 74 60 l 193 72 l 193 957 m 629 835 l 625 843 q 633 979 633 918 q 618 1099 633 1067 l 625 1122 l 728 1122 q 740 1021 740 1085 q 727 926 740 988 q 696 835 714 864 l 629 835 z "},"Ļ":{"ha":876,"x_min":74,"x_max":847,"o":"m 193 957 l 76 972 l 76 1032 l 446 1032 l 446 972 l 307 957 l 307 72 l 703 83 l 781 300 l 847 289 l 796 0 l 74 0 l 74 60 l 193 72 l 193 957 m 528 -192 q 507 -283 528 -242 q 461 -349 486 -324 q 424 -378 436 -374 l 422 -378 l 385 -351 l 385 -343 q 419 -304 406 -333 q 432 -243 432 -275 q 424 -214 432 -225 q 403 -193 417 -203 q 383 -173 390 -185 q 376 -142 376 -161 q 397 -94 376 -108 q 438 -81 418 -81 l 443 -81 q 505 -110 482 -81 q 528 -192 528 -139 z "},"Ŀ":{"ha":963,"x_min":74,"x_max":921,"o":"m 193 957 l 76 972 l 76 1032 l 446 1032 l 446 972 l 307 957 l 307 72 l 703 83 l 781 300 l 847 289 l 796 0 l 74 0 l 74 60 l 193 72 l 193 957 m 832 456 q 778 477 800 456 q 756 533 756 499 q 783 599 756 572 q 846 625 810 625 q 902 603 883 625 q 921 547 921 581 q 894 482 921 508 q 832 456 868 456 z "},"Ḷ":{"ha":876,"x_min":74,"x_max":847,"o":"m 193 957 l 76 972 l 76 1032 l 446 1032 l 446 972 l 307 957 l 307 72 l 703 83 l 781 300 l 847 289 l 796 0 l 74 0 l 74 60 l 193 72 l 193 957 m 429 -272 q 376 -248 396 -272 q 356 -189 356 -224 q 378 -121 356 -150 q 443 -92 401 -92 q 499 -117 478 -92 q 519 -175 519 -142 q 497 -245 519 -218 q 432 -272 475 -272 l 429 -272 z "},"ǈ":{"ha":1304,"x_min":74,"x_max":1189,"o":"m 193 957 l 76 972 l 76 1032 l 446 1032 l 446 972 l 307 957 l 307 72 l 703 83 l 781 300 l 847 289 l 796 0 l 74 0 l 74 60 l 193 72 l 193 957 m 1099 917 q 1024 996 1024 917 q 1047 1062 1024 1036 q 1111 1088 1071 1088 q 1171 1065 1153 1088 q 1189 1008 1189 1042 q 1166 941 1189 965 q 1100 917 1143 917 l 1099 917 m 938 765 l 1131 788 l 1133 788 l 1160 765 l 1160 8 q 947 -337 1160 -318 q 902 -337 931 -339 q 868 -332 874 -336 l 863 -275 q 896 -273 874 -276 q 942 -261 918 -269 q 1025 -167 1001 -243 q 1049 35 1049 -90 l 1047 674 l 938 699 l 938 765 z "},"Ł":{"ha":879,"x_min":35,"x_max":847,"o":"m 193 957 l 76 972 l 76 1032 l 446 1032 l 446 972 l 307 957 l 307 643 l 597 772 l 597 697 l 307 569 l 307 72 l 703 83 l 781 300 l 847 289 l 796 0 l 74 0 l 74 60 l 193 72 l 193 522 l 35 454 l 35 525 l 193 594 l 193 957 z "},"M":{"ha":1351,"x_min":11,"x_max":1340,"o":"m 232 957 l 78 972 l 78 1032 l 406 1032 l 621 390 l 672 204 l 718 390 l 932 1032 l 1257 1032 l 1257 972 l 1104 957 l 1214 74 l 1340 60 l 1340 0 l 967 0 l 967 60 l 1096 72 l 1032 706 l 1001 983 l 940 792 l 689 50 l 633 50 l 397 714 l 307 983 l 279 706 l 222 72 l 358 60 l 358 0 l 11 0 l 11 60 l 129 72 l 232 957 z "},"Ḿ":{"ha":1351,"x_min":11,"x_max":1340,"o":"m 232 957 l 78 972 l 78 1032 l 406 1032 l 621 390 l 672 204 l 718 390 l 932 1032 l 1257 1032 l 1257 972 l 1104 957 l 1214 74 l 1340 60 l 1340 0 l 967 0 l 967 60 l 1096 72 l 1032 706 l 1001 983 l 940 792 l 689 50 l 633 50 l 397 714 l 307 983 l 279 706 l 222 72 l 358 60 l 358 0 l 11 0 l 11 60 l 129 72 l 232 957 m 588 1149 l 776 1361 l 872 1300 q 769 1198 839 1254 q 646 1114 700 1142 l 588 1149 z "},"Ṁ":{"ha":1351,"x_min":11,"x_max":1340,"o":"m 232 957 l 78 972 l 78 1032 l 406 1032 l 621 390 l 672 204 l 718 390 l 932 1032 l 1257 1032 l 1257 972 l 1104 957 l 1214 74 l 1340 60 l 1340 0 l 967 0 l 967 60 l 1096 72 l 1032 706 l 1001 983 l 940 792 l 689 50 l 633 50 l 397 714 l 307 983 l 279 706 l 222 72 l 358 60 l 358 0 l 11 0 l 11 60 l 129 72 l 232 957 m 679 1161 q 628 1183 647 1161 q 608 1240 608 1206 q 630 1306 608 1279 q 690 1332 651 1332 q 744 1308 724 1332 q 764 1251 764 1283 q 742 1187 764 1213 q 679 1161 719 1161 z "},"N":{"ha":1107,"x_min":78,"x_max":1067,"o":"m 189 957 l 78 972 l 78 1032 l 301 1032 l 793 319 l 872 181 l 872 957 l 750 972 l 750 1032 l 1067 1032 l 1067 972 l 953 957 l 953 0 l 881 0 l 383 715 l 269 900 l 269 72 l 396 60 l 396 0 l 78 0 l 78 60 l 189 74 l 189 957 z "},"Ǌ":{"ha":1628,"x_min":78,"x_max":1567,"o":"m 189 957 l 78 972 l 78 1032 l 301 1032 l 793 319 l 872 181 l 872 957 l 750 972 l 750 1032 l 1067 1032 l 1067 972 l 953 957 l 953 0 l 881 0 l 383 715 l 269 900 l 269 72 l 396 60 l 396 0 l 78 0 l 78 60 l 189 74 l 189 957 m 1106 -190 q 1219 -127 1169 -174 q 1290 -12 1269 -81 q 1313 115 1308 44 q 1318 351 1318 186 l 1318 956 l 1179 972 l 1179 1032 l 1567 1032 l 1567 972 l 1433 956 l 1433 382 l 1433 274 q 1431 130 1433 186 q 1419 29 1428 74 q 1316 -153 1397 -83 q 1136 -240 1235 -222 l 1106 -190 z "},"Ń":{"ha":1107,"x_min":78,"x_max":1067,"o":"m 189 957 l 78 972 l 78 1032 l 301 1032 l 793 319 l 872 181 l 872 957 l 750 972 l 750 1032 l 1067 1032 l 1067 972 l 953 957 l 953 0 l 881 0 l 383 715 l 269 900 l 269 72 l 396 60 l 396 0 l 78 0 l 78 60 l 189 74 l 189 957 m 469 1149 l 658 1361 l 754 1300 q 651 1198 721 1254 q 528 1114 582 1142 l 469 1149 z "},"Ň":{"ha":1107,"x_min":78,"x_max":1067,"o":"m 189 957 l 78 972 l 78 1032 l 301 1032 l 793 319 l 872 181 l 872 957 l 750 972 l 750 1032 l 1067 1032 l 1067 972 l 953 957 l 953 0 l 881 0 l 383 715 l 269 900 l 269 72 l 396 60 l 396 0 l 78 0 l 78 60 l 189 74 l 189 957 m 569 1225 l 742 1364 l 788 1335 l 622 1147 l 517 1147 l 349 1333 l 399 1364 l 569 1225 z "},"Ņ":{"ha":1107,"x_min":78,"x_max":1067,"o":"m 189 957 l 78 972 l 78 1032 l 301 1032 l 793 319 l 872 181 l 872 957 l 750 972 l 750 1032 l 1067 1032 l 1067 972 l 953 957 l 953 0 l 881 0 l 383 715 l 269 900 l 269 72 l 396 60 l 396 0 l 78 0 l 78 60 l 189 74 l 189 957 m 643 -192 q 622 -283 643 -242 q 576 -349 601 -324 q 539 -378 551 -374 l 538 -378 l 500 -351 l 500 -343 q 534 -304 521 -333 q 547 -243 547 -275 q 540 -214 547 -225 q 518 -193 532 -203 q 499 -173 506 -185 q 492 -142 492 -161 q 513 -94 492 -108 q 553 -81 533 -81 l 558 -81 q 620 -110 597 -81 q 643 -192 643 -139 z "},"Ṅ":{"ha":1107,"x_min":78,"x_max":1067,"o":"m 189 957 l 78 972 l 78 1032 l 301 1032 l 793 319 l 872 181 l 872 957 l 750 972 l 750 1032 l 1067 1032 l 1067 972 l 953 957 l 953 0 l 881 0 l 383 715 l 269 900 l 269 72 l 396 60 l 396 0 l 78 0 l 78 60 l 189 74 l 189 957 m 561 1161 q 510 1183 529 1161 q 490 1240 490 1206 q 512 1306 490 1279 q 572 1332 533 1332 q 626 1308 606 1332 q 646 1251 646 1283 q 624 1187 646 1213 q 561 1161 601 1161 z "},"Ṇ":{"ha":1107,"x_min":78,"x_max":1067,"o":"m 189 957 l 78 972 l 78 1032 l 301 1032 l 793 319 l 872 181 l 872 957 l 750 972 l 750 1032 l 1067 1032 l 1067 972 l 953 957 l 953 0 l 881 0 l 383 715 l 269 900 l 269 72 l 396 60 l 396 0 l 78 0 l 78 60 l 189 74 l 189 957 m 544 -272 q 491 -248 511 -272 q 471 -189 471 -224 q 494 -121 471 -150 q 558 -92 517 -92 q 614 -117 593 -92 q 635 -175 635 -142 q 613 -245 635 -218 q 547 -272 590 -272 l 544 -272 z "},"Ŋ":{"ha":1089,"x_min":79,"x_max":1067,"o":"m 190 957 l 79 974 l 79 1032 l 307 1032 l 768 319 l 874 132 l 874 957 l 756 974 l 756 1032 l 1067 1032 l 1067 974 l 954 957 l 954 235 q 933 13 954 86 q 868 -110 911 -61 q 753 -199 813 -171 q 619 -236 693 -228 l 589 -187 q 796 -58 728 -157 q 835 18 822 -21 l 378 715 l 271 910 l 271 72 l 397 58 l 397 0 l 79 0 l 79 58 l 190 72 l 190 957 z "},"ǋ":{"ha":1535,"x_min":78,"x_max":1419,"o":"m 189 957 l 78 972 l 78 1032 l 301 1032 l 793 319 l 872 181 l 872 957 l 750 972 l 750 1032 l 1067 1032 l 1067 972 l 953 957 l 953 0 l 881 0 l 383 715 l 269 900 l 269 72 l 396 60 l 396 0 l 78 0 l 78 60 l 189 74 l 189 957 m 1329 917 q 1254 996 1254 917 q 1278 1062 1254 1036 q 1342 1088 1301 1088 q 1401 1065 1383 1088 q 1419 1008 1419 1042 q 1397 941 1419 965 q 1331 917 1374 917 l 1329 917 m 1168 765 l 1361 788 l 1364 788 l 1390 765 l 1390 8 q 1178 -337 1390 -318 q 1133 -337 1161 -339 q 1099 -332 1104 -336 l 1093 -275 q 1126 -273 1104 -276 q 1172 -261 1149 -269 q 1256 -167 1232 -243 q 1279 35 1279 -90 l 1278 674 l 1168 699 l 1168 765 z "},"Ñ":{"ha":1107,"x_min":78,"x_max":1067,"o":"m 189 957 l 78 972 l 78 1032 l 301 1032 l 793 319 l 872 181 l 872 957 l 750 972 l 750 1032 l 1067 1032 l 1067 972 l 953 957 l 953 0 l 881 0 l 383 715 l 269 900 l 269 72 l 396 60 l 396 0 l 78 0 l 78 60 l 189 74 l 189 957 m 676 1138 q 608 1153 635 1138 q 544 1197 581 1168 q 503 1228 521 1218 q 465 1239 486 1239 q 413 1218 429 1239 q 383 1158 397 1197 l 325 1189 q 476 1322 371 1322 q 546 1306 518 1322 q 607 1260 574 1290 q 644 1228 628 1239 q 681 1217 661 1217 q 730 1241 711 1217 q 761 1301 749 1265 l 819 1271 q 768 1173 799 1208 q 676 1138 738 1138 z "},"O":{"ha":999,"x_min":51,"x_max":949,"o":"m 479 -15 q 248 51 344 -15 q 101 235 151 117 q 51 508 51 353 q 113 790 51 668 q 279 977 174 911 q 514 1043 385 1043 q 749 979 651 1043 q 898 799 847 915 q 949 525 949 682 q 886 241 949 364 q 717 51 824 118 q 479 -15 610 -15 m 501 978 q 265 858 353 978 q 178 508 178 738 q 215 271 178 375 q 325 108 253 167 q 497 50 397 50 q 667 103 594 50 q 779 264 739 157 q 819 525 819 371 q 782 762 819 660 q 673 921 744 864 q 501 978 601 978 z "},"Ó":{"ha":999,"x_min":51,"x_max":949,"o":"m 479 -15 q 248 51 344 -15 q 101 235 151 117 q 51 508 51 353 q 113 790 51 668 q 279 977 174 911 q 514 1043 385 1043 q 749 979 651 1043 q 898 799 847 915 q 949 525 949 682 q 886 241 949 364 q 717 51 824 118 q 479 -15 610 -15 m 501 978 q 265 858 353 978 q 178 508 178 738 q 215 271 178 375 q 325 108 253 167 q 497 50 397 50 q 667 103 594 50 q 779 264 739 157 q 819 525 819 371 q 782 762 819 660 q 673 921 744 864 q 501 978 601 978 m 401 1149 l 590 1361 l 686 1300 q 583 1198 653 1254 q 460 1114 514 1142 l 401 1149 z "},"Ŏ":{"ha":999,"x_min":51,"x_max":949,"o":"m 479 -15 q 248 51 344 -15 q 101 235 151 117 q 51 508 51 353 q 113 790 51 668 q 279 977 174 911 q 514 1043 385 1043 q 749 979 651 1043 q 898 799 847 915 q 949 525 949 682 q 886 241 949 364 q 717 51 824 118 q 479 -15 610 -15 m 501 978 q 265 858 353 978 q 178 508 178 738 q 215 271 178 375 q 325 108 253 167 q 497 50 397 50 q 667 103 594 50 q 779 264 739 157 q 819 525 819 371 q 782 762 819 660 q 673 921 744 864 q 501 978 601 978 m 500 1122 q 335 1179 394 1122 q 275 1325 275 1236 q 276 1353 275 1343 l 340 1353 q 342 1333 340 1342 q 386 1249 350 1285 q 500 1214 422 1214 q 617 1250 581 1214 q 661 1335 653 1286 q 663 1353 663 1343 l 724 1353 q 725 1326 725 1343 q 663 1181 725 1239 q 500 1122 601 1122 z "},"Ǒ":{"ha":999,"x_min":51,"x_max":949,"o":"m 479 -15 q 248 51 344 -15 q 101 235 151 117 q 51 508 51 353 q 113 790 51 668 q 279 977 174 911 q 514 1043 385 1043 q 749 979 651 1043 q 898 799 847 915 q 949 525 949 682 q 886 241 949 364 q 717 51 824 118 q 479 -15 610 -15 m 501 978 q 265 858 353 978 q 178 508 178 738 q 215 271 178 375 q 325 108 253 167 q 497 50 397 50 q 667 103 594 50 q 779 264 739 157 q 819 525 819 371 q 782 762 819 660 q 673 921 744 864 q 501 978 601 978 m 501 1225 l 674 1364 l 719 1335 l 554 1147 l 449 1147 l 281 1333 l 331 1364 l 501 1225 z "},"Ô":{"ha":999,"x_min":51,"x_max":949,"o":"m 479 -15 q 248 51 344 -15 q 101 235 151 117 q 51 508 51 353 q 113 790 51 668 q 279 977 174 911 q 514 1043 385 1043 q 749 979 651 1043 q 898 799 847 915 q 949 525 949 682 q 886 241 949 364 q 717 51 824 118 q 479 -15 610 -15 m 501 978 q 265 858 353 978 q 178 508 178 738 q 215 271 178 375 q 325 108 253 167 q 497 50 397 50 q 667 103 594 50 q 779 264 739 157 q 819 525 819 371 q 782 762 819 660 q 673 921 744 864 q 501 978 601 978 m 553 1365 l 732 1165 l 682 1135 l 501 1282 l 317 1135 l 271 1164 l 449 1365 l 553 1365 z "},"Ố":{"ha":999,"x_min":51,"x_max":949,"o":"m 479 -15 q 248 51 344 -15 q 101 235 151 117 q 51 508 51 353 q 113 790 51 668 q 279 977 174 911 q 514 1043 385 1043 q 749 979 651 1043 q 898 799 847 915 q 949 525 949 682 q 886 241 949 364 q 717 51 824 118 q 479 -15 610 -15 m 501 978 q 265 858 353 978 q 178 508 178 738 q 215 271 178 375 q 325 108 253 167 q 497 50 397 50 q 667 103 594 50 q 779 264 739 157 q 819 525 819 371 q 782 762 819 660 q 673 921 744 864 q 501 978 601 978 m 719 1224 l 851 1365 l 925 1306 q 864 1241 904 1275 q 769 1176 824 1207 l 719 1224 m 556 1307 l 718 1132 l 674 1088 l 500 1219 l 326 1088 l 281 1132 l 444 1307 l 556 1307 z "},"Ộ":{"ha":999,"x_min":51,"x_max":949,"o":"m 479 -15 q 248 51 344 -15 q 101 235 151 117 q 51 508 51 353 q 113 790 51 668 q 279 977 174 911 q 514 1043 385 1043 q 749 979 651 1043 q 898 799 847 915 q 949 525 949 682 q 886 241 949 364 q 717 51 824 118 q 479 -15 610 -15 m 501 978 q 265 858 353 978 q 178 508 178 738 q 215 271 178 375 q 325 108 253 167 q 497 50 397 50 q 667 103 594 50 q 779 264 739 157 q 819 525 819 371 q 782 762 819 660 q 673 921 744 864 q 501 978 601 978 m 490 -272 q 437 -248 457 -272 q 417 -189 417 -224 q 440 -121 417 -150 q 504 -92 463 -92 q 560 -117 539 -92 q 581 -175 581 -142 q 558 -245 581 -218 q 493 -272 536 -272 l 490 -272 m 553 1365 l 732 1165 l 682 1135 l 501 1282 l 317 1135 l 271 1164 l 449 1365 l 553 1365 z "},"Ồ":{"ha":999,"x_min":51,"x_max":949,"o":"m 479 -15 q 248 51 344 -15 q 101 235 151 117 q 51 508 51 353 q 113 790 51 668 q 279 977 174 911 q 514 1043 385 1043 q 749 979 651 1043 q 898 799 847 915 q 949 525 949 682 q 886 241 949 364 q 717 51 824 118 q 479 -15 610 -15 m 501 978 q 265 858 353 978 q 178 508 178 738 q 215 271 178 375 q 325 108 253 167 q 497 50 397 50 q 667 103 594 50 q 779 264 739 157 q 819 525 819 371 q 782 762 819 660 q 673 921 744 864 q 501 978 601 978 m 861 1176 q 767 1241 807 1207 q 706 1306 726 1275 l 779 1365 l 911 1224 l 861 1176 m 556 1307 l 718 1132 l 674 1088 l 500 1219 l 326 1088 l 281 1132 l 444 1307 l 556 1307 z "},"Ổ":{"ha":999,"x_min":51,"x_max":949,"o":"m 479 -15 q 248 51 344 -15 q 101 235 151 117 q 51 508 51 353 q 113 790 51 668 q 279 977 174 911 q 514 1043 385 1043 q 749 979 651 1043 q 898 799 847 915 q 949 525 949 682 q 886 241 949 364 q 717 51 824 118 q 479 -15 610 -15 m 501 978 q 265 858 353 978 q 178 508 178 738 q 215 271 178 375 q 325 108 253 167 q 497 50 397 50 q 667 103 594 50 q 779 264 739 157 q 819 525 819 371 q 782 762 819 660 q 673 921 744 864 q 501 978 601 978 m 779 1082 q 757 1133 757 1114 q 767 1164 757 1153 q 800 1188 778 1175 q 831 1208 821 1199 q 842 1236 842 1218 q 828 1276 842 1257 q 779 1299 814 1294 q 751 1294 771 1300 q 726 1286 731 1289 l 722 1356 q 744 1363 725 1360 q 779 1365 764 1365 q 887 1336 849 1365 q 925 1249 925 1307 q 909 1198 925 1217 q 863 1160 893 1179 q 828 1133 838 1143 q 815 1106 815 1121 q 818 1090 815 1101 l 779 1082 m 556 1307 l 718 1132 l 674 1088 l 500 1219 l 326 1088 l 281 1132 l 444 1307 l 556 1307 z "},"Ỗ":{"ha":999,"x_min":51,"x_max":949,"o":"m 479 -15 q 248 51 344 -15 q 101 235 151 117 q 51 508 51 353 q 113 790 51 668 q 279 977 174 911 q 514 1043 385 1043 q 749 979 651 1043 q 898 799 847 915 q 949 525 949 682 q 886 241 949 364 q 717 51 824 118 q 479 -15 610 -15 m 501 978 q 265 858 353 978 q 178 508 178 738 q 215 271 178 375 q 325 108 253 167 q 497 50 397 50 q 667 103 594 50 q 779 264 739 157 q 819 525 819 371 q 782 762 819 660 q 673 921 744 864 q 501 978 601 978 m 297 1353 q 315 1404 299 1378 q 360 1449 331 1431 q 428 1467 389 1467 q 481 1454 457 1467 q 536 1418 506 1442 q 578 1390 563 1399 q 613 1381 594 1381 q 660 1392 644 1381 q 697 1433 676 1404 l 744 1400 q 697 1326 736 1354 q 608 1297 658 1297 q 563 1308 585 1297 q 508 1340 542 1318 q 461 1369 481 1360 q 424 1378 442 1378 q 382 1363 400 1378 q 343 1321 364 1349 l 297 1353 m 553 1265 l 750 1138 l 701 1088 l 500 1183 l 294 1088 l 250 1138 l 444 1265 l 553 1265 z "},"Ö":{"ha":999,"x_min":51,"x_max":949,"o":"m 479 -15 q 248 51 344 -15 q 101 235 151 117 q 51 508 51 353 q 113 790 51 668 q 279 977 174 911 q 514 1043 385 1043 q 749 979 651 1043 q 898 799 847 915 q 949 525 949 682 q 886 241 949 364 q 717 51 824 118 q 479 -15 610 -15 m 501 978 q 265 858 353 978 q 178 508 178 738 q 215 271 178 375 q 325 108 253 167 q 497 50 397 50 q 667 103 594 50 q 779 264 739 157 q 819 525 819 371 q 782 762 819 660 q 673 921 744 864 q 501 978 601 978 m 326 1147 q 276 1170 294 1147 q 257 1226 257 1193 q 278 1292 257 1265 q 338 1319 299 1319 l 339 1319 q 392 1294 372 1319 q 413 1238 413 1269 q 390 1173 413 1199 q 328 1147 368 1147 l 326 1147 m 657 1147 q 606 1170 625 1147 q 588 1226 588 1193 q 608 1292 588 1265 q 668 1319 629 1319 l 669 1319 q 722 1295 703 1319 q 742 1238 742 1271 q 719 1173 742 1199 q 657 1147 697 1147 z "},"Ọ":{"ha":999,"x_min":51,"x_max":949,"o":"m 479 -15 q 248 51 344 -15 q 101 235 151 117 q 51 508 51 353 q 113 790 51 668 q 279 977 174 911 q 514 1043 385 1043 q 749 979 651 1043 q 898 799 847 915 q 949 525 949 682 q 886 241 949 364 q 717 51 824 118 q 479 -15 610 -15 m 501 978 q 265 858 353 978 q 178 508 178 738 q 215 271 178 375 q 325 108 253 167 q 497 50 397 50 q 667 103 594 50 q 779 264 739 157 q 819 525 819 371 q 782 762 819 660 q 673 921 744 864 q 501 978 601 978 m 490 -272 q 437 -248 457 -272 q 417 -189 417 -224 q 440 -121 417 -150 q 504 -92 463 -92 q 560 -117 539 -92 q 581 -175 581 -142 q 558 -245 581 -218 q 493 -272 536 -272 l 490 -272 z "},"Ò":{"ha":999,"x_min":51,"x_max":949,"o":"m 479 -15 q 248 51 344 -15 q 101 235 151 117 q 51 508 51 353 q 113 790 51 668 q 279 977 174 911 q 514 1043 385 1043 q 749 979 651 1043 q 898 799 847 915 q 949 525 949 682 q 886 241 949 364 q 717 51 824 118 q 479 -15 610 -15 m 501 978 q 265 858 353 978 q 178 508 178 738 q 215 271 178 375 q 325 108 253 167 q 497 50 397 50 q 667 103 594 50 q 779 264 739 157 q 819 525 819 371 q 782 762 819 660 q 673 921 744 864 q 501 978 601 978 m 540 1114 q 417 1198 486 1142 q 314 1300 347 1254 l 410 1361 l 599 1149 l 540 1114 z "},"Ỏ":{"ha":999,"x_min":51,"x_max":949,"o":"m 479 -15 q 248 51 344 -15 q 101 235 151 117 q 51 508 51 353 q 113 790 51 668 q 279 977 174 911 q 514 1043 385 1043 q 749 979 651 1043 q 898 799 847 915 q 949 525 949 682 q 886 241 949 364 q 717 51 824 118 q 479 -15 610 -15 m 501 978 q 265 858 353 978 q 178 508 178 738 q 215 271 178 375 q 325 108 253 167 q 497 50 397 50 q 667 103 594 50 q 779 264 739 157 q 819 525 819 371 q 782 762 819 660 q 673 921 744 864 q 501 978 601 978 m 478 1078 q 462 1106 468 1089 q 456 1140 456 1124 q 465 1160 456 1153 q 494 1179 475 1168 q 530 1204 519 1194 q 540 1232 540 1214 q 461 1285 540 1285 q 401 1271 426 1285 l 397 1344 q 442 1359 415 1353 q 493 1365 469 1365 q 639 1247 639 1365 q 623 1197 639 1214 q 575 1161 607 1179 q 539 1136 543 1140 q 526 1099 526 1126 q 529 1078 526 1085 l 478 1078 z "},"Ơ":{"ha":999,"x_min":51,"x_max":1010,"o":"m 807 933 q 913 761 876 865 q 949 525 949 657 q 886 241 949 364 q 717 51 824 118 q 479 -15 610 -15 q 248 51 344 -15 q 101 235 151 117 q 51 508 51 353 q 113 790 51 668 q 279 977 174 911 q 514 1043 385 1043 q 715 999 629 1043 q 817 1031 775 1001 q 882 1101 860 1060 q 904 1178 904 1142 q 903 1201 904 1196 l 1007 1201 q 1010 1171 1010 1179 q 956 1017 1010 1081 q 807 933 901 953 m 497 50 q 667 103 594 50 q 779 264 739 157 q 819 525 819 371 q 782 762 819 660 q 673 921 744 864 q 501 978 601 978 q 265 858 353 978 q 178 508 178 738 q 215 271 178 375 q 325 108 253 167 q 497 50 397 50 z "},"Ớ":{"ha":999,"x_min":51,"x_max":1010,"o":"m 807 933 q 913 761 876 865 q 949 525 949 657 q 886 241 949 364 q 717 51 824 118 q 479 -15 610 -15 q 248 51 344 -15 q 101 235 151 117 q 51 508 51 353 q 113 790 51 668 q 279 977 174 911 q 514 1043 385 1043 q 715 999 629 1043 q 817 1031 775 1001 q 882 1101 860 1060 q 904 1178 904 1142 q 903 1201 904 1196 l 1007 1201 q 1010 1171 1010 1179 q 956 1017 1010 1081 q 807 933 901 953 m 497 50 q 667 103 594 50 q 779 264 739 157 q 819 525 819 371 q 782 762 819 660 q 673 921 744 864 q 501 978 601 978 q 265 858 353 978 q 178 508 178 738 q 215 271 178 375 q 325 108 253 167 q 497 50 397 50 m 417 1149 l 606 1361 l 701 1300 q 599 1198 668 1254 q 475 1114 529 1142 l 417 1149 z "},"Ợ":{"ha":999,"x_min":51,"x_max":1010,"o":"m 807 933 q 913 761 876 865 q 949 525 949 657 q 886 241 949 364 q 717 51 824 118 q 479 -15 610 -15 q 248 51 344 -15 q 101 235 151 117 q 51 508 51 353 q 113 790 51 668 q 279 977 174 911 q 514 1043 385 1043 q 715 999 629 1043 q 817 1031 775 1001 q 882 1101 860 1060 q 904 1178 904 1142 q 903 1201 904 1196 l 1007 1201 q 1010 1171 1010 1179 q 956 1017 1010 1081 q 807 933 901 953 m 497 50 q 667 103 594 50 q 779 264 739 157 q 819 525 819 371 q 782 762 819 660 q 673 921 744 864 q 501 978 601 978 q 265 858 353 978 q 178 508 178 738 q 215 271 178 375 q 325 108 253 167 q 497 50 397 50 m 490 -272 q 437 -248 457 -272 q 417 -189 417 -224 q 440 -121 417 -150 q 504 -92 463 -92 q 560 -117 539 -92 q 581 -175 581 -142 q 558 -245 581 -218 q 493 -272 536 -272 l 490 -272 z "},"Ờ":{"ha":999,"x_min":51,"x_max":1010,"o":"m 807 933 q 913 761 876 865 q 949 525 949 657 q 886 241 949 364 q 717 51 824 118 q 479 -15 610 -15 q 248 51 344 -15 q 101 235 151 117 q 51 508 51 353 q 113 790 51 668 q 279 977 174 911 q 514 1043 385 1043 q 715 999 629 1043 q 817 1031 775 1001 q 882 1101 860 1060 q 904 1178 904 1142 q 903 1201 904 1196 l 1007 1201 q 1010 1171 1010 1179 q 956 1017 1010 1081 q 807 933 901 953 m 497 50 q 667 103 594 50 q 779 264 739 157 q 819 525 819 371 q 782 762 819 660 q 673 921 744 864 q 501 978 601 978 q 265 858 353 978 q 178 508 178 738 q 215 271 178 375 q 325 108 253 167 q 497 50 397 50 m 556 1114 q 432 1198 501 1142 q 329 1300 363 1254 l 425 1361 l 614 1149 l 556 1114 z "},"Ở":{"ha":999,"x_min":51,"x_max":1010,"o":"m 807 933 q 913 761 876 865 q 949 525 949 657 q 886 241 949 364 q 717 51 824 118 q 479 -15 610 -15 q 248 51 344 -15 q 101 235 151 117 q 51 508 51 353 q 113 790 51 668 q 279 977 174 911 q 514 1043 385 1043 q 715 999 629 1043 q 817 1031 775 1001 q 882 1101 860 1060 q 904 1178 904 1142 q 903 1201 904 1196 l 1007 1201 q 1010 1171 1010 1179 q 956 1017 1010 1081 q 807 933 901 953 m 497 50 q 667 103 594 50 q 779 264 739 157 q 819 525 819 371 q 782 762 819 660 q 673 921 744 864 q 501 978 601 978 q 265 858 353 978 q 178 508 178 738 q 215 271 178 375 q 325 108 253 167 q 497 50 397 50 m 493 1078 q 477 1106 483 1089 q 471 1140 471 1124 q 481 1160 471 1153 q 510 1179 490 1168 q 545 1204 535 1194 q 556 1232 556 1214 q 476 1285 556 1285 q 417 1271 442 1285 l 413 1344 q 458 1359 431 1353 q 508 1365 485 1365 q 654 1247 654 1365 q 638 1197 654 1214 q 590 1161 622 1179 q 554 1136 558 1140 q 542 1099 542 1126 q 544 1078 542 1085 l 493 1078 z "},"Ỡ":{"ha":999,"x_min":51,"x_max":1010,"o":"m 807 933 q 913 761 876 865 q 949 525 949 657 q 886 241 949 364 q 717 51 824 118 q 479 -15 610 -15 q 248 51 344 -15 q 101 235 151 117 q 51 508 51 353 q 113 790 51 668 q 279 977 174 911 q 514 1043 385 1043 q 715 999 629 1043 q 817 1031 775 1001 q 882 1101 860 1060 q 904 1178 904 1142 q 903 1201 904 1196 l 1007 1201 q 1010 1171 1010 1179 q 956 1017 1010 1081 q 807 933 901 953 m 497 50 q 667 103 594 50 q 779 264 739 157 q 819 525 819 371 q 782 762 819 660 q 673 921 744 864 q 501 978 601 978 q 265 858 353 978 q 178 508 178 738 q 215 271 178 375 q 325 108 253 167 q 497 50 397 50 m 624 1138 q 555 1153 582 1138 q 492 1197 528 1168 q 451 1228 468 1218 q 413 1239 433 1239 q 360 1218 376 1239 q 331 1158 344 1197 l 272 1189 q 424 1322 318 1322 q 493 1306 465 1322 q 554 1260 521 1290 q 592 1228 575 1239 q 628 1217 608 1217 q 677 1241 658 1217 q 708 1301 696 1265 l 767 1271 q 715 1173 746 1208 q 624 1138 685 1138 z "},"Ő":{"ha":999,"x_min":51,"x_max":949,"o":"m 479 -15 q 248 51 344 -15 q 101 235 151 117 q 51 508 51 353 q 113 790 51 668 q 279 977 174 911 q 514 1043 385 1043 q 749 979 651 1043 q 898 799 847 915 q 949 525 949 682 q 886 241 949 364 q 717 51 824 118 q 479 -15 610 -15 m 501 978 q 265 858 353 978 q 178 508 178 738 q 215 271 178 375 q 325 108 253 167 q 497 50 397 50 q 667 103 594 50 q 779 264 739 157 q 819 525 819 371 q 782 762 819 660 q 673 921 744 864 q 501 978 601 978 m 544 1300 q 444 1205 501 1251 q 331 1124 386 1158 l 282 1165 l 465 1364 l 544 1300 m 851 1294 q 751 1203 813 1250 q 632 1124 689 1157 l 583 1167 l 781 1361 l 851 1294 z "},"Ō":{"ha":999,"x_min":51,"x_max":949,"o":"m 479 -15 q 248 51 344 -15 q 101 235 151 117 q 51 508 51 353 q 113 790 51 668 q 279 977 174 911 q 514 1043 385 1043 q 749 979 651 1043 q 898 799 847 915 q 949 525 949 682 q 886 241 949 364 q 717 51 824 118 q 479 -15 610 -15 m 501 978 q 265 858 353 978 q 178 508 178 738 q 215 271 178 375 q 325 108 253 167 q 497 50 397 50 q 667 103 594 50 q 779 264 739 157 q 819 525 819 371 q 782 762 819 660 q 673 921 744 864 q 501 978 601 978 m 697 1193 l 303 1193 l 303 1281 l 697 1281 l 697 1193 z "},"Ø":{"ha":1000,"x_min":51,"x_max":949,"o":"m 285 29 q 112 213 172 88 q 51 508 51 339 q 113 790 51 668 q 279 977 174 911 q 514 1043 385 1043 q 665 1019 594 1043 l 719 1157 l 772 1138 l 715 999 q 889 819 829 942 q 949 525 949 696 q 888 244 949 365 q 724 55 828 122 q 490 -15 619 -12 q 335 7 410 -17 l 274 -137 l 221 -119 l 285 29 m 503 978 q 265 858 353 978 q 178 508 178 739 q 215 274 178 376 q 321 114 251 171 l 633 947 q 503 978 575 978 m 821 525 q 785 757 821 656 q 681 915 749 858 l 367 82 q 499 50 426 50 q 667 103 594 50 q 781 264 740 157 q 821 525 821 371 z "},"Ǿ":{"ha":1000,"x_min":51,"x_max":949,"o":"m 285 29 q 112 213 172 88 q 51 508 51 339 q 113 790 51 668 q 279 977 174 911 q 514 1043 385 1043 q 665 1019 594 1043 l 719 1157 l 772 1138 l 715 999 q 889 819 829 942 q 949 525 949 696 q 888 244 949 365 q 724 55 828 122 q 490 -15 619 -12 q 335 7 410 -17 l 274 -137 l 221 -119 l 285 29 m 503 978 q 265 858 353 978 q 178 508 178 739 q 215 274 178 376 q 321 114 251 171 l 633 947 q 503 978 575 978 m 821 525 q 785 757 821 656 q 681 915 749 858 l 367 82 q 499 50 426 50 q 667 103 594 50 q 781 264 740 157 q 821 525 821 371 m 417 1149 l 606 1361 l 701 1300 q 599 1198 668 1254 q 475 1114 529 1142 l 417 1149 z "},"Õ":{"ha":999,"x_min":51,"x_max":949,"o":"m 479 -15 q 248 51 344 -15 q 101 235 151 117 q 51 508 51 353 q 113 790 51 668 q 279 977 174 911 q 514 1043 385 1043 q 749 979 651 1043 q 898 799 847 915 q 949 525 949 682 q 886 241 949 364 q 717 51 824 118 q 479 -15 610 -15 m 501 978 q 265 858 353 978 q 178 508 178 738 q 215 271 178 375 q 325 108 253 167 q 497 50 397 50 q 667 103 594 50 q 779 264 739 157 q 819 525 819 371 q 782 762 819 660 q 673 921 744 864 q 501 978 601 978 m 608 1138 q 540 1153 567 1138 q 476 1197 513 1168 q 435 1228 453 1218 q 397 1239 418 1239 q 345 1218 361 1239 q 315 1158 329 1197 l 257 1189 q 408 1322 303 1322 q 478 1306 450 1322 q 539 1260 506 1290 q 576 1228 560 1239 q 613 1217 593 1217 q 662 1241 643 1217 q 693 1301 681 1265 l 751 1271 q 700 1173 731 1208 q 608 1138 669 1138 z "},"Œ":{"ha":1426,"x_min":51,"x_max":1390,"o":"m 701 44 q 483 -11 601 -11 q 251 54 349 -11 q 103 238 154 119 q 51 510 51 356 q 115 794 51 671 q 286 983 178 917 q 525 1049 394 1049 q 701 1011 624 1049 l 701 1032 l 1271 1032 l 1290 824 l 1225 824 l 1188 958 l 814 965 l 814 565 l 1072 569 l 1089 683 l 1160 683 l 1160 376 l 1089 376 l 1072 496 l 814 500 l 814 68 l 1244 82 l 1325 256 l 1390 238 l 1338 0 l 701 0 l 701 44 m 503 54 q 701 133 626 54 l 701 915 q 506 985 629 985 q 331 929 406 985 q 216 767 257 874 q 175 510 175 660 q 214 279 175 383 q 327 115 253 175 q 503 54 401 54 z "},"P":{"ha":890,"x_min":74,"x_max":851,"o":"m 193 957 l 82 972 l 82 1032 l 250 1032 q 310 1034 281 1032 q 354 1036 340 1036 q 493 1042 426 1042 q 770 969 689 1042 q 851 750 851 896 q 799 560 851 640 q 656 437 746 479 q 454 394 565 394 q 363 397 410 394 q 307 400 317 399 l 307 74 l 500 60 l 500 0 l 74 0 l 74 60 l 193 72 l 193 957 m 307 468 q 457 463 342 463 q 653 530 576 463 q 729 750 729 597 q 664 923 729 871 q 458 975 599 975 q 363 969 415 975 q 307 967 321 967 l 307 468 z "},"Ṗ":{"ha":890,"x_min":74,"x_max":851,"o":"m 193 957 l 82 972 l 82 1032 l 250 1032 q 310 1034 281 1032 q 354 1036 340 1036 q 493 1042 426 1042 q 770 969 689 1042 q 851 750 851 896 q 799 560 851 640 q 656 437 746 479 q 454 394 565 394 q 363 397 410 394 q 307 400 317 399 l 307 74 l 500 60 l 500 0 l 74 0 l 74 60 l 193 72 l 193 957 m 307 468 q 457 463 342 463 q 653 530 576 463 q 729 750 729 597 q 664 923 729 871 q 458 975 599 975 q 363 969 415 975 q 307 967 321 967 l 307 468 m 481 1161 q 429 1183 449 1161 q 410 1240 410 1206 q 431 1306 410 1279 q 492 1332 453 1332 q 545 1308 525 1332 q 565 1251 565 1283 q 543 1187 565 1213 q 481 1161 521 1161 z "},"Þ":{"ha":882,"x_min":69,"x_max":839,"o":"m 188 958 l 72 974 l 72 1033 l 425 1033 l 425 974 l 300 958 l 300 790 l 346 794 q 521 804 475 804 q 756 735 672 804 q 839 532 839 667 q 743 303 839 379 q 475 228 647 228 q 300 233 360 228 l 300 72 l 451 58 l 451 0 l 69 0 l 69 58 l 188 72 l 188 958 m 471 290 q 647 346 582 290 q 713 525 713 401 q 655 683 713 629 q 475 738 597 738 q 300 724 411 738 l 300 296 q 425 290 343 290 l 471 290 z "},"Q":{"ha":1007,"x_min":56,"x_max":1244,"o":"m 1131 -281 q 1012 -259 1068 -281 q 911 -208 956 -237 q 801 -128 867 -178 q 684 -43 732 -72 q 583 -4 636 -14 q 482 -15 540 -15 q 251 51 347 -15 q 106 235 156 117 q 56 508 56 353 q 117 790 56 668 q 283 977 178 911 q 518 1043 389 1043 q 753 979 656 1043 q 902 799 851 915 q 953 525 953 682 q 875 212 953 343 q 667 22 797 81 q 795 -9 735 18 q 940 -86 856 -36 q 1083 -159 1026 -135 q 1199 -183 1139 -183 l 1231 -182 l 1244 -239 q 1191 -269 1222 -258 q 1131 -281 1160 -281 m 501 50 q 671 103 599 50 q 783 264 743 157 q 824 525 824 371 q 786 762 824 660 q 677 921 749 864 q 506 978 606 978 q 269 858 357 978 q 182 508 182 738 q 219 271 182 375 q 329 108 257 167 q 501 50 401 50 z "},"R":{"ha":963,"x_min":69,"x_max":961,"o":"m 69 60 l 189 72 l 189 958 l 78 975 l 78 1032 l 247 1032 q 354 1038 285 1032 q 453 1043 421 1043 q 736 976 651 1043 q 821 771 821 910 q 765 588 821 669 q 613 478 708 506 q 685 399 649 454 q 776 247 722 344 q 852 120 824 163 q 903 74 881 78 l 961 58 l 961 0 l 799 0 q 747 47 776 0 q 665 200 718 94 q 572 376 608 315 q 499 458 535 438 q 303 460 329 458 l 303 72 l 446 60 l 446 0 l 69 0 l 69 60 m 490 526 q 642 586 586 526 q 697 761 697 646 q 640 919 697 863 q 442 975 583 975 q 346 969 393 975 q 303 967 313 967 l 303 528 q 403 526 328 526 l 490 526 z "},"Ŕ":{"ha":963,"x_min":69,"x_max":961,"o":"m 69 60 l 189 72 l 189 958 l 78 975 l 78 1032 l 247 1032 q 354 1038 285 1032 q 453 1043 421 1043 q 736 976 651 1043 q 821 771 821 910 q 765 588 821 669 q 613 478 708 506 q 685 399 649 454 q 776 247 722 344 q 852 120 824 163 q 903 74 881 78 l 961 58 l 961 0 l 799 0 q 747 47 776 0 q 665 200 718 94 q 572 376 608 315 q 499 458 535 438 q 303 460 329 458 l 303 72 l 446 60 l 446 0 l 69 0 l 69 60 m 490 526 q 642 586 586 526 q 697 761 697 646 q 640 919 697 863 q 442 975 583 975 q 346 969 393 975 q 303 967 313 967 l 303 528 q 403 526 328 526 l 490 526 m 383 1149 l 572 1361 l 668 1300 q 565 1198 635 1254 q 442 1114 496 1142 l 383 1149 z "},"Ř":{"ha":963,"x_min":69,"x_max":961,"o":"m 69 60 l 189 72 l 189 958 l 78 975 l 78 1032 l 247 1032 q 354 1038 285 1032 q 453 1043 421 1043 q 736 976 651 1043 q 821 771 821 910 q 765 588 821 669 q 613 478 708 506 q 685 399 649 454 q 776 247 722 344 q 852 120 824 163 q 903 74 881 78 l 961 58 l 961 0 l 799 0 q 747 47 776 0 q 665 200 718 94 q 572 376 608 315 q 499 458 535 438 q 303 460 329 458 l 303 72 l 446 60 l 446 0 l 69 0 l 69 60 m 490 526 q 642 586 586 526 q 697 761 697 646 q 640 919 697 863 q 442 975 583 975 q 346 969 393 975 q 303 967 313 967 l 303 528 q 403 526 328 526 l 490 526 m 483 1225 l 656 1364 l 701 1335 l 536 1147 l 431 1147 l 263 1333 l 313 1364 l 483 1225 z "},"Ŗ":{"ha":963,"x_min":69,"x_max":961,"o":"m 69 60 l 189 72 l 189 958 l 78 975 l 78 1032 l 247 1032 q 354 1038 285 1032 q 453 1043 421 1043 q 736 976 651 1043 q 821 771 821 910 q 765 588 821 669 q 613 478 708 506 q 685 399 649 454 q 776 247 722 344 q 852 120 824 163 q 903 74 881 78 l 961 58 l 961 0 l 799 0 q 747 47 776 0 q 665 200 718 94 q 572 376 608 315 q 499 458 535 438 q 303 460 329 458 l 303 72 l 446 60 l 446 0 l 69 0 l 69 60 m 490 526 q 642 586 586 526 q 697 761 697 646 q 640 919 697 863 q 442 975 583 975 q 346 969 393 975 q 303 967 313 967 l 303 528 q 403 526 328 526 l 490 526 m 613 -192 q 592 -283 613 -242 q 546 -349 571 -324 q 508 -378 521 -374 l 507 -378 l 469 -351 l 469 -343 q 503 -304 490 -333 q 517 -243 517 -275 q 509 -214 517 -225 q 488 -193 501 -203 q 468 -173 475 -185 q 461 -142 461 -161 q 482 -94 461 -108 q 522 -81 503 -81 l 528 -81 q 590 -110 567 -81 q 613 -192 613 -139 z "},"S":{"ha":817,"x_min":90,"x_max":757,"o":"m 397 -15 q 272 -3 326 -15 q 147 32 218 10 q 90 49 100 47 l 101 296 l 174 296 l 194 114 q 278 71 221 89 q 404 53 336 53 q 576 104 517 53 q 636 246 636 156 q 605 344 636 304 q 524 413 574 385 q 388 478 475 440 q 248 547 306 513 q 147 641 190 582 q 104 782 104 700 q 146 918 104 858 q 262 1010 188 978 q 432 1043 336 1043 q 535 1034 490 1043 q 650 1006 581 1025 q 694 993 688 994 l 686 765 l 617 765 l 592 938 q 527 965 575 951 q 425 978 479 978 q 268 935 322 978 q 214 810 214 893 q 243 715 214 753 q 318 650 272 676 q 460 579 364 624 q 616 498 560 532 q 715 409 672 464 q 757 276 757 354 q 714 135 757 203 q 589 26 671 68 q 397 -15 507 -15 z "},"Ś":{"ha":817,"x_min":90,"x_max":757,"o":"m 397 -15 q 272 -3 326 -15 q 147 32 218 10 q 90 49 100 47 l 101 296 l 174 296 l 194 114 q 278 71 221 89 q 404 53 336 53 q 576 104 517 53 q 636 246 636 156 q 605 344 636 304 q 524 413 574 385 q 388 478 475 440 q 248 547 306 513 q 147 641 190 582 q 104 782 104 700 q 146 918 104 858 q 262 1010 188 978 q 432 1043 336 1043 q 535 1034 490 1043 q 650 1006 581 1025 q 694 993 688 994 l 686 765 l 617 765 l 592 938 q 527 965 575 951 q 425 978 479 978 q 268 935 322 978 q 214 810 214 893 q 243 715 214 753 q 318 650 272 676 q 460 579 364 624 q 616 498 560 532 q 715 409 672 464 q 757 276 757 354 q 714 135 757 203 q 589 26 671 68 q 397 -15 507 -15 m 351 1149 l 540 1361 l 636 1300 q 533 1198 603 1254 q 410 1114 464 1142 l 351 1149 z "},"Š":{"ha":817,"x_min":90,"x_max":757,"o":"m 397 -15 q 272 -3 326 -15 q 147 32 218 10 q 90 49 100 47 l 101 296 l 174 296 l 194 114 q 278 71 221 89 q 404 53 336 53 q 576 104 517 53 q 636 246 636 156 q 605 344 636 304 q 524 413 574 385 q 388 478 475 440 q 248 547 306 513 q 147 641 190 582 q 104 782 104 700 q 146 918 104 858 q 262 1010 188 978 q 432 1043 336 1043 q 535 1034 490 1043 q 650 1006 581 1025 q 694 993 688 994 l 686 765 l 617 765 l 592 938 q 527 965 575 951 q 425 978 479 978 q 268 935 322 978 q 214 810 214 893 q 243 715 214 753 q 318 650 272 676 q 460 579 364 624 q 616 498 560 532 q 715 409 672 464 q 757 276 757 354 q 714 135 757 203 q 589 26 671 68 q 397 -15 507 -15 m 451 1225 l 624 1364 l 669 1335 l 504 1147 l 399 1147 l 231 1333 l 281 1364 l 451 1225 z "},"Ş":{"ha":817,"x_min":90,"x_max":757,"o":"m 101 296 l 174 296 l 194 114 q 278 71 221 89 q 404 53 336 53 q 576 104 517 53 q 636 246 636 156 q 605 344 636 304 q 524 413 574 385 q 388 478 475 440 q 248 547 306 513 q 147 641 190 582 q 104 782 104 700 q 146 918 104 858 q 262 1010 188 978 q 432 1043 336 1043 q 535 1034 490 1043 q 650 1006 581 1025 q 694 993 688 994 l 686 765 l 617 765 l 592 938 q 527 965 575 951 q 425 978 479 978 q 268 935 322 978 q 214 810 214 893 q 243 715 214 753 q 318 650 272 676 q 460 579 364 624 q 616 498 560 532 q 715 409 672 464 q 757 276 757 354 q 720 146 757 208 q 613 40 683 83 q 449 -12 543 -3 q 500 -92 476 -43 q 524 -189 524 -140 q 481 -294 524 -262 q 354 -326 438 -326 q 303 -321 331 -326 q 256 -308 275 -315 l 257 -226 q 290 -234 271 -231 q 321 -237 308 -237 q 401 -218 376 -237 q 426 -139 426 -199 q 415 -74 426 -107 q 389 -15 403 -40 q 263 -1 319 -14 q 147 33 206 13 q 117 42 136 36 q 90 49 99 47 l 101 296 z "},"Ŝ":{"ha":817,"x_min":90,"x_max":757,"o":"m 397 -15 q 272 -3 326 -15 q 147 32 218 10 q 90 49 100 47 l 101 296 l 174 296 l 194 114 q 278 71 221 89 q 404 53 336 53 q 576 104 517 53 q 636 246 636 156 q 605 344 636 304 q 524 413 574 385 q 388 478 475 440 q 248 547 306 513 q 147 641 190 582 q 104 782 104 700 q 146 918 104 858 q 262 1010 188 978 q 432 1043 336 1043 q 535 1034 490 1043 q 650 1006 581 1025 q 694 993 688 994 l 686 765 l 617 765 l 592 938 q 527 965 575 951 q 425 978 479 978 q 268 935 322 978 q 214 810 214 893 q 243 715 214 753 q 318 650 272 676 q 460 579 364 624 q 616 498 560 532 q 715 409 672 464 q 757 276 757 354 q 714 135 757 203 q 589 26 671 68 q 397 -15 507 -15 m 503 1365 l 682 1165 l 632 1135 l 451 1282 l 267 1135 l 221 1164 l 399 1365 l 503 1365 z "},"Ș":{"ha":817,"x_min":90,"x_max":757,"o":"m 397 -15 q 272 -3 326 -15 q 147 32 218 10 q 90 49 100 47 l 101 296 l 174 296 l 194 114 q 278 71 221 89 q 404 53 336 53 q 576 104 517 53 q 636 246 636 156 q 605 344 636 304 q 524 413 574 385 q 388 478 475 440 q 248 547 306 513 q 147 641 190 582 q 104 782 104 700 q 146 918 104 858 q 262 1010 188 978 q 432 1043 336 1043 q 535 1034 490 1043 q 650 1006 581 1025 q 694 993 688 994 l 686 765 l 617 765 l 592 938 q 527 965 575 951 q 425 978 479 978 q 268 935 322 978 q 214 810 214 893 q 243 715 214 753 q 318 650 272 676 q 460 579 364 624 q 616 498 560 532 q 715 409 672 464 q 757 276 757 354 q 714 135 757 203 q 589 26 671 68 q 397 -15 507 -15 m 497 -192 q 476 -283 497 -242 q 431 -349 456 -324 q 393 -378 406 -374 l 392 -378 l 354 -351 l 354 -343 q 388 -304 375 -333 q 401 -243 401 -275 q 394 -214 401 -225 q 372 -193 386 -203 q 353 -173 360 -185 q 346 -142 346 -161 q 367 -94 346 -108 q 407 -81 388 -81 l 413 -81 q 474 -110 451 -81 q 497 -192 497 -139 z "},"Ṡ":{"ha":817,"x_min":90,"x_max":757,"o":"m 397 -15 q 272 -3 326 -15 q 147 32 218 10 q 90 49 100 47 l 101 296 l 174 296 l 194 114 q 278 71 221 89 q 404 53 336 53 q 576 104 517 53 q 636 246 636 156 q 605 344 636 304 q 524 413 574 385 q 388 478 475 440 q 248 547 306 513 q 147 641 190 582 q 104 782 104 700 q 146 918 104 858 q 262 1010 188 978 q 432 1043 336 1043 q 535 1034 490 1043 q 650 1006 581 1025 q 694 993 688 994 l 686 765 l 617 765 l 592 938 q 527 965 575 951 q 425 978 479 978 q 268 935 322 978 q 214 810 214 893 q 243 715 214 753 q 318 650 272 676 q 460 579 364 624 q 616 498 560 532 q 715 409 672 464 q 757 276 757 354 q 714 135 757 203 q 589 26 671 68 q 397 -15 507 -15 m 443 1161 q 392 1183 411 1161 q 372 1240 372 1206 q 394 1306 372 1279 q 454 1332 415 1332 q 508 1308 488 1332 q 528 1251 528 1283 q 506 1187 528 1213 q 443 1161 483 1161 z "},"Ṣ":{"ha":817,"x_min":90,"x_max":757,"o":"m 397 -15 q 272 -3 326 -15 q 147 32 218 10 q 90 49 100 47 l 101 296 l 174 296 l 194 114 q 278 71 221 89 q 404 53 336 53 q 576 104 517 53 q 636 246 636 156 q 605 344 636 304 q 524 413 574 385 q 388 478 475 440 q 248 547 306 513 q 147 641 190 582 q 104 782 104 700 q 146 918 104 858 q 262 1010 188 978 q 432 1043 336 1043 q 535 1034 490 1043 q 650 1006 581 1025 q 694 993 688 994 l 686 765 l 617 765 l 592 938 q 527 965 575 951 q 425 978 479 978 q 268 935 322 978 q 214 810 214 893 q 243 715 214 753 q 318 650 272 676 q 460 579 364 624 q 616 498 560 532 q 715 409 672 464 q 757 276 757 354 q 714 135 757 203 q 589 26 671 68 q 397 -15 507 -15 m 399 -272 q 345 -248 365 -272 q 325 -189 325 -224 q 348 -121 325 -150 q 413 -92 371 -92 q 468 -117 447 -92 q 489 -175 489 -142 q 467 -245 489 -218 q 401 -272 444 -272 l 399 -272 z "},"ẞ":{"ha":996,"x_min":28,"x_max":963,"o":"m 114 72 l 114 618 q 172 833 114 735 q 329 987 229 931 q 550 1043 429 1043 q 706 1023 639 1043 q 835 967 774 1003 l 835 918 l 657 635 l 696 614 q 831 533 778 571 q 924 433 885 494 q 963 288 963 372 q 926 133 963 203 q 824 24 890 64 q 669 -15 757 -15 q 567 -4 613 -15 q 467 26 521 7 q 417 42 433 39 l 425 278 l 496 278 l 519 103 q 581 65 536 81 q 676 50 626 50 q 802 101 754 50 q 850 263 850 153 q 797 397 850 338 q 683 491 743 457 q 540 564 624 525 l 540 592 l 726 906 q 515 979 657 979 q 372 939 438 979 q 269 822 307 899 q 231 643 231 746 l 231 0 l 28 0 l 28 58 l 114 72 z "},"Ə":{"ha":910,"x_min":67,"x_max":861,"o":"m 415 -15 q 164 92 257 -15 q 67 394 71 200 q 74 529 67 497 l 744 529 q 698 767 739 667 q 587 922 657 868 q 428 975 517 975 q 283 954 339 975 q 189 901 228 933 l 164 790 l 90 790 l 99 989 q 189 1007 133 990 q 315 1034 260 1025 q 450 1043 369 1043 q 667 978 574 1043 q 810 794 760 913 q 861 522 861 676 q 803 243 861 365 q 643 53 744 121 q 415 -15 542 -15 m 444 60 q 658 158 576 60 q 744 461 739 257 l 190 461 q 185 385 185 428 q 213 229 185 304 q 300 107 242 154 q 444 60 358 60 z "},"T":{"ha":943,"x_min":25,"x_max":910,"o":"m 410 969 l 146 961 l 101 679 l 25 679 l 49 1032 l 894 1032 l 910 679 l 836 679 l 797 961 l 529 969 l 529 72 l 728 60 l 728 0 l 228 0 l 228 60 l 410 72 l 410 969 z "},"Ŧ":{"ha":968,"x_min":39,"x_max":924,"o":"m 424 969 l 160 961 l 115 679 l 39 679 l 61 1032 l 908 1032 l 924 679 l 849 679 l 810 961 l 543 969 l 543 518 l 718 518 l 718 443 l 543 443 l 543 72 l 742 60 l 742 0 l 242 0 l 242 60 l 424 72 l 424 443 l 250 443 l 250 518 l 424 518 l 424 969 z "},"Ť":{"ha":943,"x_min":25,"x_max":910,"o":"m 410 969 l 146 961 l 101 679 l 25 679 l 49 1032 l 894 1032 l 910 679 l 836 679 l 797 961 l 529 969 l 529 72 l 728 60 l 728 0 l 228 0 l 228 60 l 410 72 l 410 969 m 474 1225 l 646 1364 l 692 1335 l 526 1147 l 421 1147 l 253 1333 l 303 1364 l 474 1225 z "},"Ţ":{"ha":943,"x_min":25,"x_max":910,"o":"m 49 1032 l 894 1032 l 910 679 l 836 679 l 797 961 l 529 969 l 529 72 l 728 60 l 728 0 l 500 0 q 558 -81 529 -26 q 588 -190 588 -135 q 545 -295 588 -264 q 418 -326 503 -326 q 367 -321 394 -326 q 319 -308 339 -315 l 321 -226 q 353 -234 335 -231 q 385 -237 372 -237 q 465 -218 440 -237 q 490 -139 490 -199 q 474 -62 490 -101 q 443 0 458 -22 l 228 0 l 228 60 l 410 72 l 410 969 l 146 961 l 101 679 l 25 679 l 49 1032 z "},"Ț":{"ha":943,"x_min":25,"x_max":910,"o":"m 410 969 l 146 961 l 101 679 l 25 679 l 49 1032 l 894 1032 l 910 679 l 836 679 l 797 961 l 529 969 l 529 72 l 728 60 l 728 0 l 228 0 l 228 60 l 410 72 l 410 969 m 561 -192 q 540 -283 561 -242 q 494 -349 519 -324 q 457 -378 469 -374 l 456 -378 l 418 -351 l 418 -343 q 452 -304 439 -333 q 465 -243 465 -275 q 458 -214 465 -225 q 436 -193 450 -203 q 417 -173 424 -185 q 410 -142 410 -161 q 431 -94 410 -108 q 471 -81 451 -81 l 476 -81 q 538 -110 515 -81 q 561 -192 561 -139 z "},"Ṫ":{"ha":943,"x_min":25,"x_max":910,"o":"m 410 969 l 146 961 l 101 679 l 25 679 l 49 1032 l 894 1032 l 910 679 l 836 679 l 797 961 l 529 969 l 529 72 l 728 60 l 728 0 l 228 0 l 228 60 l 410 72 l 410 969 m 465 1161 q 414 1183 433 1161 q 394 1240 394 1206 q 416 1306 394 1279 q 476 1332 438 1332 q 530 1308 510 1332 q 550 1251 550 1283 q 528 1187 550 1213 q 465 1161 506 1161 z "},"Ṭ":{"ha":943,"x_min":25,"x_max":910,"o":"m 410 969 l 146 961 l 101 679 l 25 679 l 49 1032 l 894 1032 l 910 679 l 836 679 l 797 961 l 529 969 l 529 72 l 728 60 l 728 0 l 228 0 l 228 60 l 410 72 l 410 969 m 463 -272 q 409 -248 429 -272 q 389 -189 389 -224 q 412 -121 389 -150 q 476 -92 435 -92 q 532 -117 511 -92 q 553 -175 553 -142 q 531 -245 553 -218 q 465 -272 508 -272 l 463 -272 z "},"U":{"ha":1025,"x_min":38,"x_max":1000,"o":"m 526 -11 q 234 99 326 -11 q 142 442 142 210 l 142 957 l 38 972 l 38 1032 l 378 1032 l 378 972 l 258 957 l 258 429 q 331 142 258 226 q 538 57 404 57 q 739 149 671 57 q 807 418 807 240 l 807 956 l 692 972 l 692 1032 l 1000 1032 l 1000 972 l 894 957 l 894 424 q 794 98 894 207 q 526 -11 693 -11 z "},"Ú":{"ha":1025,"x_min":38,"x_max":1000,"o":"m 526 -11 q 234 99 326 -11 q 142 442 142 210 l 142 957 l 38 972 l 38 1032 l 378 1032 l 378 972 l 258 957 l 258 429 q 331 142 258 226 q 538 57 404 57 q 739 149 671 57 q 807 418 807 240 l 807 956 l 692 972 l 692 1032 l 1000 1032 l 1000 972 l 894 957 l 894 424 q 794 98 894 207 q 526 -11 693 -11 m 436 1149 l 625 1361 l 721 1300 q 618 1198 688 1254 q 494 1114 549 1142 l 436 1149 z "},"Ŭ":{"ha":1025,"x_min":38,"x_max":1000,"o":"m 526 -11 q 234 99 326 -11 q 142 442 142 210 l 142 957 l 38 972 l 38 1032 l 378 1032 l 378 972 l 258 957 l 258 429 q 331 142 258 226 q 538 57 404 57 q 739 149 671 57 q 807 418 807 240 l 807 956 l 692 972 l 692 1032 l 1000 1032 l 1000 972 l 894 957 l 894 424 q 794 98 894 207 q 526 -11 693 -11 m 535 1122 q 369 1179 429 1122 q 310 1325 310 1236 q 311 1353 310 1343 l 375 1353 q 376 1333 375 1342 q 421 1249 385 1285 q 535 1214 457 1214 q 651 1250 615 1214 q 696 1335 688 1286 q 697 1353 697 1343 l 758 1353 q 760 1326 760 1343 q 698 1181 760 1239 q 535 1122 636 1122 z "},"Ǔ":{"ha":1025,"x_min":38,"x_max":1000,"o":"m 526 -11 q 234 99 326 -11 q 142 442 142 210 l 142 957 l 38 972 l 38 1032 l 378 1032 l 378 972 l 258 957 l 258 429 q 331 142 258 226 q 538 57 404 57 q 739 149 671 57 q 807 418 807 240 l 807 956 l 692 972 l 692 1032 l 1000 1032 l 1000 972 l 894 957 l 894 424 q 794 98 894 207 q 526 -11 693 -11 m 536 1225 l 708 1364 l 754 1335 l 589 1147 l 483 1147 l 315 1333 l 365 1364 l 536 1225 z "},"Û":{"ha":1025,"x_min":38,"x_max":1000,"o":"m 526 -11 q 234 99 326 -11 q 142 442 142 210 l 142 957 l 38 972 l 38 1032 l 378 1032 l 378 972 l 258 957 l 258 429 q 331 142 258 226 q 538 57 404 57 q 739 149 671 57 q 807 418 807 240 l 807 956 l 692 972 l 692 1032 l 1000 1032 l 1000 972 l 894 957 l 894 424 q 794 98 894 207 q 526 -11 693 -11 m 588 1365 l 767 1165 l 717 1135 l 536 1282 l 351 1135 l 306 1164 l 483 1365 l 588 1365 z "},"Ü":{"ha":1025,"x_min":38,"x_max":1000,"o":"m 526 -11 q 234 99 326 -11 q 142 442 142 210 l 142 957 l 38 972 l 38 1032 l 378 1032 l 378 972 l 258 957 l 258 429 q 331 142 258 226 q 538 57 404 57 q 739 149 671 57 q 807 418 807 240 l 807 956 l 692 972 l 692 1032 l 1000 1032 l 1000 972 l 894 957 l 894 424 q 794 98 894 207 q 526 -11 693 -11 m 361 1147 q 310 1170 329 1147 q 292 1226 292 1193 q 313 1292 292 1265 q 372 1319 333 1319 l 374 1319 q 427 1294 407 1319 q 447 1238 447 1269 q 425 1173 447 1199 q 363 1147 403 1147 l 361 1147 m 692 1147 q 641 1170 660 1147 q 622 1226 622 1193 q 643 1292 622 1265 q 703 1319 664 1319 l 704 1319 q 757 1295 738 1319 q 776 1238 776 1271 q 754 1173 776 1199 q 692 1147 732 1147 z "},"Ụ":{"ha":1025,"x_min":38,"x_max":1000,"o":"m 526 -11 q 234 99 326 -11 q 142 442 142 210 l 142 957 l 38 972 l 38 1032 l 378 1032 l 378 972 l 258 957 l 258 429 q 331 142 258 226 q 538 57 404 57 q 739 149 671 57 q 807 418 807 240 l 807 956 l 692 972 l 692 1032 l 1000 1032 l 1000 972 l 894 957 l 894 424 q 794 98 894 207 q 526 -11 693 -11 m 503 -272 q 449 -248 469 -272 q 429 -189 429 -224 q 452 -121 429 -150 q 517 -92 475 -92 q 572 -117 551 -92 q 593 -175 593 -142 q 571 -245 593 -218 q 506 -272 549 -272 l 503 -272 z "},"Ù":{"ha":1025,"x_min":38,"x_max":1000,"o":"m 526 -11 q 234 99 326 -11 q 142 442 142 210 l 142 957 l 38 972 l 38 1032 l 378 1032 l 378 972 l 258 957 l 258 429 q 331 142 258 226 q 538 57 404 57 q 739 149 671 57 q 807 418 807 240 l 807 956 l 692 972 l 692 1032 l 1000 1032 l 1000 972 l 894 957 l 894 424 q 794 98 894 207 q 526 -11 693 -11 m 575 1114 q 451 1198 521 1142 q 349 1300 382 1254 l 444 1361 l 633 1149 l 575 1114 z "},"Ủ":{"ha":1025,"x_min":38,"x_max":1000,"o":"m 526 -11 q 234 99 326 -11 q 142 442 142 210 l 142 957 l 38 972 l 38 1032 l 378 1032 l 378 972 l 258 957 l 258 429 q 331 142 258 226 q 538 57 404 57 q 739 149 671 57 q 807 418 807 240 l 807 956 l 692 972 l 692 1032 l 1000 1032 l 1000 972 l 894 957 l 894 424 q 794 98 894 207 q 526 -11 693 -11 m 513 1078 q 497 1106 503 1089 q 490 1140 490 1124 q 500 1160 490 1153 q 529 1179 510 1168 q 565 1204 554 1194 q 575 1232 575 1214 q 496 1285 575 1285 q 436 1271 461 1285 l 432 1344 q 477 1359 450 1353 q 528 1365 504 1365 q 674 1247 674 1365 q 658 1197 674 1214 q 610 1161 642 1179 q 574 1136 578 1140 q 561 1099 561 1126 q 564 1078 561 1085 l 513 1078 z "},"Ư":{"ha":1025,"x_min":38,"x_max":1058,"o":"m 38 1032 l 378 1032 l 378 972 l 258 957 l 258 429 q 331 142 258 226 q 538 57 404 57 q 739 149 671 57 q 807 418 807 240 l 807 956 l 692 972 l 692 1032 l 801 1032 q 915 1075 879 1032 q 951 1178 951 1118 q 950 1201 951 1196 l 1054 1201 q 1057 1171 1057 1179 q 1015 1033 1058 1085 q 894 965 972 982 l 894 424 q 794 98 894 207 q 526 -11 693 -11 q 234 99 326 -11 q 142 442 142 210 l 142 957 l 38 972 l 38 1032 z "},"Ứ":{"ha":1025,"x_min":38,"x_max":1057,"o":"m 38 1032 l 378 1032 l 378 972 l 258 957 l 258 429 q 331 142 258 226 q 538 57 404 57 q 739 149 671 57 q 807 418 807 240 l 807 956 l 692 972 l 692 1032 l 801 1032 q 915 1075 879 1032 q 951 1178 951 1118 q 950 1201 951 1196 l 1054 1201 q 1057 1171 1057 1179 q 1015 1033 1058 1085 q 894 965 972 982 l 894 424 q 794 98 894 207 q 526 -11 693 -11 q 234 99 326 -11 q 142 442 142 210 l 142 957 l 38 972 l 38 1032 m 440 1149 l 629 1361 l 725 1300 q 622 1198 692 1254 q 499 1114 553 1142 l 440 1149 z "},"Ự":{"ha":1025,"x_min":38,"x_max":1057,"o":"m 38 1032 l 378 1032 l 378 972 l 258 957 l 258 429 q 331 142 258 226 q 538 57 404 57 q 739 149 671 57 q 807 418 807 240 l 807 956 l 692 972 l 692 1032 l 801 1032 q 915 1075 879 1032 q 951 1178 951 1118 q 950 1201 951 1196 l 1054 1201 q 1057 1171 1057 1179 q 1015 1033 1058 1085 q 894 965 972 982 l 894 424 q 794 98 894 207 q 526 -11 693 -11 q 234 99 326 -11 q 142 442 142 210 l 142 957 l 38 972 l 38 1032 m 517 -272 q 463 -248 483 -272 q 443 -189 443 -224 q 466 -121 443 -150 q 531 -92 489 -92 q 586 -117 565 -92 q 607 -175 607 -142 q 585 -245 607 -218 q 519 -272 563 -272 l 517 -272 z "},"Ừ":{"ha":1025,"x_min":38,"x_max":1057,"o":"m 38 1032 l 378 1032 l 378 972 l 258 957 l 258 429 q 331 142 258 226 q 538 57 404 57 q 739 149 671 57 q 807 418 807 240 l 807 956 l 692 972 l 692 1032 l 801 1032 q 915 1075 879 1032 q 951 1178 951 1118 q 950 1201 951 1196 l 1054 1201 q 1057 1171 1057 1179 q 1015 1033 1058 1085 q 894 965 972 982 l 894 424 q 794 98 894 207 q 526 -11 693 -11 q 234 99 326 -11 q 142 442 142 210 l 142 957 l 38 972 l 38 1032 m 579 1114 q 456 1198 525 1142 q 353 1300 386 1254 l 449 1361 l 638 1149 l 579 1114 z "},"Ử":{"ha":1025,"x_min":38,"x_max":1057,"o":"m 38 1032 l 378 1032 l 378 972 l 258 957 l 258 429 q 331 142 258 226 q 538 57 404 57 q 739 149 671 57 q 807 418 807 240 l 807 956 l 692 972 l 692 1032 l 801 1032 q 915 1075 879 1032 q 951 1178 951 1118 q 950 1201 951 1196 l 1054 1201 q 1057 1171 1057 1179 q 1015 1033 1058 1085 q 894 965 972 982 l 894 424 q 794 98 894 207 q 526 -11 693 -11 q 234 99 326 -11 q 142 442 142 210 l 142 957 l 38 972 l 38 1032 m 517 1078 q 501 1106 507 1089 q 494 1140 494 1124 q 504 1160 494 1153 q 533 1179 514 1168 q 569 1204 558 1194 q 579 1232 579 1214 q 500 1285 579 1285 q 440 1271 465 1285 l 436 1344 q 481 1359 454 1353 q 532 1365 508 1365 q 678 1247 678 1365 q 662 1197 678 1214 q 614 1161 646 1179 q 578 1136 582 1140 q 565 1099 565 1126 q 568 1078 565 1085 l 517 1078 z "},"Ữ":{"ha":1025,"x_min":38,"x_max":1057,"o":"m 38 1032 l 378 1032 l 378 972 l 258 957 l 258 429 q 331 142 258 226 q 538 57 404 57 q 739 149 671 57 q 807 418 807 240 l 807 956 l 692 972 l 692 1032 l 801 1032 q 915 1075 879 1032 q 951 1178 951 1118 q 950 1201 951 1196 l 1054 1201 q 1057 1171 1057 1179 q 1015 1033 1058 1085 q 894 965 972 982 l 894 424 q 794 98 894 207 q 526 -11 693 -11 q 234 99 326 -11 q 142 442 142 210 l 142 957 l 38 972 l 38 1032 m 647 1138 q 578 1153 606 1138 q 515 1197 551 1168 q 474 1228 492 1218 q 436 1239 457 1239 q 384 1218 400 1239 q 354 1158 368 1197 l 296 1189 q 447 1322 342 1322 q 517 1306 489 1322 q 578 1260 544 1290 q 615 1228 599 1239 q 651 1217 632 1217 q 701 1241 682 1217 q 732 1301 719 1265 l 790 1271 q 739 1173 769 1208 q 647 1138 708 1138 z "},"Ű":{"ha":1025,"x_min":38,"x_max":1000,"o":"m 526 -11 q 234 99 326 -11 q 142 442 142 210 l 142 957 l 38 972 l 38 1032 l 378 1032 l 378 972 l 258 957 l 258 429 q 331 142 258 226 q 538 57 404 57 q 739 149 671 57 q 807 418 807 240 l 807 956 l 692 972 l 692 1032 l 1000 1032 l 1000 972 l 894 957 l 894 424 q 794 98 894 207 q 526 -11 693 -11 m 579 1300 q 478 1205 536 1251 q 365 1124 421 1158 l 317 1165 l 500 1364 l 579 1300 m 886 1294 q 785 1203 847 1250 q 667 1124 724 1157 l 618 1167 l 815 1361 l 886 1294 z "},"Ū":{"ha":1025,"x_min":38,"x_max":1000,"o":"m 526 -11 q 234 99 326 -11 q 142 442 142 210 l 142 957 l 38 972 l 38 1032 l 378 1032 l 378 972 l 258 957 l 258 429 q 331 142 258 226 q 538 57 404 57 q 739 149 671 57 q 807 418 807 240 l 807 956 l 692 972 l 692 1032 l 1000 1032 l 1000 972 l 894 957 l 894 424 q 794 98 894 207 q 526 -11 693 -11 m 732 1193 l 338 1193 l 338 1281 l 732 1281 l 732 1193 z "},"Ų":{"ha":1025,"x_min":38,"x_max":1000,"o":"m 526 -11 q 234 99 326 -11 q 142 442 142 210 l 142 957 l 38 972 l 38 1032 l 378 1032 l 378 972 l 258 957 l 258 429 q 331 142 258 226 q 538 57 404 57 q 739 149 671 57 q 807 418 807 240 l 807 956 l 692 972 l 692 1032 l 1000 1032 l 1000 972 l 894 957 l 894 424 q 828 145 894 250 q 647 6 763 40 q 533 -84 579 -32 q 486 -178 486 -136 q 516 -247 486 -225 q 593 -268 546 -268 q 701 -240 649 -268 l 701 -299 q 631 -333 674 -321 q 546 -346 589 -346 q 424 -315 472 -346 q 376 -215 376 -283 q 426 -104 376 -164 q 544 -10 475 -44 q 526 -11 539 -11 z "},"Ů":{"ha":1025,"x_min":38,"x_max":1000,"o":"m 526 -11 q 234 99 326 -11 q 142 442 142 210 l 142 957 l 38 972 l 38 1032 l 378 1032 l 378 972 l 258 957 l 258 429 q 331 142 258 226 q 538 57 404 57 q 739 149 671 57 q 807 418 807 240 l 807 956 l 692 972 l 692 1032 l 1000 1032 l 1000 972 l 894 957 l 894 424 q 794 98 894 207 q 526 -11 693 -11 m 531 1071 q 375 1106 436 1071 q 314 1215 314 1142 q 378 1324 314 1282 q 539 1365 443 1365 q 699 1326 643 1365 q 754 1213 754 1288 q 697 1107 754 1143 q 531 1071 640 1071 m 533 1131 q 630 1149 590 1131 q 669 1215 669 1168 q 536 1304 669 1304 q 400 1215 400 1304 q 438 1151 400 1172 q 533 1131 476 1131 z "},"Ũ":{"ha":1025,"x_min":38,"x_max":1000,"o":"m 526 -11 q 234 99 326 -11 q 142 442 142 210 l 142 957 l 38 972 l 38 1032 l 378 1032 l 378 972 l 258 957 l 258 429 q 331 142 258 226 q 538 57 404 57 q 739 149 671 57 q 807 418 807 240 l 807 956 l 692 972 l 692 1032 l 1000 1032 l 1000 972 l 894 957 l 894 424 q 794 98 894 207 q 526 -11 693 -11 m 643 1138 q 574 1153 601 1138 q 511 1197 547 1168 q 470 1228 488 1218 q 432 1239 453 1239 q 380 1218 396 1239 q 350 1158 364 1197 l 292 1189 q 443 1322 338 1322 q 513 1306 485 1322 q 574 1260 540 1290 q 611 1228 594 1239 q 647 1217 628 1217 q 697 1241 678 1217 q 728 1301 715 1265 l 786 1271 q 735 1173 765 1208 q 643 1138 704 1138 z "},"V":{"ha":917,"x_min":-21,"x_max":940,"o":"m -21 1032 l 317 1032 l 317 972 l 189 957 l 431 288 l 489 99 l 542 290 l 758 957 l 647 972 l 647 1032 l 940 1032 l 940 972 l 851 957 l 517 -11 l 425 -11 l 65 957 l -21 972 l -21 1032 z "},"W":{"ha":1374,"x_min":-28,"x_max":1401,"o":"m -28 1032 l 322 1032 l 322 972 l 186 957 l 388 297 l 433 78 l 488 297 l 654 840 l 617 957 l 514 972 l 514 1032 l 875 1032 l 875 972 l 738 957 l 933 297 l 988 61 l 1033 297 l 1218 957 l 1072 972 l 1072 1032 l 1401 1032 l 1401 972 l 1308 957 l 1024 -7 l 917 -7 l 692 719 l 471 -7 l 369 -7 l 69 956 l -28 972 l -28 1032 z "},"Ẃ":{"ha":1374,"x_min":-28,"x_max":1401,"o":"m -28 1032 l 322 1032 l 322 972 l 186 957 l 388 297 l 433 78 l 488 297 l 654 840 l 617 957 l 514 972 l 514 1032 l 875 1032 l 875 972 l 738 957 l 933 297 l 988 61 l 1033 297 l 1218 957 l 1072 972 l 1072 1032 l 1401 1032 l 1401 972 l 1308 957 l 1024 -7 l 917 -7 l 692 719 l 471 -7 l 369 -7 l 69 956 l -28 972 l -28 1032 m 590 1149 l 779 1361 l 875 1300 q 772 1198 842 1254 q 649 1114 703 1142 l 590 1149 z "},"Ŵ":{"ha":1374,"x_min":-28,"x_max":1401,"o":"m -28 1032 l 322 1032 l 322 972 l 186 957 l 388 297 l 433 78 l 488 297 l 654 840 l 617 957 l 514 972 l 514 1032 l 875 1032 l 875 972 l 738 957 l 933 297 l 988 61 l 1033 297 l 1218 957 l 1072 972 l 1072 1032 l 1401 1032 l 1401 972 l 1308 957 l 1024 -7 l 917 -7 l 692 719 l 471 -7 l 369 -7 l 69 956 l -28 972 l -28 1032 m 742 1365 l 921 1165 l 871 1135 l 690 1282 l 506 1135 l 460 1164 l 638 1365 l 742 1365 z "},"Ẅ":{"ha":1374,"x_min":-28,"x_max":1401,"o":"m -28 1032 l 322 1032 l 322 972 l 186 957 l 388 297 l 433 78 l 488 297 l 654 840 l 617 957 l 514 972 l 514 1032 l 875 1032 l 875 972 l 738 957 l 933 297 l 988 61 l 1033 297 l 1218 957 l 1072 972 l 1072 1032 l 1401 1032 l 1401 972 l 1308 957 l 1024 -7 l 917 -7 l 692 719 l 471 -7 l 369 -7 l 69 956 l -28 972 l -28 1032 m 515 1147 q 465 1170 483 1147 q 446 1226 446 1193 q 467 1292 446 1265 q 526 1319 488 1319 l 528 1319 q 581 1294 561 1319 q 601 1238 601 1269 q 579 1173 601 1199 q 517 1147 557 1147 l 515 1147 m 846 1147 q 795 1170 814 1147 q 776 1226 776 1193 q 797 1292 776 1265 q 857 1319 818 1319 l 858 1319 q 911 1295 892 1319 q 931 1238 931 1271 q 908 1173 931 1199 q 846 1147 886 1147 z "},"Ẁ":{"ha":1374,"x_min":-28,"x_max":1401,"o":"m -28 1032 l 322 1032 l 322 972 l 186 957 l 388 297 l 433 78 l 488 297 l 654 840 l 617 957 l 514 972 l 514 1032 l 875 1032 l 875 972 l 738 957 l 933 297 l 988 61 l 1033 297 l 1218 957 l 1072 972 l 1072 1032 l 1401 1032 l 1401 972 l 1308 957 l 1024 -7 l 917 -7 l 692 719 l 471 -7 l 369 -7 l 69 956 l -28 972 l -28 1032 m 729 1114 q 606 1198 675 1142 q 503 1300 536 1254 l 599 1361 l 788 1149 l 729 1114 z "},"X":{"ha":983,"x_min":10,"x_max":979,"o":"m 435 522 l 142 956 l 35 972 l 35 1032 l 424 1032 l 424 972 l 282 956 l 515 582 l 746 957 l 621 972 l 621 1032 l 953 1032 l 953 972 l 843 956 l 553 536 l 868 72 l 979 60 l 979 0 l 592 0 l 592 60 l 728 72 l 475 475 l 232 72 l 375 60 l 375 0 l 10 0 l 10 60 l 131 72 l 435 522 z "},"Y":{"ha":889,"x_min":-12,"x_max":903,"o":"m 394 397 l 74 956 l -12 972 l -12 1032 l 319 1032 l 319 972 l 203 957 l 413 564 l 463 453 l 517 564 l 718 957 l 601 972 l 601 1032 l 903 1032 l 903 972 l 811 957 l 511 399 l 511 74 l 669 60 l 669 0 l 240 0 l 240 60 l 394 72 l 394 397 z "},"Ý":{"ha":889,"x_min":-12,"x_max":903,"o":"m 394 397 l 74 956 l -12 972 l -12 1032 l 319 1032 l 319 972 l 203 957 l 413 564 l 463 453 l 517 564 l 718 957 l 601 972 l 601 1032 l 903 1032 l 903 972 l 811 957 l 511 399 l 511 74 l 669 60 l 669 0 l 240 0 l 240 60 l 394 72 l 394 397 m 346 1149 l 535 1361 l 631 1300 q 528 1198 597 1254 q 404 1114 458 1142 l 346 1149 z "},"Ŷ":{"ha":889,"x_min":-12,"x_max":903,"o":"m 394 397 l 74 956 l -12 972 l -12 1032 l 319 1032 l 319 972 l 203 957 l 413 564 l 463 453 l 517 564 l 718 957 l 601 972 l 601 1032 l 903 1032 l 903 972 l 811 957 l 511 399 l 511 74 l 669 60 l 669 0 l 240 0 l 240 60 l 394 72 l 394 397 m 497 1365 l 676 1165 l 626 1135 l 446 1282 l 261 1135 l 215 1164 l 393 1365 l 497 1365 z "},"Ÿ":{"ha":889,"x_min":-12,"x_max":903,"o":"m 394 397 l 74 956 l -12 972 l -12 1032 l 319 1032 l 319 972 l 203 957 l 413 564 l 463 453 l 517 564 l 718 957 l 601 972 l 601 1032 l 903 1032 l 903 972 l 811 957 l 511 399 l 511 74 l 669 60 l 669 0 l 240 0 l 240 60 l 394 72 l 394 397 m 271 1147 q 220 1170 239 1147 q 201 1226 201 1193 q 222 1292 201 1265 q 282 1319 243 1319 l 283 1319 q 337 1294 317 1319 q 357 1238 357 1269 q 335 1173 357 1199 q 272 1147 313 1147 l 271 1147 m 601 1147 q 551 1170 569 1147 q 532 1226 532 1193 q 553 1292 532 1265 q 613 1319 574 1319 l 614 1319 q 667 1295 647 1319 q 686 1238 686 1271 q 664 1173 686 1199 q 601 1147 642 1147 z "},"Ẏ":{"ha":889,"x_min":-12,"x_max":903,"o":"m 394 397 l 74 956 l -12 972 l -12 1032 l 319 1032 l 319 972 l 203 957 l 413 564 l 463 453 l 517 564 l 718 957 l 601 972 l 601 1032 l 903 1032 l 903 972 l 811 957 l 511 399 l 511 74 l 669 60 l 669 0 l 240 0 l 240 60 l 394 72 l 394 397 m 438 1161 q 386 1183 406 1161 q 367 1240 367 1206 q 388 1306 367 1279 q 449 1332 410 1332 q 502 1308 482 1332 q 522 1251 522 1283 q 500 1187 522 1213 q 438 1161 478 1161 z "},"Ỵ":{"ha":889,"x_min":-12,"x_max":903,"o":"m 394 397 l 74 956 l -12 972 l -12 1032 l 319 1032 l 319 972 l 203 957 l 413 564 l 463 453 l 517 564 l 718 957 l 601 972 l 601 1032 l 903 1032 l 903 972 l 811 957 l 511 399 l 511 74 l 669 60 l 669 0 l 240 0 l 240 60 l 394 72 l 394 397 m 435 -272 q 381 -248 401 -272 q 361 -189 361 -224 q 384 -121 361 -150 q 449 -92 407 -92 q 504 -117 483 -92 q 525 -175 525 -142 q 503 -245 525 -218 q 438 -272 481 -272 l 435 -272 z "},"Ỳ":{"ha":889,"x_min":-12,"x_max":903,"o":"m 394 397 l 74 956 l -12 972 l -12 1032 l 319 1032 l 319 972 l 203 957 l 413 564 l 463 453 l 517 564 l 718 957 l 601 972 l 601 1032 l 903 1032 l 903 972 l 811 957 l 511 399 l 511 74 l 669 60 l 669 0 l 240 0 l 240 60 l 394 72 l 394 397 m 485 1114 q 361 1198 431 1142 q 258 1300 292 1254 l 354 1361 l 543 1149 l 485 1114 z "},"Ỷ":{"ha":889,"x_min":-12,"x_max":903,"o":"m 394 397 l 74 956 l -12 972 l -12 1032 l 319 1032 l 319 972 l 203 957 l 413 564 l 463 453 l 517 564 l 718 957 l 601 972 l 601 1032 l 903 1032 l 903 972 l 811 957 l 511 399 l 511 74 l 669 60 l 669 0 l 240 0 l 240 60 l 394 72 l 394 397 m 424 1128 q 404 1160 414 1140 q 394 1197 394 1181 q 404 1218 394 1210 q 433 1239 414 1226 q 468 1264 457 1253 q 479 1293 479 1275 q 459 1349 479 1328 q 400 1369 439 1369 q 340 1356 365 1369 l 336 1429 q 422 1450 381 1450 q 537 1413 496 1450 q 578 1311 578 1376 q 561 1257 578 1276 q 511 1217 544 1238 q 478 1193 490 1203 q 469 1164 469 1185 q 475 1128 469 1150 l 424 1128 z "},"Ỹ":{"ha":889,"x_min":-12,"x_max":903,"o":"m 394 397 l 74 956 l -12 972 l -12 1032 l 319 1032 l 319 972 l 203 957 l 413 564 l 463 453 l 517 564 l 718 957 l 601 972 l 601 1032 l 903 1032 l 903 972 l 811 957 l 511 399 l 511 74 l 669 60 l 669 0 l 240 0 l 240 60 l 394 72 l 394 397 m 553 1138 q 484 1153 511 1138 q 421 1197 457 1168 q 380 1228 397 1218 q 342 1239 363 1239 q 290 1218 306 1239 q 260 1158 274 1197 l 201 1189 q 353 1322 247 1322 q 422 1306 394 1322 q 483 1260 450 1290 q 521 1228 504 1239 q 557 1217 538 1217 q 606 1241 588 1217 q 638 1301 625 1265 l 696 1271 q 644 1173 675 1208 q 553 1138 614 1138 z "},"Z":{"ha":907,"x_min":58,"x_max":847,"o":"m 692 972 l 250 958 l 182 778 l 118 785 l 147 1036 l 801 1036 l 832 985 l 288 174 l 197 65 l 711 89 l 781 308 l 847 293 l 814 0 l 92 0 l 58 54 l 613 872 l 692 972 z "},"Ź":{"ha":907,"x_min":58,"x_max":847,"o":"m 692 972 l 250 958 l 182 778 l 118 785 l 147 1036 l 801 1036 l 832 985 l 288 174 l 197 65 l 711 89 l 781 308 l 847 293 l 814 0 l 92 0 l 58 54 l 613 872 l 692 972 m 411 1149 l 600 1361 l 696 1300 q 593 1198 663 1254 q 469 1114 524 1142 l 411 1149 z "},"Ž":{"ha":907,"x_min":58,"x_max":847,"o":"m 692 972 l 250 958 l 182 778 l 118 785 l 147 1036 l 801 1036 l 832 985 l 288 174 l 197 65 l 711 89 l 781 308 l 847 293 l 814 0 l 92 0 l 58 54 l 613 872 l 692 972 m 511 1225 l 683 1364 l 729 1335 l 564 1147 l 458 1147 l 290 1333 l 340 1364 l 511 1225 z "},"Ż":{"ha":907,"x_min":58,"x_max":847,"o":"m 692 972 l 250 958 l 182 778 l 118 785 l 147 1036 l 801 1036 l 832 985 l 288 174 l 197 65 l 711 89 l 781 308 l 847 293 l 814 0 l 92 0 l 58 54 l 613 872 l 692 972 m 503 1161 q 451 1183 471 1161 q 432 1240 432 1206 q 453 1306 432 1279 q 514 1332 475 1332 q 567 1308 547 1332 q 588 1251 588 1283 q 565 1187 588 1213 q 503 1161 543 1161 z "},"Ẓ":{"ha":907,"x_min":58,"x_max":847,"o":"m 692 972 l 250 958 l 182 778 l 118 785 l 147 1036 l 801 1036 l 832 985 l 288 174 l 197 65 l 711 89 l 781 308 l 847 293 l 814 0 l 92 0 l 58 54 l 613 872 l 692 972 m 444 -272 q 391 -248 411 -272 q 371 -189 371 -224 q 394 -121 371 -150 q 458 -92 417 -92 q 514 -117 493 -92 q 535 -175 535 -142 q 513 -245 535 -218 q 447 -272 490 -272 l 444 -272 z "},"a":{"ha":774,"x_min":71,"x_max":733,"o":"m 71 203 q 204 398 71 338 q 536 463 338 458 l 536 506 q 522 617 536 576 q 471 677 507 658 q 369 696 435 696 q 241 674 299 696 q 129 622 183 653 l 99 683 q 163 722 114 697 q 274 767 211 747 q 394 786 336 786 q 544 760 489 786 q 623 675 599 733 q 647 518 647 617 l 647 60 l 733 60 l 733 8 q 604 -12 657 -12 q 558 -2 571 -12 q 546 46 546 8 l 546 97 q 437 19 496 53 q 303 -15 378 -15 q 137 40 203 -15 q 71 203 71 96 m 344 67 q 438 92 383 67 q 536 151 492 117 l 536 397 q 281 347 368 396 q 194 217 194 299 q 235 102 194 138 q 344 67 275 67 z "},"á":{"ha":774,"x_min":71,"x_max":733,"o":"m 71 203 q 204 398 71 338 q 536 463 338 458 l 536 506 q 522 617 536 576 q 471 677 507 658 q 369 696 435 696 q 241 674 299 696 q 129 622 183 653 l 99 683 q 163 722 114 697 q 274 767 211 747 q 394 786 336 786 q 544 760 489 786 q 623 675 599 733 q 647 518 647 617 l 647 60 l 733 60 l 733 8 q 604 -12 657 -12 q 558 -2 571 -12 q 546 46 546 8 l 546 97 q 437 19 496 53 q 303 -15 378 -15 q 137 40 203 -15 q 71 203 71 96 m 344 67 q 438 92 383 67 q 536 151 492 117 l 536 397 q 281 347 368 396 q 194 217 194 299 q 235 102 194 138 q 344 67 275 67 m 281 953 l 496 1221 l 590 1144 q 467 1020 563 1103 q 324 915 372 938 l 281 953 z "},"ă":{"ha":774,"x_min":71,"x_max":733,"o":"m 71 203 q 204 398 71 338 q 536 463 338 458 l 536 506 q 522 617 536 576 q 471 677 507 658 q 369 696 435 696 q 241 674 299 696 q 129 622 183 653 l 99 683 q 163 722 114 697 q 274 767 211 747 q 394 786 336 786 q 544 760 489 786 q 623 675 599 733 q 647 518 647 617 l 647 60 l 733 60 l 733 8 q 604 -12 657 -12 q 558 -2 571 -12 q 546 46 546 8 l 546 97 q 437 19 496 53 q 303 -15 378 -15 q 137 40 203 -15 q 71 203 71 96 m 344 67 q 438 92 383 67 q 536 151 492 117 l 536 397 q 281 347 368 396 q 194 217 194 299 q 235 102 194 138 q 344 67 275 67 m 379 925 q 259 957 310 925 q 181 1041 208 989 q 154 1154 154 1093 q 157 1186 154 1175 l 219 1186 q 221 1163 219 1172 q 265 1065 226 1108 q 379 1021 303 1021 q 492 1065 456 1021 q 533 1163 529 1108 q 535 1186 536 1181 l 596 1186 q 599 1156 599 1164 q 572 1042 599 1096 q 494 957 544 989 q 379 925 444 925 z "},"ắ":{"ha":774,"x_min":71,"x_max":733,"o":"m 71 203 q 204 398 71 338 q 536 463 338 458 l 536 506 q 522 617 536 576 q 471 677 507 658 q 369 696 435 696 q 241 674 299 696 q 129 622 183 653 l 99 683 q 163 722 114 697 q 274 767 211 747 q 394 786 336 786 q 544 760 489 786 q 623 675 599 733 q 647 518 647 617 l 647 60 l 733 60 l 733 8 q 604 -12 657 -12 q 558 -2 571 -12 q 546 46 546 8 l 546 97 q 437 19 496 53 q 303 -15 378 -15 q 137 40 203 -15 q 71 203 71 96 m 344 67 q 438 92 383 67 q 536 151 492 117 l 536 397 q 281 347 368 396 q 194 217 194 299 q 235 102 194 138 q 344 67 275 67 m 329 1146 l 508 1364 l 585 1299 q 474 1190 543 1251 q 378 1110 406 1129 l 329 1146 m 375 901 q 240 946 294 901 q 185 1068 185 990 q 188 1097 185 1088 l 244 1097 q 244 1089 244 1096 q 244 1076 243 1082 q 282 1012 251 1035 q 375 989 313 989 q 467 1011 439 989 q 501 1076 494 1033 q 503 1097 504 1093 l 558 1097 q 561 1069 561 1078 q 506 947 561 992 q 375 901 450 901 z "},"ặ":{"ha":774,"x_min":71,"x_max":733,"o":"m 71 203 q 204 398 71 338 q 536 463 338 458 l 536 506 q 522 617 536 576 q 471 677 507 658 q 369 696 435 696 q 241 674 299 696 q 129 622 183 653 l 99 683 q 163 722 114 697 q 274 767 211 747 q 394 786 336 786 q 544 760 489 786 q 623 675 599 733 q 647 518 647 617 l 647 60 l 733 60 l 733 8 q 604 -12 657 -12 q 558 -2 571 -12 q 546 46 546 8 l 546 97 q 437 19 496 53 q 303 -15 378 -15 q 137 40 203 -15 q 71 203 71 96 m 344 67 q 438 92 383 67 q 536 151 492 117 l 536 397 q 281 347 368 396 q 194 217 194 299 q 235 102 194 138 q 344 67 275 67 m 378 -272 q 324 -248 344 -272 q 304 -189 304 -224 q 327 -121 304 -150 q 392 -92 350 -92 q 447 -117 426 -92 q 468 -175 468 -142 q 446 -245 468 -218 q 381 -272 424 -272 l 378 -272 m 379 925 q 259 957 310 925 q 181 1041 208 989 q 154 1154 154 1093 q 157 1186 154 1175 l 219 1186 q 221 1163 219 1172 q 265 1065 226 1108 q 379 1021 303 1021 q 492 1065 456 1021 q 533 1163 529 1108 q 535 1186 536 1181 l 596 1186 q 599 1156 599 1164 q 572 1042 599 1096 q 494 957 544 989 q 379 925 444 925 z "},"ằ":{"ha":774,"x_min":71,"x_max":733,"o":"m 71 203 q 204 398 71 338 q 536 463 338 458 l 536 506 q 522 617 536 576 q 471 677 507 658 q 369 696 435 696 q 241 674 299 696 q 129 622 183 653 l 99 683 q 163 722 114 697 q 274 767 211 747 q 394 786 336 786 q 544 760 489 786 q 623 675 599 733 q 647 518 647 617 l 647 60 l 733 60 l 733 8 q 604 -12 657 -12 q 558 -2 571 -12 q 546 46 546 8 l 546 97 q 437 19 496 53 q 303 -15 378 -15 q 137 40 203 -15 q 71 203 71 96 m 344 67 q 438 92 383 67 q 536 151 492 117 l 536 397 q 281 347 368 396 q 194 217 194 299 q 235 102 194 138 q 344 67 275 67 m 371 1110 q 274 1190 343 1129 q 164 1299 206 1251 l 240 1364 l 419 1146 l 371 1110 m 375 901 q 240 946 294 901 q 185 1068 185 990 q 188 1097 185 1088 l 244 1097 q 244 1089 244 1096 q 244 1076 243 1082 q 282 1012 251 1035 q 375 989 313 989 q 467 1011 439 989 q 501 1076 494 1033 q 503 1097 504 1093 l 558 1097 q 561 1069 561 1078 q 506 947 561 992 q 375 901 450 901 z "},"ẳ":{"ha":774,"x_min":71,"x_max":733,"o":"m 71 203 q 204 398 71 338 q 536 463 338 458 l 536 506 q 522 617 536 576 q 471 677 507 658 q 369 696 435 696 q 241 674 299 696 q 129 622 183 653 l 99 683 q 163 722 114 697 q 274 767 211 747 q 394 786 336 786 q 544 760 489 786 q 623 675 599 733 q 647 518 647 617 l 647 60 l 733 60 l 733 8 q 604 -12 657 -12 q 558 -2 571 -12 q 546 46 546 8 l 546 97 q 437 19 496 53 q 303 -15 378 -15 q 137 40 203 -15 q 71 203 71 96 m 344 67 q 438 92 383 67 q 536 151 492 117 l 536 397 q 281 347 368 396 q 194 217 194 299 q 235 102 194 138 q 344 67 275 67 m 350 1088 q 335 1129 335 1104 q 346 1157 335 1146 q 381 1185 357 1168 q 410 1207 400 1197 q 421 1229 421 1217 q 403 1269 421 1253 q 349 1292 386 1286 l 338 1292 q 304 1288 313 1292 l 301 1354 q 323 1362 303 1358 q 358 1365 343 1365 q 465 1333 425 1365 q 504 1242 504 1300 q 488 1193 504 1211 q 442 1156 472 1175 q 407 1129 417 1139 q 394 1103 394 1117 q 397 1088 394 1099 l 350 1088 m 375 901 q 240 946 294 901 q 185 1068 185 990 q 188 1097 185 1088 l 244 1097 q 244 1089 244 1096 q 244 1076 243 1082 q 282 1012 251 1035 q 375 989 313 989 q 467 1011 439 989 q 501 1076 494 1033 q 503 1097 504 1093 l 558 1097 q 561 1069 561 1078 q 506 947 561 992 q 375 901 450 901 z "},"ẵ":{"ha":774,"x_min":71,"x_max":733,"o":"m 71 203 q 204 398 71 338 q 536 463 338 458 l 536 506 q 522 617 536 576 q 471 677 507 658 q 369 696 435 696 q 241 674 299 696 q 129 622 183 653 l 99 683 q 163 722 114 697 q 274 767 211 747 q 394 786 336 786 q 544 760 489 786 q 623 675 599 733 q 647 518 647 617 l 647 60 l 733 60 l 733 8 q 604 -12 657 -12 q 558 -2 571 -12 q 546 46 546 8 l 546 97 q 437 19 496 53 q 303 -15 378 -15 q 137 40 203 -15 q 71 203 71 96 m 344 67 q 438 92 383 67 q 536 151 492 117 l 536 397 q 281 347 368 396 q 194 217 194 299 q 235 102 194 138 q 344 67 275 67 m 174 1239 q 219 1323 185 1289 q 303 1357 254 1357 q 351 1347 332 1357 q 393 1317 371 1336 q 426 1293 414 1300 q 456 1286 439 1286 q 494 1301 478 1286 q 519 1338 511 1317 l 565 1319 q 519 1235 554 1269 q 436 1201 485 1201 q 390 1211 408 1201 q 347 1240 371 1221 q 315 1265 328 1257 q 283 1272 301 1272 q 247 1259 260 1272 q 219 1221 235 1246 l 174 1239 m 375 901 q 240 946 294 901 q 185 1068 185 990 q 188 1097 185 1088 l 244 1097 q 244 1089 244 1096 q 244 1076 243 1082 q 282 1012 251 1035 q 375 989 313 989 q 467 1011 439 989 q 501 1076 494 1033 q 503 1097 504 1093 l 558 1097 q 561 1069 561 1078 q 506 947 561 992 q 375 901 450 901 z "},"ǎ":{"ha":774,"x_min":71,"x_max":733,"o":"m 71 203 q 204 398 71 338 q 536 463 338 458 l 536 506 q 522 617 536 576 q 471 677 507 658 q 369 696 435 696 q 241 674 299 696 q 129 622 183 653 l 99 683 q 163 722 114 697 q 274 767 211 747 q 394 786 336 786 q 544 760 489 786 q 623 675 599 733 q 647 518 647 617 l 647 60 l 733 60 l 733 8 q 604 -12 657 -12 q 558 -2 571 -12 q 546 46 546 8 l 546 97 q 437 19 496 53 q 303 -15 378 -15 q 137 40 203 -15 q 71 203 71 96 m 344 67 q 438 92 383 67 q 536 151 492 117 l 536 397 q 281 347 368 396 q 194 217 194 299 q 235 102 194 138 q 344 67 275 67 m 375 981 l 572 1190 l 615 1163 l 428 892 l 322 892 l 133 1161 l 182 1190 l 375 981 z "},"â":{"ha":774,"x_min":71,"x_max":733,"o":"m 71 203 q 204 398 71 338 q 536 463 338 458 l 536 506 q 522 617 536 576 q 471 677 507 658 q 369 696 435 696 q 241 674 299 696 q 129 622 183 653 l 99 683 q 163 722 114 697 q 274 767 211 747 q 394 786 336 786 q 544 760 489 786 q 623 675 599 733 q 647 518 647 617 l 647 60 l 733 60 l 733 8 q 604 -12 657 -12 q 558 -2 571 -12 q 546 46 546 8 l 546 97 q 437 19 496 53 q 303 -15 378 -15 q 137 40 203 -15 q 71 203 71 96 m 344 67 q 438 92 383 67 q 536 151 492 117 l 536 397 q 281 347 368 396 q 194 217 194 299 q 235 102 194 138 q 344 67 275 67 m 428 1192 l 615 921 l 567 892 l 375 1101 l 175 892 l 131 919 l 324 1192 l 428 1192 z "},"ấ":{"ha":774,"x_min":71,"x_max":807,"o":"m 71 203 q 204 398 71 338 q 536 463 338 458 l 536 506 q 522 617 536 576 q 471 677 507 658 q 369 696 435 696 q 241 674 299 696 q 129 622 183 653 l 99 683 q 163 722 114 697 q 274 767 211 747 q 394 786 336 786 q 544 760 489 786 q 623 675 599 733 q 647 518 647 617 l 647 60 l 733 60 l 733 8 q 604 -12 657 -12 q 558 -2 571 -12 q 546 46 546 8 l 546 97 q 437 19 496 53 q 303 -15 378 -15 q 137 40 203 -15 q 71 203 71 96 m 344 67 q 438 92 383 67 q 536 151 492 117 l 536 397 q 281 347 368 396 q 194 217 194 299 q 235 102 194 138 q 344 67 275 67 m 540 1131 l 728 1360 l 807 1292 q 700 1183 782 1254 q 578 1093 618 1111 l 540 1131 m 425 1140 l 594 931 l 550 904 l 376 1058 l 194 904 l 154 929 l 329 1140 l 425 1140 z "},"ậ":{"ha":774,"x_min":71,"x_max":733,"o":"m 71 203 q 204 398 71 338 q 536 463 338 458 l 536 506 q 522 617 536 576 q 471 677 507 658 q 369 696 435 696 q 241 674 299 696 q 129 622 183 653 l 99 683 q 163 722 114 697 q 274 767 211 747 q 394 786 336 786 q 544 760 489 786 q 623 675 599 733 q 647 518 647 617 l 647 60 l 733 60 l 733 8 q 604 -12 657 -12 q 558 -2 571 -12 q 546 46 546 8 l 546 97 q 437 19 496 53 q 303 -15 378 -15 q 137 40 203 -15 q 71 203 71 96 m 344 67 q 438 92 383 67 q 536 151 492 117 l 536 397 q 281 347 368 396 q 194 217 194 299 q 235 102 194 138 q 344 67 275 67 m 378 -272 q 324 -248 344 -272 q 304 -189 304 -224 q 327 -121 304 -150 q 392 -92 350 -92 q 447 -117 426 -92 q 468 -175 468 -142 q 446 -245 468 -218 q 381 -272 424 -272 l 378 -272 m 428 1192 l 615 921 l 567 892 l 375 1101 l 175 892 l 131 919 l 324 1192 l 428 1192 z "},"ầ":{"ha":774,"x_min":71,"x_max":733,"o":"m 71 203 q 204 398 71 338 q 536 463 338 458 l 536 506 q 522 617 536 576 q 471 677 507 658 q 369 696 435 696 q 241 674 299 696 q 129 622 183 653 l 99 683 q 163 722 114 697 q 274 767 211 747 q 394 786 336 786 q 544 760 489 786 q 623 675 599 733 q 647 518 647 617 l 647 60 l 733 60 l 733 8 q 604 -12 657 -12 q 558 -2 571 -12 q 546 46 546 8 l 546 97 q 437 19 496 53 q 303 -15 378 -15 q 137 40 203 -15 q 71 203 71 96 m 344 67 q 438 92 383 67 q 536 151 492 117 l 536 397 q 281 347 368 396 q 194 217 194 299 q 235 102 194 138 q 344 67 275 67 m 643 1140 q 552 1201 608 1156 q 450 1297 496 1246 l 529 1365 l 681 1175 l 643 1140 m 425 1140 l 594 931 l 550 904 l 376 1058 l 194 904 l 154 929 l 329 1140 l 425 1140 z "},"ẩ":{"ha":774,"x_min":71,"x_max":733,"o":"m 71 203 q 204 398 71 338 q 536 463 338 458 l 536 506 q 522 617 536 576 q 471 677 507 658 q 369 696 435 696 q 241 674 299 696 q 129 622 183 653 l 99 683 q 163 722 114 697 q 274 767 211 747 q 394 786 336 786 q 544 760 489 786 q 623 675 599 733 q 647 518 647 617 l 647 60 l 733 60 l 733 8 q 604 -12 657 -12 q 558 -2 571 -12 q 546 46 546 8 l 546 97 q 437 19 496 53 q 303 -15 378 -15 q 137 40 203 -15 q 71 203 71 96 m 344 67 q 438 92 383 67 q 536 151 492 117 l 536 397 q 281 347 368 396 q 194 217 194 299 q 235 102 194 138 q 344 67 275 67 m 569 1060 q 553 1094 563 1069 q 544 1129 544 1118 q 555 1157 544 1146 q 588 1183 565 1168 q 619 1210 610 1200 q 629 1236 629 1221 q 611 1276 629 1264 q 554 1289 593 1289 q 518 1285 536 1289 q 493 1276 500 1281 l 493 1356 q 521 1363 496 1360 q 578 1367 546 1367 q 683 1333 649 1367 q 717 1247 717 1300 q 698 1190 717 1214 q 659 1149 679 1165 q 633 1128 639 1132 q 622 1101 622 1119 q 628 1071 622 1088 l 569 1060 m 425 1140 l 594 931 l 550 904 l 376 1058 l 194 904 l 154 929 l 329 1140 l 425 1140 z "},"ẫ":{"ha":774,"x_min":71,"x_max":733,"o":"m 71 203 q 204 398 71 338 q 536 463 338 458 l 536 506 q 522 617 536 576 q 471 677 507 658 q 369 696 435 696 q 241 674 299 696 q 129 622 183 653 l 99 683 q 163 722 114 697 q 274 767 211 747 q 394 786 336 786 q 544 760 489 786 q 623 675 599 733 q 647 518 647 617 l 647 60 l 733 60 l 733 8 q 604 -12 657 -12 q 558 -2 571 -12 q 546 46 546 8 l 546 97 q 437 19 496 53 q 303 -15 378 -15 q 137 40 203 -15 q 71 203 71 96 m 344 67 q 438 92 383 67 q 536 151 492 117 l 536 397 q 281 347 368 396 q 194 217 194 299 q 235 102 194 138 q 344 67 275 67 m 174 1239 q 219 1323 185 1289 q 303 1357 254 1357 q 351 1347 332 1357 q 393 1317 371 1336 q 426 1293 414 1300 q 456 1286 439 1286 q 494 1301 478 1286 q 519 1338 511 1317 l 565 1319 q 519 1235 554 1269 q 436 1201 485 1201 q 390 1211 408 1201 q 347 1240 371 1221 q 315 1265 328 1257 q 283 1272 301 1272 q 247 1259 260 1272 q 219 1221 235 1246 l 174 1239 m 425 1140 l 594 931 l 550 904 l 376 1058 l 194 904 l 154 929 l 329 1140 l 425 1140 z "},"ä":{"ha":774,"x_min":71,"x_max":733,"o":"m 71 203 q 204 398 71 338 q 536 463 338 458 l 536 506 q 522 617 536 576 q 471 677 507 658 q 369 696 435 696 q 241 674 299 696 q 129 622 183 653 l 99 683 q 163 722 114 697 q 274 767 211 747 q 394 786 336 786 q 544 760 489 786 q 623 675 599 733 q 647 518 647 617 l 647 60 l 733 60 l 733 8 q 604 -12 657 -12 q 558 -2 571 -12 q 546 46 546 8 l 546 97 q 437 19 496 53 q 303 -15 378 -15 q 137 40 203 -15 q 71 203 71 96 m 344 67 q 438 92 383 67 q 536 151 492 117 l 536 397 q 281 347 368 396 q 194 217 194 299 q 235 102 194 138 q 344 67 275 67 m 217 919 q 165 942 185 919 q 146 999 146 964 q 167 1063 146 1036 q 228 1090 189 1090 q 281 1066 261 1090 q 301 1010 301 1042 q 279 945 301 971 q 217 919 257 919 m 518 919 q 468 942 488 919 q 449 999 449 965 q 470 1063 449 1036 q 531 1090 492 1090 q 584 1066 564 1090 q 604 1010 604 1042 q 582 945 604 971 q 518 919 560 919 z "},"ạ":{"ha":774,"x_min":71,"x_max":733,"o":"m 71 203 q 204 398 71 338 q 536 463 338 458 l 536 506 q 522 617 536 576 q 471 677 507 658 q 369 696 435 696 q 241 674 299 696 q 129 622 183 653 l 99 683 q 163 722 114 697 q 274 767 211 747 q 394 786 336 786 q 544 760 489 786 q 623 675 599 733 q 647 518 647 617 l 647 60 l 733 60 l 733 8 q 604 -12 657 -12 q 558 -2 571 -12 q 546 46 546 8 l 546 97 q 437 19 496 53 q 303 -15 378 -15 q 137 40 203 -15 q 71 203 71 96 m 344 67 q 438 92 383 67 q 536 151 492 117 l 536 397 q 281 347 368 396 q 194 217 194 299 q 235 102 194 138 q 344 67 275 67 m 378 -272 q 324 -248 344 -272 q 304 -189 304 -224 q 327 -121 304 -150 q 392 -92 350 -92 q 447 -117 426 -92 q 468 -175 468 -142 q 446 -245 468 -218 q 381 -272 424 -272 l 378 -272 z "},"à":{"ha":774,"x_min":71,"x_max":733,"o":"m 71 203 q 204 398 71 338 q 536 463 338 458 l 536 506 q 522 617 536 576 q 471 677 507 658 q 369 696 435 696 q 241 674 299 696 q 129 622 183 653 l 99 683 q 163 722 114 697 q 274 767 211 747 q 394 786 336 786 q 544 760 489 786 q 623 675 599 733 q 647 518 647 617 l 647 60 l 733 60 l 733 8 q 604 -12 657 -12 q 558 -2 571 -12 q 546 46 546 8 l 546 97 q 437 19 496 53 q 303 -15 378 -15 q 137 40 203 -15 q 71 203 71 96 m 344 67 q 438 92 383 67 q 536 151 492 117 l 536 397 q 281 347 368 396 q 194 217 194 299 q 235 102 194 138 q 344 67 275 67 m 415 915 q 278 1017 378 931 q 153 1144 179 1104 l 240 1219 l 457 953 l 417 915 l 415 915 z "},"ả":{"ha":774,"x_min":71,"x_max":733,"o":"m 71 203 q 204 398 71 338 q 536 463 338 458 l 536 506 q 522 617 536 576 q 471 677 507 658 q 369 696 435 696 q 241 674 299 696 q 129 622 183 653 l 99 683 q 163 722 114 697 q 274 767 211 747 q 394 786 336 786 q 544 760 489 786 q 623 675 599 733 q 647 518 647 617 l 647 60 l 733 60 l 733 8 q 604 -12 657 -12 q 558 -2 571 -12 q 546 46 546 8 l 546 97 q 437 19 496 53 q 303 -15 378 -15 q 137 40 203 -15 q 71 203 71 96 m 344 67 q 438 92 383 67 q 536 151 492 117 l 536 397 q 281 347 368 396 q 194 217 194 299 q 235 102 194 138 q 344 67 275 67 m 354 867 q 335 899 344 879 q 325 936 325 919 q 335 957 325 949 q 364 978 344 965 q 399 1003 388 992 q 410 1032 410 1014 q 390 1088 410 1067 q 331 1108 369 1108 q 271 1094 296 1108 l 267 1168 q 353 1189 311 1189 q 467 1152 426 1189 q 508 1050 508 1115 q 492 996 508 1015 q 442 956 475 976 q 408 932 421 942 q 400 903 400 924 q 406 867 400 889 l 354 867 z "},"ā":{"ha":774,"x_min":71,"x_max":733,"o":"m 71 203 q 204 398 71 338 q 536 463 338 458 l 536 506 q 522 617 536 576 q 471 677 507 658 q 369 696 435 696 q 241 674 299 696 q 129 622 183 653 l 99 683 q 163 722 114 697 q 274 767 211 747 q 394 786 336 786 q 544 760 489 786 q 623 675 599 733 q 647 518 647 617 l 647 60 l 733 60 l 733 8 q 604 -12 657 -12 q 558 -2 571 -12 q 546 46 546 8 l 546 97 q 437 19 496 53 q 303 -15 378 -15 q 137 40 203 -15 q 71 203 71 96 m 344 67 q 438 92 383 67 q 536 151 492 117 l 536 397 q 281 347 368 396 q 194 217 194 299 q 235 102 194 138 q 344 67 275 67 m 557 938 l 194 938 l 194 1022 l 557 1022 l 557 938 z "},"ą":{"ha":774,"x_min":71,"x_max":783,"o":"m 303 -15 q 137 40 203 -15 q 71 203 71 96 q 204 398 71 338 q 536 463 338 458 l 536 506 q 522 617 536 576 q 471 677 507 658 q 369 696 435 696 q 125 622 256 696 l 94 683 q 159 722 110 697 q 272 767 208 747 q 394 786 336 786 q 544 760 489 786 q 623 675 599 733 q 647 518 647 617 l 647 60 l 733 60 l 733 8 q 714 4 728 7 q 689 -3 700 1 q 574 -84 626 -32 q 521 -176 521 -136 q 546 -245 521 -225 q 622 -265 571 -265 q 697 -250 663 -265 q 771 -211 731 -235 l 783 -264 q 694 -316 742 -294 q 572 -337 646 -337 q 460 -306 503 -337 q 417 -208 417 -275 q 465 -106 417 -161 q 581 -11 513 -50 q 554 3 563 -8 q 546 46 546 15 l 546 97 q 437 19 496 53 q 303 -15 378 -15 m 194 217 q 235 102 194 138 q 344 67 275 67 q 438 92 383 67 q 536 151 492 117 l 536 397 q 281 347 368 396 q 194 217 194 299 z "},"å":{"ha":774,"x_min":71,"x_max":733,"o":"m 71 203 q 204 398 71 338 q 536 463 338 458 l 536 506 q 522 617 536 576 q 471 677 507 658 q 369 696 435 696 q 241 674 299 696 q 129 622 183 653 l 99 683 q 163 722 114 697 q 274 767 211 747 q 394 786 336 786 q 544 760 489 786 q 623 675 599 733 q 647 518 647 617 l 647 60 l 733 60 l 733 8 q 604 -12 657 -12 q 558 -2 571 -12 q 546 46 546 8 l 546 97 q 437 19 496 53 q 303 -15 378 -15 q 137 40 203 -15 q 71 203 71 96 m 344 67 q 438 92 383 67 q 536 151 492 117 l 536 397 q 281 347 368 396 q 194 217 194 299 q 235 102 194 138 q 344 67 275 67 m 374 894 q 213 947 268 894 q 157 1082 157 999 q 190 1179 157 1138 q 274 1242 222 1221 q 383 1264 326 1264 q 538 1213 482 1264 q 593 1081 593 1161 q 528 944 592 993 q 374 894 465 894 m 376 949 q 475 981 442 949 q 508 1075 508 1014 q 476 1171 508 1133 q 378 1208 443 1208 q 278 1175 315 1208 q 242 1085 242 1142 q 276 988 242 1026 q 376 949 310 949 z "},"ǻ":{"ha":774,"x_min":71,"x_max":733,"o":"m 71 203 q 204 398 71 338 q 536 463 338 458 l 536 506 q 522 617 536 576 q 471 677 507 658 q 369 696 435 696 q 241 674 299 696 q 129 622 183 653 l 99 683 q 163 722 114 697 q 274 767 211 747 q 394 786 336 786 q 544 760 489 786 q 623 675 599 733 q 647 518 647 617 l 647 60 l 733 60 l 733 8 q 604 -12 657 -12 q 558 -2 571 -12 q 546 46 546 8 l 546 97 q 437 19 496 53 q 303 -15 378 -15 q 137 40 203 -15 q 71 203 71 96 m 344 67 q 438 92 383 67 q 536 151 492 117 l 536 397 q 281 347 368 396 q 194 217 194 299 q 235 102 194 138 q 344 67 275 67 m 157 1046 q 202 1153 157 1113 q 318 1208 247 1194 l 418 1365 l 531 1314 q 439 1210 496 1250 q 555 1155 514 1199 q 596 1044 596 1111 q 532 916 596 960 q 374 872 468 872 q 212 918 267 872 q 157 1046 157 964 m 247 1049 q 376 933 247 933 q 477 957 446 933 q 508 1039 508 981 q 378 1153 508 1153 q 281 1124 315 1153 q 247 1049 247 1096 z "},"ã":{"ha":774,"x_min":71,"x_max":733,"o":"m 71 203 q 204 398 71 338 q 536 463 338 458 l 536 506 q 522 617 536 576 q 471 677 507 658 q 369 696 435 696 q 241 674 299 696 q 129 622 183 653 l 99 683 q 163 722 114 697 q 274 767 211 747 q 394 786 336 786 q 544 760 489 786 q 623 675 599 733 q 647 518 647 617 l 647 60 l 733 60 l 733 8 q 604 -12 657 -12 q 558 -2 571 -12 q 546 46 546 8 l 546 97 q 437 19 496 53 q 303 -15 378 -15 q 137 40 203 -15 q 71 203 71 96 m 344 67 q 438 92 383 67 q 536 151 492 117 l 536 397 q 281 347 368 396 q 194 217 194 299 q 235 102 194 138 q 344 67 275 67 m 118 971 q 172 1067 132 1026 q 278 1108 211 1108 q 347 1092 319 1108 q 411 1042 375 1075 q 451 1007 435 1018 q 488 996 468 996 q 549 1025 526 996 q 575 1082 571 1054 l 639 1053 q 482 913 596 913 q 415 929 442 913 q 354 978 388 946 q 311 1014 328 1003 q 274 1025 294 1025 q 215 1003 235 1025 q 187 963 196 982 q 175 939 178 943 l 118 971 z "},"æ":{"ha":1207,"x_min":65,"x_max":1146,"o":"m 299 -15 q 132 40 199 -15 q 65 203 65 96 q 199 397 65 336 q 524 463 332 458 q 513 615 524 567 q 468 681 501 663 q 364 700 435 700 q 235 678 294 700 q 111 621 175 656 l 82 679 q 152 723 100 697 q 268 767 204 749 q 390 786 332 786 q 541 760 486 786 q 619 674 596 733 q 735 761 668 731 q 879 792 801 792 q 1072 721 1003 792 q 1146 517 1140 650 q 1138 394 1146 431 l 643 394 q 709 156 643 249 q 894 64 775 64 q 1014 85 953 64 q 1107 135 1075 106 l 1129 83 q 1013 13 1089 42 q 860 -15 938 -15 q 694 24 764 -15 q 582 138 624 64 q 467 31 539 78 q 299 -15 396 -15 m 1021 460 q 1024 521 1024 499 q 982 667 1024 613 q 851 721 940 721 q 644 460 661 721 l 1021 460 m 339 67 q 467 106 407 67 q 556 193 528 144 q 524 403 524 279 q 276 350 363 401 q 189 217 189 299 q 230 102 189 138 q 339 67 271 67 z "},"ǽ":{"ha":1207,"x_min":65,"x_max":1146,"o":"m 299 -15 q 132 40 199 -15 q 65 203 65 96 q 199 397 65 336 q 524 463 332 458 q 513 615 524 567 q 468 681 501 663 q 364 700 435 700 q 235 678 294 700 q 111 621 175 656 l 82 679 q 152 723 100 697 q 268 767 204 749 q 390 786 332 786 q 541 760 486 786 q 619 674 596 733 q 735 761 668 731 q 879 792 801 792 q 1072 721 1003 792 q 1146 517 1140 650 q 1138 394 1146 431 l 643 394 q 709 156 643 249 q 894 64 775 64 q 1014 85 953 64 q 1107 135 1075 106 l 1129 83 q 1013 13 1089 42 q 860 -15 938 -15 q 694 24 764 -15 q 582 138 624 64 q 467 31 539 78 q 299 -15 396 -15 m 1021 460 q 1024 521 1024 499 q 982 667 1024 613 q 851 721 940 721 q 644 460 661 721 l 1021 460 m 339 67 q 467 106 407 67 q 556 193 528 144 q 524 403 524 279 q 276 350 363 401 q 189 217 189 299 q 230 102 189 138 q 339 67 271 67 m 538 953 l 753 1221 l 847 1144 q 724 1020 819 1103 q 581 915 629 938 l 538 953 z "},"b":{"ha":833,"x_min":-4,"x_max":769,"o":"m -4 1114 l 199 1138 l 201 1138 l 228 1118 l 228 696 q 331 764 271 736 q 465 792 392 792 q 616 751 547 792 q 727 626 685 711 q 769 414 769 542 q 721 197 769 294 q 582 42 672 99 q 374 -15 492 -15 q 210 3 288 -15 q 115 38 132 21 l 115 1050 l -4 1063 l -4 1114 m 419 707 q 310 679 361 707 q 228 618 258 651 l 228 104 q 283 69 238 82 q 383 56 328 56 q 575 144 503 56 q 647 403 647 232 q 583 631 647 556 q 419 707 518 707 z "},"ḃ":{"ha":833,"x_min":-4,"x_max":769,"o":"m -4 1114 l 199 1138 l 201 1138 l 228 1118 l 228 696 q 331 764 271 736 q 465 792 392 792 q 616 751 547 792 q 727 626 685 711 q 769 414 769 542 q 721 197 769 294 q 582 42 672 99 q 374 -15 492 -15 q 210 3 288 -15 q 115 38 132 21 l 115 1050 l -4 1063 l -4 1114 m 419 707 q 310 679 361 707 q 228 618 258 651 l 228 104 q 283 69 238 82 q 383 56 328 56 q 575 144 503 56 q 647 403 647 232 q 583 631 647 556 q 419 707 518 707 m 499 917 q 424 996 424 917 q 447 1062 424 1036 q 511 1088 471 1088 q 571 1065 553 1088 q 589 1008 589 1042 q 566 941 589 965 q 500 917 543 917 l 499 917 z "},"ḅ":{"ha":833,"x_min":-4,"x_max":769,"o":"m -4 1114 l 199 1138 l 201 1138 l 228 1118 l 228 696 q 331 764 271 736 q 465 792 392 792 q 616 751 547 792 q 727 626 685 711 q 769 414 769 542 q 721 197 769 294 q 582 42 672 99 q 374 -15 492 -15 q 210 3 288 -15 q 115 38 132 21 l 115 1050 l -4 1063 l -4 1114 m 419 707 q 310 679 361 707 q 228 618 258 651 l 228 104 q 283 69 238 82 q 383 56 328 56 q 575 144 503 56 q 647 403 647 232 q 583 631 647 556 q 419 707 518 707 m 364 -272 q 310 -248 331 -272 q 290 -189 290 -224 q 313 -121 290 -150 q 378 -92 336 -92 q 433 -117 413 -92 q 454 -175 454 -142 q 432 -245 454 -218 q 367 -272 410 -272 l 364 -272 z "},"c":{"ha":707,"x_min":47,"x_max":643,"o":"m 47 381 q 91 587 47 493 q 222 736 135 681 q 433 792 308 792 q 539 778 488 792 q 628 750 590 765 l 622 551 l 553 551 l 524 685 q 404 726 515 726 q 231 643 296 726 q 167 415 167 560 q 236 154 167 243 q 417 65 306 65 q 530 85 475 65 q 621 129 585 104 l 643 83 q 532 14 603 43 q 392 -15 461 -15 q 204 37 282 -15 q 87 178 126 89 q 47 381 47 268 z "},"ć":{"ha":707,"x_min":47,"x_max":643,"o":"m 47 381 q 91 587 47 493 q 222 736 135 681 q 433 792 308 792 q 539 778 488 792 q 628 750 590 765 l 622 551 l 553 551 l 524 685 q 404 726 515 726 q 231 643 296 726 q 167 415 167 560 q 236 154 167 243 q 417 65 306 65 q 530 85 475 65 q 621 129 585 104 l 643 83 q 532 14 603 43 q 392 -15 461 -15 q 204 37 282 -15 q 87 178 126 89 q 47 381 47 268 m 301 953 l 517 1221 l 611 1144 q 488 1020 583 1103 q 344 915 393 938 l 301 953 z "},"č":{"ha":707,"x_min":47,"x_max":643,"o":"m 47 381 q 91 587 47 493 q 222 736 135 681 q 433 792 308 792 q 539 778 488 792 q 628 750 590 765 l 622 551 l 553 551 l 524 685 q 404 726 515 726 q 231 643 296 726 q 167 415 167 560 q 236 154 167 243 q 417 65 306 65 q 530 85 475 65 q 621 129 585 104 l 643 83 q 532 14 603 43 q 392 -15 461 -15 q 204 37 282 -15 q 87 178 126 89 q 47 381 47 268 m 396 981 l 593 1190 l 636 1163 l 449 892 l 343 892 l 154 1161 l 203 1190 l 396 981 z "},"ç":{"ha":707,"x_min":47,"x_max":643,"o":"m 47 381 q 91 587 47 493 q 222 736 135 681 q 433 792 308 792 q 539 778 488 792 q 628 750 590 765 l 622 551 l 553 551 l 524 685 q 404 726 515 726 q 231 643 296 726 q 167 415 167 560 q 236 154 167 243 q 417 65 306 65 q 530 85 475 65 q 621 129 585 104 l 643 83 q 535 15 604 44 q 397 -15 465 -14 q 447 -95 425 -49 q 469 -189 469 -142 q 426 -294 469 -262 q 300 -326 383 -326 q 249 -321 276 -326 q 201 -308 221 -315 l 203 -226 q 235 -234 217 -231 q 267 -237 254 -237 q 347 -218 322 -237 q 372 -139 372 -199 q 360 -71 372 -106 q 332 -11 347 -36 q 122 117 196 10 q 47 381 47 225 z "},"ĉ":{"ha":707,"x_min":47,"x_max":643,"o":"m 47 381 q 91 587 47 493 q 222 736 135 681 q 433 792 308 792 q 539 778 488 792 q 628 750 590 765 l 622 551 l 553 551 l 524 685 q 404 726 515 726 q 231 643 296 726 q 167 415 167 560 q 236 154 167 243 q 417 65 306 65 q 530 85 475 65 q 621 129 585 104 l 643 83 q 532 14 603 43 q 392 -15 461 -15 q 204 37 282 -15 q 87 178 126 89 q 47 381 47 268 m 449 1192 l 636 921 l 588 892 l 396 1101 l 196 892 l 151 919 l 344 1192 l 449 1192 z "},"ċ":{"ha":707,"x_min":47,"x_max":643,"o":"m 47 381 q 91 587 47 493 q 222 736 135 681 q 433 792 308 792 q 539 778 488 792 q 628 750 590 765 l 622 551 l 553 551 l 524 685 q 404 726 515 726 q 231 643 296 726 q 167 415 167 560 q 236 154 167 243 q 417 65 306 65 q 530 85 475 65 q 621 129 585 104 l 643 83 q 532 14 603 43 q 392 -15 461 -15 q 204 37 282 -15 q 87 178 126 89 q 47 381 47 268 m 393 917 q 318 996 318 917 q 342 1062 318 1036 q 406 1088 365 1088 q 465 1065 447 1088 q 483 1008 483 1042 q 460 941 483 965 q 394 917 438 917 l 393 917 z "},"d":{"ha":858,"x_min":64,"x_max":804,"o":"m 368 -15 q 217 27 286 -15 q 106 156 147 69 q 64 367 64 242 q 113 583 64 486 q 251 735 161 679 q 460 792 340 792 q 607 775 536 792 l 607 1050 l 463 1064 l 463 1114 l 690 1138 l 693 1138 l 719 1118 l 719 63 l 804 63 l 804 8 q 757 -3 797 7 q 671 -12 717 -12 q 626 -1 639 -12 q 613 47 613 10 l 613 96 q 508 17 569 49 q 368 -15 446 -15 m 414 72 q 527 101 474 72 q 607 164 581 129 l 607 675 q 549 708 596 694 q 450 722 503 722 q 258 637 331 722 q 186 378 186 551 q 250 147 186 222 q 414 72 314 72 z "},"ð":{"ha":794,"x_min":58,"x_max":738,"o":"m 401 -15 q 144 87 229 -15 q 58 360 58 189 q 108 595 58 497 q 238 742 157 693 q 414 792 318 792 q 556 761 494 792 q 459 919 521 843 q 317 1047 397 996 l 217 928 l 161 968 l 264 1085 q 185 1129 229 1108 q 111 1158 142 1150 l 135 1215 q 226 1181 188 1199 q 313 1139 265 1164 l 403 1246 l 454 1203 l 369 1104 q 640 823 543 988 q 738 449 738 658 q 703 221 738 326 q 592 50 668 115 q 401 -15 517 -15 m 404 51 q 563 152 511 51 q 614 440 614 253 q 583 657 614 561 q 520 708 565 685 q 411 731 475 731 q 291 687 343 731 q 210 561 239 643 q 182 368 182 479 q 235 140 182 229 q 404 51 289 51 z "},"ď":{"ha":858,"x_min":64,"x_max":926,"o":"m 368 -15 q 217 27 286 -15 q 106 156 147 69 q 64 367 64 242 q 113 583 64 486 q 251 735 161 679 q 460 792 340 792 q 607 775 536 792 l 607 1050 l 463 1064 l 463 1114 l 690 1138 l 693 1138 l 719 1118 l 719 63 l 804 63 l 804 8 q 757 -3 797 7 q 671 -12 717 -12 q 626 -1 639 -12 q 613 47 613 10 l 613 96 q 508 17 569 49 q 368 -15 446 -15 m 414 72 q 527 101 474 72 q 607 164 581 129 l 607 675 q 549 708 596 694 q 450 722 503 722 q 258 637 331 722 q 186 378 186 551 q 250 147 186 222 q 414 72 314 72 m 815 835 l 811 843 q 819 979 819 918 q 804 1099 819 1067 l 811 1122 l 914 1122 q 926 1021 926 1085 q 913 926 926 988 q 882 835 900 864 l 815 835 z "},"đ":{"ha":856,"x_min":60,"x_max":817,"o":"m 603 1050 l 458 1064 l 458 1114 l 686 1138 l 689 1138 l 715 1118 l 715 956 l 817 956 l 817 889 l 715 889 l 715 63 l 800 63 l 800 8 q 752 -3 792 7 q 667 -12 713 -12 q 622 -1 635 -12 q 608 47 608 10 l 608 96 q 503 17 565 49 q 364 -15 442 -15 q 213 27 282 -15 q 101 156 143 69 q 60 367 60 242 q 108 583 60 486 q 247 735 157 679 q 456 792 336 792 q 603 775 532 792 l 603 889 l 421 889 l 421 956 l 603 956 l 603 1050 m 410 72 q 523 101 469 72 q 603 164 576 129 l 603 675 q 545 708 592 694 q 446 722 499 722 q 254 637 326 722 q 182 378 182 551 q 246 147 182 222 q 410 72 310 72 z "},"ḋ":{"ha":858,"x_min":64,"x_max":804,"o":"m 368 -15 q 217 27 286 -15 q 106 156 147 69 q 64 367 64 242 q 113 583 64 486 q 251 735 161 679 q 460 792 340 792 q 607 775 536 792 l 607 1050 l 463 1064 l 463 1114 l 690 1138 l 693 1138 l 719 1118 l 719 63 l 804 63 l 804 8 q 757 -3 797 7 q 671 -12 717 -12 q 626 -1 639 -12 q 613 47 613 10 l 613 96 q 508 17 569 49 q 368 -15 446 -15 m 414 72 q 527 101 474 72 q 607 164 581 129 l 607 675 q 549 708 596 694 q 450 722 503 722 q 258 637 331 722 q 186 378 186 551 q 250 147 186 222 q 414 72 314 72 m 246 901 q 171 981 171 901 q 194 1047 171 1021 q 258 1072 218 1072 q 318 1049 300 1072 q 336 993 336 1026 q 313 926 336 950 q 247 901 290 901 l 246 901 z "},"ḍ":{"ha":858,"x_min":64,"x_max":804,"o":"m 368 -15 q 217 27 286 -15 q 106 156 147 69 q 64 367 64 242 q 113 583 64 486 q 251 735 161 679 q 460 792 340 792 q 607 775 536 792 l 607 1050 l 463 1064 l 463 1114 l 690 1138 l 693 1138 l 719 1118 l 719 63 l 804 63 l 804 8 q 757 -3 797 7 q 671 -12 717 -12 q 626 -1 639 -12 q 613 47 613 10 l 613 96 q 508 17 569 49 q 368 -15 446 -15 m 414 72 q 527 101 474 72 q 607 164 581 129 l 607 675 q 549 708 596 694 q 450 722 503 722 q 258 637 331 722 q 186 378 186 551 q 250 147 186 222 q 414 72 314 72 m 419 -272 q 366 -248 386 -272 q 346 -189 346 -224 q 369 -121 346 -150 q 433 -92 392 -92 q 489 -117 468 -92 q 510 -175 510 -142 q 488 -245 510 -218 q 422 -272 465 -272 l 419 -272 z "},"ǳ":{"ha":1624,"x_min":64,"x_max":1568,"o":"m 368 -15 q 217 27 286 -15 q 106 156 147 69 q 64 367 64 242 q 113 583 64 486 q 251 735 161 679 q 460 792 340 792 q 607 775 536 792 l 607 1050 l 463 1064 l 463 1114 l 690 1138 l 693 1138 l 719 1118 l 719 63 l 804 63 l 804 8 q 757 -3 797 7 q 671 -12 717 -12 q 626 -1 639 -12 q 613 47 613 10 l 613 96 q 508 17 569 49 q 368 -15 446 -15 m 414 72 q 527 101 474 72 q 607 164 581 129 l 607 675 q 549 708 596 694 q 450 722 503 722 q 258 637 331 722 q 186 378 186 551 q 250 147 186 222 q 414 72 314 72 m 1053 689 l 1033 558 l 957 558 l 957 771 l 1535 771 l 1558 719 l 1126 150 l 1032 71 l 1443 83 l 1497 235 l 1568 226 l 1542 0 l 932 0 l 907 53 l 1344 618 l 1431 699 l 1053 689 z "},"ǆ":{"ha":1624,"x_min":64,"x_max":1568,"o":"m 368 -15 q 217 27 286 -15 q 106 156 147 69 q 64 367 64 242 q 113 583 64 486 q 251 735 161 679 q 460 792 340 792 q 607 775 536 792 l 607 1050 l 463 1064 l 463 1114 l 690 1138 l 693 1138 l 719 1118 l 719 63 l 804 63 l 804 8 q 757 -3 797 7 q 671 -12 717 -12 q 626 -1 639 -12 q 613 47 613 10 l 613 96 q 508 17 569 49 q 368 -15 446 -15 m 414 72 q 527 101 474 72 q 607 164 581 129 l 607 675 q 549 708 596 694 q 450 722 503 722 q 258 637 331 722 q 186 378 186 551 q 250 147 186 222 q 414 72 314 72 m 1053 689 l 1033 558 l 957 558 l 957 771 l 1535 771 l 1558 719 l 1126 150 l 1032 71 l 1443 83 l 1497 235 l 1568 226 l 1542 0 l 932 0 l 907 53 l 1344 618 l 1431 699 l 1053 689 m 1261 981 l 1458 1190 l 1501 1163 l 1314 892 l 1208 892 l 1019 1161 l 1068 1190 l 1261 981 z "},"e":{"ha":750,"x_min":65,"x_max":688,"o":"m 400 -15 q 152 95 239 -15 q 65 389 65 206 q 111 599 65 507 q 238 741 157 690 q 421 792 319 792 q 613 721 544 792 q 688 517 682 650 q 679 394 688 431 l 185 394 q 251 156 185 249 q 436 64 317 64 q 556 85 494 64 q 650 135 617 106 l 672 83 q 555 13 632 42 q 400 -15 478 -15 m 563 460 q 567 521 567 489 q 523 667 565 613 q 393 721 481 721 q 186 460 203 721 l 563 460 z "},"é":{"ha":750,"x_min":65,"x_max":688,"o":"m 400 -15 q 152 95 239 -15 q 65 389 65 206 q 111 599 65 507 q 238 741 157 690 q 421 792 319 792 q 613 721 544 792 q 688 517 682 650 q 679 394 688 431 l 185 394 q 251 156 185 249 q 436 64 317 64 q 556 85 494 64 q 650 135 617 106 l 672 83 q 555 13 632 42 q 400 -15 478 -15 m 563 460 q 567 521 567 489 q 523 667 565 613 q 393 721 481 721 q 186 460 203 721 l 563 460 m 310 953 l 525 1221 l 619 1144 q 497 1020 592 1103 q 353 915 401 938 l 310 953 z "},"ĕ":{"ha":750,"x_min":65,"x_max":688,"o":"m 400 -15 q 152 95 239 -15 q 65 389 65 206 q 111 599 65 507 q 238 741 157 690 q 421 792 319 792 q 613 721 544 792 q 688 517 682 650 q 679 394 688 431 l 185 394 q 251 156 185 249 q 436 64 317 64 q 556 85 494 64 q 650 135 617 106 l 672 83 q 555 13 632 42 q 400 -15 478 -15 m 563 460 q 567 521 567 489 q 523 667 565 613 q 393 721 481 721 q 186 460 203 721 l 563 460 m 408 925 q 288 957 339 925 q 210 1041 238 989 q 183 1154 183 1093 q 186 1186 183 1175 l 249 1186 q 250 1163 249 1172 q 294 1065 256 1108 q 408 1021 332 1021 q 522 1065 485 1021 q 563 1163 558 1108 q 564 1186 565 1181 l 625 1186 q 628 1156 628 1164 q 601 1042 628 1096 q 524 957 574 989 q 408 925 474 925 z "},"ě":{"ha":750,"x_min":65,"x_max":688,"o":"m 400 -15 q 152 95 239 -15 q 65 389 65 206 q 111 599 65 507 q 238 741 157 690 q 421 792 319 792 q 613 721 544 792 q 688 517 682 650 q 679 394 688 431 l 185 394 q 251 156 185 249 q 436 64 317 64 q 556 85 494 64 q 650 135 617 106 l 672 83 q 555 13 632 42 q 400 -15 478 -15 m 563 460 q 567 521 567 489 q 523 667 565 613 q 393 721 481 721 q 186 460 203 721 l 563 460 m 404 981 l 601 1190 l 644 1163 l 457 892 l 351 892 l 163 1161 l 211 1190 l 404 981 z "},"ȩ":{"ha":750,"x_min":65,"x_max":688,"o":"m 65 389 q 111 599 65 507 q 238 741 157 690 q 421 792 319 792 q 613 721 544 792 q 688 517 682 650 q 679 394 688 431 l 185 394 q 251 156 185 249 q 436 64 317 64 q 556 85 494 64 q 650 135 617 106 l 672 83 q 563 16 633 44 q 417 -15 492 -12 q 468 -94 446 -47 q 490 -189 490 -142 q 447 -294 490 -262 q 321 -326 404 -326 q 269 -321 297 -326 q 222 -308 242 -315 l 221 -226 q 254 -234 235 -231 q 288 -237 274 -237 q 368 -218 343 -237 q 393 -139 393 -199 q 381 -73 393 -107 q 354 -12 369 -39 q 140 112 214 4 q 65 389 65 219 m 563 460 q 567 521 567 489 q 523 667 565 613 q 393 721 481 721 q 186 460 203 721 l 563 460 z "},"ê":{"ha":750,"x_min":65,"x_max":688,"o":"m 400 -15 q 152 95 239 -15 q 65 389 65 206 q 111 599 65 507 q 238 741 157 690 q 421 792 319 792 q 613 721 544 792 q 688 517 682 650 q 679 394 688 431 l 185 394 q 251 156 185 249 q 436 64 317 64 q 556 85 494 64 q 650 135 617 106 l 672 83 q 555 13 632 42 q 400 -15 478 -15 m 563 460 q 567 521 567 489 q 523 667 565 613 q 393 721 481 721 q 186 460 203 721 l 563 460 m 457 1192 l 644 921 l 596 892 l 404 1101 l 204 892 l 160 919 l 353 1192 l 457 1192 z "},"ế":{"ha":750,"x_min":65,"x_max":836,"o":"m 400 -15 q 152 95 239 -15 q 65 389 65 206 q 111 599 65 507 q 238 741 157 690 q 421 792 319 792 q 613 721 544 792 q 688 517 682 650 q 679 394 688 431 l 185 394 q 251 156 185 249 q 436 64 317 64 q 556 85 494 64 q 650 135 617 106 l 672 83 q 555 13 632 42 q 400 -15 478 -15 m 563 460 q 567 521 567 489 q 523 667 565 613 q 393 721 481 721 q 186 460 203 721 l 563 460 m 569 1131 l 757 1360 l 836 1292 q 729 1183 811 1254 q 607 1093 647 1111 l 569 1131 m 454 1140 l 624 931 l 579 904 l 406 1058 l 224 904 l 183 929 l 358 1140 l 454 1140 z "},"ệ":{"ha":750,"x_min":65,"x_max":688,"o":"m 400 -15 q 152 95 239 -15 q 65 389 65 206 q 111 599 65 507 q 238 741 157 690 q 421 792 319 792 q 613 721 544 792 q 688 517 682 650 q 679 394 688 431 l 185 394 q 251 156 185 249 q 436 64 317 64 q 556 85 494 64 q 650 135 617 106 l 672 83 q 555 13 632 42 q 400 -15 478 -15 m 563 460 q 567 521 567 489 q 523 667 565 613 q 393 721 481 721 q 186 460 203 721 l 563 460 m 365 -272 q 312 -248 332 -272 q 292 -189 292 -224 q 315 -121 292 -150 q 379 -92 338 -92 q 435 -117 414 -92 q 456 -175 456 -142 q 433 -245 456 -218 q 368 -272 411 -272 l 365 -272 m 457 1192 l 644 921 l 596 892 l 404 1101 l 204 892 l 160 919 l 353 1192 l 457 1192 z "},"ề":{"ha":750,"x_min":65,"x_max":710,"o":"m 400 -15 q 152 95 239 -15 q 65 389 65 206 q 111 599 65 507 q 238 741 157 690 q 421 792 319 792 q 613 721 544 792 q 688 517 682 650 q 679 394 688 431 l 185 394 q 251 156 185 249 q 436 64 317 64 q 556 85 494 64 q 650 135 617 106 l 672 83 q 555 13 632 42 q 400 -15 478 -15 m 563 460 q 567 521 567 489 q 523 667 565 613 q 393 721 481 721 q 186 460 203 721 l 563 460 m 672 1140 q 581 1201 638 1156 q 479 1297 525 1246 l 558 1365 l 710 1175 l 672 1140 m 454 1140 l 624 931 l 579 904 l 406 1058 l 224 904 l 183 929 l 358 1140 l 454 1140 z "},"ể":{"ha":750,"x_min":65,"x_max":746,"o":"m 400 -15 q 152 95 239 -15 q 65 389 65 206 q 111 599 65 507 q 238 741 157 690 q 421 792 319 792 q 613 721 544 792 q 688 517 682 650 q 679 394 688 431 l 185 394 q 251 156 185 249 q 436 64 317 64 q 556 85 494 64 q 650 135 617 106 l 672 83 q 555 13 632 42 q 400 -15 478 -15 m 563 460 q 567 521 567 489 q 523 667 565 613 q 393 721 481 721 q 186 460 203 721 l 563 460 m 599 1060 q 583 1094 592 1069 q 574 1129 574 1118 q 584 1157 574 1146 q 617 1183 594 1168 q 649 1210 639 1200 q 658 1236 658 1221 q 640 1276 658 1264 q 583 1289 622 1289 q 547 1285 565 1289 q 522 1276 529 1281 l 522 1356 q 550 1363 525 1360 q 607 1367 575 1367 q 712 1333 678 1367 q 746 1247 746 1300 q 727 1190 746 1214 q 688 1149 708 1165 q 663 1128 668 1132 q 651 1101 651 1119 q 657 1071 651 1088 l 599 1060 m 454 1140 l 624 931 l 579 904 l 406 1058 l 224 904 l 183 929 l 358 1140 l 454 1140 z "},"ễ":{"ha":750,"x_min":65,"x_max":688,"o":"m 400 -15 q 152 95 239 -15 q 65 389 65 206 q 111 599 65 507 q 238 741 157 690 q 421 792 319 792 q 613 721 544 792 q 688 517 682 650 q 679 394 688 431 l 185 394 q 251 156 185 249 q 436 64 317 64 q 556 85 494 64 q 650 135 617 106 l 672 83 q 555 13 632 42 q 400 -15 478 -15 m 563 460 q 567 521 567 489 q 523 667 565 613 q 393 721 481 721 q 186 460 203 721 l 563 460 m 203 1239 q 249 1323 214 1289 q 332 1357 283 1357 q 381 1347 361 1357 q 422 1317 400 1336 q 456 1293 443 1300 q 485 1286 468 1286 q 524 1301 507 1286 q 549 1338 540 1317 l 594 1319 q 549 1235 583 1269 q 465 1201 514 1201 q 419 1211 438 1201 q 376 1240 400 1221 q 344 1265 357 1257 q 313 1272 331 1272 q 276 1259 289 1272 q 249 1221 264 1246 l 203 1239 m 454 1140 l 624 931 l 579 904 l 406 1058 l 224 904 l 183 929 l 358 1140 l 454 1140 z "},"ë":{"ha":750,"x_min":65,"x_max":688,"o":"m 400 -15 q 152 95 239 -15 q 65 389 65 206 q 111 599 65 507 q 238 741 157 690 q 421 792 319 792 q 613 721 544 792 q 688 517 682 650 q 679 394 688 431 l 185 394 q 251 156 185 249 q 436 64 317 64 q 556 85 494 64 q 650 135 617 106 l 672 83 q 555 13 632 42 q 400 -15 478 -15 m 563 460 q 567 521 567 489 q 523 667 565 613 q 393 721 481 721 q 186 460 203 721 l 563 460 m 246 919 q 194 942 214 919 q 175 999 175 964 q 197 1063 175 1036 q 257 1090 218 1090 q 310 1066 290 1090 q 331 1010 331 1042 q 308 945 331 971 q 246 919 286 919 m 547 919 q 497 942 517 919 q 478 999 478 965 q 499 1063 478 1036 q 560 1090 521 1090 q 613 1066 593 1090 q 633 1010 633 1042 q 611 945 633 971 q 547 919 589 919 z "},"ė":{"ha":750,"x_min":65,"x_max":688,"o":"m 400 -15 q 152 95 239 -15 q 65 389 65 206 q 111 599 65 507 q 238 741 157 690 q 421 792 319 792 q 613 721 544 792 q 688 517 682 650 q 679 394 688 431 l 185 394 q 251 156 185 249 q 436 64 317 64 q 556 85 494 64 q 650 135 617 106 l 672 83 q 555 13 632 42 q 400 -15 478 -15 m 563 460 q 567 521 567 489 q 523 667 565 613 q 393 721 481 721 q 186 460 203 721 l 563 460 m 401 917 q 326 996 326 917 q 350 1062 326 1036 q 414 1088 374 1088 q 474 1065 456 1088 q 492 1008 492 1042 q 469 941 492 965 q 403 917 446 917 l 401 917 z "},"ẹ":{"ha":750,"x_min":65,"x_max":688,"o":"m 400 -15 q 152 95 239 -15 q 65 389 65 206 q 111 599 65 507 q 238 741 157 690 q 421 792 319 792 q 613 721 544 792 q 688 517 682 650 q 679 394 688 431 l 185 394 q 251 156 185 249 q 436 64 317 64 q 556 85 494 64 q 650 135 617 106 l 672 83 q 555 13 632 42 q 400 -15 478 -15 m 563 460 q 567 521 567 489 q 523 667 565 613 q 393 721 481 721 q 186 460 203 721 l 563 460 m 365 -272 q 312 -248 332 -272 q 292 -189 292 -224 q 315 -121 292 -150 q 379 -92 338 -92 q 435 -117 414 -92 q 456 -175 456 -142 q 433 -245 456 -218 q 368 -272 411 -272 l 365 -272 z "},"è":{"ha":750,"x_min":65,"x_max":688,"o":"m 400 -15 q 152 95 239 -15 q 65 389 65 206 q 111 599 65 507 q 238 741 157 690 q 421 792 319 792 q 613 721 544 792 q 688 517 682 650 q 679 394 688 431 l 185 394 q 251 156 185 249 q 436 64 317 64 q 556 85 494 64 q 650 135 617 106 l 672 83 q 555 13 632 42 q 400 -15 478 -15 m 563 460 q 567 521 567 489 q 523 667 565 613 q 393 721 481 721 q 186 460 203 721 l 563 460 m 444 915 q 308 1017 407 931 q 182 1144 208 1104 l 269 1219 l 486 953 l 446 915 l 444 915 z "},"ẻ":{"ha":750,"x_min":65,"x_max":688,"o":"m 400 -15 q 152 95 239 -15 q 65 389 65 206 q 111 599 65 507 q 238 741 157 690 q 421 792 319 792 q 613 721 544 792 q 688 517 682 650 q 679 394 688 431 l 185 394 q 251 156 185 249 q 436 64 317 64 q 556 85 494 64 q 650 135 617 106 l 672 83 q 555 13 632 42 q 400 -15 478 -15 m 563 460 q 567 521 567 489 q 523 667 565 613 q 393 721 481 721 q 186 460 203 721 l 563 460 m 383 867 q 364 899 374 879 q 354 936 354 919 q 364 957 354 949 q 393 978 374 965 q 428 1003 417 992 q 439 1032 439 1014 q 419 1088 439 1067 q 360 1108 399 1108 q 300 1094 325 1108 l 296 1168 q 382 1189 340 1189 q 497 1152 456 1189 q 538 1050 538 1115 q 521 996 538 1015 q 471 956 504 976 q 438 932 450 942 q 429 903 429 924 q 435 867 429 889 l 383 867 z "},"ē":{"ha":750,"x_min":65,"x_max":688,"o":"m 400 -15 q 152 95 239 -15 q 65 389 65 206 q 111 599 65 507 q 238 741 157 690 q 421 792 319 792 q 613 721 544 792 q 688 517 682 650 q 679 394 688 431 l 185 394 q 251 156 185 249 q 436 64 317 64 q 556 85 494 64 q 650 135 617 106 l 672 83 q 555 13 632 42 q 400 -15 478 -15 m 563 460 q 567 521 567 489 q 523 667 565 613 q 393 721 481 721 q 186 460 203 721 l 563 460 m 586 938 l 224 938 l 224 1022 l 586 1022 l 586 938 z "},"ę":{"ha":750,"x_min":65,"x_max":688,"o":"m 399 -337 q 289 -304 335 -337 q 243 -208 243 -271 q 286 -104 243 -151 q 400 -15 329 -57 q 152 95 239 -15 q 65 389 65 206 q 111 599 65 507 q 238 741 157 690 q 421 792 319 792 q 613 721 544 792 q 688 517 682 650 q 679 394 688 431 l 185 394 q 251 156 185 249 q 436 64 317 64 q 556 85 494 64 q 650 135 617 106 l 672 83 q 535 7 624 35 q 408 -76 469 -19 q 347 -176 347 -133 q 372 -245 347 -225 q 449 -265 397 -265 q 523 -250 489 -265 q 597 -211 557 -235 l 599 -274 q 514 -320 556 -303 q 399 -337 472 -337 m 563 460 q 567 521 567 489 q 523 667 565 613 q 393 721 481 721 q 186 460 203 721 l 563 460 z "},"ẽ":{"ha":750,"x_min":65,"x_max":688,"o":"m 400 -15 q 152 95 239 -15 q 65 389 65 206 q 111 599 65 507 q 238 741 157 690 q 421 792 319 792 q 613 721 544 792 q 688 517 682 650 q 679 394 688 431 l 185 394 q 251 156 185 249 q 436 64 317 64 q 556 85 494 64 q 650 135 617 106 l 672 83 q 555 13 632 42 q 400 -15 478 -15 m 563 460 q 567 521 567 489 q 523 667 565 613 q 393 721 481 721 q 186 460 203 721 l 563 460 m 147 971 q 201 1067 161 1026 q 307 1108 240 1108 q 376 1092 349 1108 q 440 1042 404 1075 q 481 1007 464 1018 q 517 996 497 996 q 578 1025 556 996 q 604 1082 600 1054 l 668 1053 q 511 913 625 913 q 444 929 471 913 q 383 978 417 946 q 340 1014 357 1003 q 303 1025 324 1025 q 244 1003 264 1025 q 216 963 225 982 q 204 939 207 943 l 147 971 z "},"ə":{"ha":750,"x_min":63,"x_max":685,"o":"m 350 786 q 598 676 511 786 q 685 382 685 565 q 639 172 685 264 q 512 30 593 81 q 329 -21 431 -21 q 137 50 206 -21 q 63 254 68 121 q 71 376 63 340 l 565 376 q 499 615 565 522 q 314 707 433 707 q 194 686 256 707 q 100 636 133 665 l 78 688 q 195 758 118 729 q 350 786 272 786 m 188 311 q 183 250 183 282 q 227 104 185 158 q 357 50 269 50 q 564 311 547 50 l 188 311 z "},"f":{"ha":549,"x_min":43,"x_max":560,"o":"m 183 688 l 43 688 l 43 743 l 183 769 l 183 838 q 226 991 183 921 q 338 1103 269 1061 q 482 1144 407 1144 q 560 1133 526 1144 l 560 1019 q 515 1036 549 1028 q 436 1044 481 1044 q 329 1006 363 1044 q 296 874 296 967 l 296 769 l 497 769 l 497 688 l 296 688 l 296 69 l 454 60 l 454 0 l 61 0 l 61 60 l 183 71 l 183 688 z "},"ḟ":{"ha":549,"x_min":43,"x_max":560,"o":"m 183 688 l 43 688 l 43 743 l 183 769 l 183 838 q 226 991 183 921 q 338 1103 269 1061 q 482 1144 407 1144 q 560 1133 526 1144 l 560 1019 q 515 1036 549 1028 q 436 1044 481 1044 q 329 1006 363 1044 q 296 874 296 967 l 296 769 l 497 769 l 497 688 l 296 688 l 296 69 l 454 60 l 454 0 l 61 0 l 61 60 l 183 71 l 183 688 m 140 1003 q 65 1082 65 1003 q 89 1148 65 1122 q 153 1174 113 1174 q 213 1151 194 1174 q 231 1094 231 1128 q 208 1027 231 1051 q 142 1003 185 1003 l 140 1003 z "},"g":{"ha":829,"x_min":64,"x_max":814,"o":"m 392 -375 q 64 -167 64 -375 q 102 -53 64 -104 q 193 28 140 -1 q 128 143 128 63 q 157 240 128 194 q 232 308 186 285 q 130 395 167 339 q 93 526 93 451 q 138 667 93 607 q 253 760 182 728 q 403 792 325 792 q 610 735 532 792 q 674 773 631 754 q 768 792 718 792 l 814 792 l 814 689 l 656 689 q 696 554 696 633 q 654 409 696 472 q 542 311 613 346 q 388 276 472 276 q 283 289 331 276 q 244 244 258 269 q 229 192 229 218 q 263 118 229 139 q 382 97 297 97 l 546 97 q 737 47 675 97 q 799 -93 799 -3 q 744 -233 799 -168 q 597 -336 690 -297 q 392 -375 503 -375 m 401 344 q 578 539 578 344 q 394 724 578 724 q 211 542 211 724 q 258 399 211 454 q 401 344 306 344 m 399 -304 q 542 -283 474 -304 q 651 -220 610 -261 q 693 -125 693 -179 q 680 -56 693 -82 q 628 -15 667 -29 q 518 0 590 0 l 346 0 q 244 8 279 0 q 176 -144 176 -57 q 226 -264 176 -224 q 399 -304 276 -304 z "},"ğ":{"ha":829,"x_min":64,"x_max":814,"o":"m 392 -375 q 64 -167 64 -375 q 102 -53 64 -104 q 193 28 140 -1 q 128 143 128 63 q 157 240 128 194 q 232 308 186 285 q 130 395 167 339 q 93 526 93 451 q 138 667 93 607 q 253 760 182 728 q 403 792 325 792 q 610 735 532 792 q 674 773 631 754 q 768 792 718 792 l 814 792 l 814 689 l 656 689 q 696 554 696 633 q 654 409 696 472 q 542 311 613 346 q 388 276 472 276 q 283 289 331 276 q 244 244 258 269 q 229 192 229 218 q 263 118 229 139 q 382 97 297 97 l 546 97 q 737 47 675 97 q 799 -93 799 -3 q 744 -233 799 -168 q 597 -336 690 -297 q 392 -375 503 -375 m 401 344 q 578 539 578 344 q 394 724 578 724 q 211 542 211 724 q 258 399 211 454 q 401 344 306 344 m 399 -304 q 542 -283 474 -304 q 651 -220 610 -261 q 693 -125 693 -179 q 680 -56 693 -82 q 628 -15 667 -29 q 518 0 590 0 l 346 0 q 244 8 279 0 q 176 -144 176 -57 q 226 -264 176 -224 q 399 -304 276 -304 m 432 925 q 312 957 363 925 q 234 1041 261 989 q 207 1154 207 1093 q 210 1186 207 1175 l 272 1186 q 274 1163 272 1172 q 317 1065 279 1108 q 432 1021 356 1021 q 545 1065 508 1021 q 586 1163 582 1108 q 588 1186 589 1181 l 649 1186 q 651 1156 651 1164 q 624 1042 651 1096 q 547 957 597 989 q 432 925 497 925 z "},"ǧ":{"ha":829,"x_min":64,"x_max":814,"o":"m 392 -375 q 64 -167 64 -375 q 102 -53 64 -104 q 193 28 140 -1 q 128 143 128 63 q 157 240 128 194 q 232 308 186 285 q 130 395 167 339 q 93 526 93 451 q 138 667 93 607 q 253 760 182 728 q 403 792 325 792 q 610 735 532 792 q 674 773 631 754 q 768 792 718 792 l 814 792 l 814 689 l 656 689 q 696 554 696 633 q 654 409 696 472 q 542 311 613 346 q 388 276 472 276 q 283 289 331 276 q 244 244 258 269 q 229 192 229 218 q 263 118 229 139 q 382 97 297 97 l 546 97 q 737 47 675 97 q 799 -93 799 -3 q 744 -233 799 -168 q 597 -336 690 -297 q 392 -375 503 -375 m 401 344 q 578 539 578 344 q 394 724 578 724 q 211 542 211 724 q 258 399 211 454 q 401 344 306 344 m 399 -304 q 542 -283 474 -304 q 651 -220 610 -261 q 693 -125 693 -179 q 680 -56 693 -82 q 628 -15 667 -29 q 518 0 590 0 l 346 0 q 244 8 279 0 q 176 -144 176 -57 q 226 -264 176 -224 q 399 -304 276 -304 m 428 981 l 625 1190 l 668 1163 l 481 892 l 375 892 l 186 1161 l 235 1190 l 428 981 z "},"ĝ":{"ha":829,"x_min":64,"x_max":814,"o":"m 392 -375 q 64 -167 64 -375 q 102 -53 64 -104 q 193 28 140 -1 q 128 143 128 63 q 157 240 128 194 q 232 308 186 285 q 130 395 167 339 q 93 526 93 451 q 138 667 93 607 q 253 760 182 728 q 403 792 325 792 q 610 735 532 792 q 674 773 631 754 q 768 792 718 792 l 814 792 l 814 689 l 656 689 q 696 554 696 633 q 654 409 696 472 q 542 311 613 346 q 388 276 472 276 q 283 289 331 276 q 244 244 258 269 q 229 192 229 218 q 263 118 229 139 q 382 97 297 97 l 546 97 q 737 47 675 97 q 799 -93 799 -3 q 744 -233 799 -168 q 597 -336 690 -297 q 392 -375 503 -375 m 401 344 q 578 539 578 344 q 394 724 578 724 q 211 542 211 724 q 258 399 211 454 q 401 344 306 344 m 399 -304 q 542 -283 474 -304 q 651 -220 610 -261 q 693 -125 693 -179 q 680 -56 693 -82 q 628 -15 667 -29 q 518 0 590 0 l 346 0 q 244 8 279 0 q 176 -144 176 -57 q 226 -264 176 -224 q 399 -304 276 -304 m 481 1192 l 668 921 l 619 892 l 428 1101 l 228 892 l 183 919 l 376 1192 l 481 1192 z "},"ģ":{"ha":829,"x_min":64,"x_max":814,"o":"m 392 -375 q 64 -167 64 -375 q 102 -53 64 -104 q 193 28 140 -1 q 128 143 128 63 q 157 240 128 194 q 232 308 186 285 q 130 395 167 339 q 93 526 93 451 q 138 667 93 607 q 253 760 182 728 q 403 792 325 792 q 610 735 532 792 q 674 773 631 754 q 768 792 718 792 l 814 792 l 814 689 l 656 689 q 696 554 696 633 q 654 409 696 472 q 542 311 613 346 q 388 276 472 276 q 283 289 331 276 q 244 244 258 269 q 229 192 229 218 q 263 118 229 139 q 382 97 297 97 l 546 97 q 737 47 675 97 q 799 -93 799 -3 q 744 -233 799 -168 q 597 -336 690 -297 q 392 -375 503 -375 m 401 344 q 578 539 578 344 q 394 724 578 724 q 211 542 211 724 q 258 399 211 454 q 401 344 306 344 m 399 -304 q 542 -283 474 -304 q 651 -220 610 -261 q 693 -125 693 -179 q 680 -56 693 -82 q 628 -15 667 -29 q 518 0 590 0 l 346 0 q 244 8 279 0 q 176 -144 176 -57 q 226 -264 176 -224 q 399 -304 276 -304 m 435 903 q 373 932 396 903 q 350 1014 350 961 q 371 1105 350 1064 q 417 1171 392 1146 q 454 1200 442 1196 l 456 1200 l 493 1174 l 493 1165 q 459 1126 472 1156 q 446 1065 446 1097 q 453 1036 446 1047 q 475 1015 461 1025 q 494 995 488 1007 q 501 964 501 983 q 481 917 501 931 q 440 903 460 903 l 435 903 z "},"ġ":{"ha":829,"x_min":64,"x_max":814,"o":"m 392 -375 q 64 -167 64 -375 q 102 -53 64 -104 q 193 28 140 -1 q 128 143 128 63 q 157 240 128 194 q 232 308 186 285 q 130 395 167 339 q 93 526 93 451 q 138 667 93 607 q 253 760 182 728 q 403 792 325 792 q 610 735 532 792 q 674 773 631 754 q 768 792 718 792 l 814 792 l 814 689 l 656 689 q 696 554 696 633 q 654 409 696 472 q 542 311 613 346 q 388 276 472 276 q 283 289 331 276 q 244 244 258 269 q 229 192 229 218 q 263 118 229 139 q 382 97 297 97 l 546 97 q 737 47 675 97 q 799 -93 799 -3 q 744 -233 799 -168 q 597 -336 690 -297 q 392 -375 503 -375 m 401 344 q 578 539 578 344 q 394 724 578 724 q 211 542 211 724 q 258 399 211 454 q 401 344 306 344 m 399 -304 q 542 -283 474 -304 q 651 -220 610 -261 q 693 -125 693 -179 q 680 -56 693 -82 q 628 -15 667 -29 q 518 0 590 0 l 346 0 q 244 8 279 0 q 176 -144 176 -57 q 226 -264 176 -224 q 399 -304 276 -304 m 425 917 q 350 996 350 917 q 374 1062 350 1036 q 438 1088 397 1088 q 497 1065 479 1088 q 515 1008 515 1042 q 492 941 515 965 q 426 917 469 917 l 425 917 z "},"ḡ":{"ha":829,"x_min":64,"x_max":814,"o":"m 392 -375 q 64 -167 64 -375 q 102 -53 64 -104 q 193 28 140 -1 q 128 143 128 63 q 157 240 128 194 q 232 308 186 285 q 130 395 167 339 q 93 526 93 451 q 138 667 93 607 q 253 760 182 728 q 403 792 325 792 q 610 735 532 792 q 674 773 631 754 q 768 792 718 792 l 814 792 l 814 689 l 656 689 q 696 554 696 633 q 654 409 696 472 q 542 311 613 346 q 388 276 472 276 q 283 289 331 276 q 244 244 258 269 q 229 192 229 218 q 263 118 229 139 q 382 97 297 97 l 546 97 q 737 47 675 97 q 799 -93 799 -3 q 744 -233 799 -168 q 597 -336 690 -297 q 392 -375 503 -375 m 401 344 q 578 539 578 344 q 394 724 578 724 q 211 542 211 724 q 258 399 211 454 q 401 344 306 344 m 399 -304 q 542 -283 474 -304 q 651 -220 610 -261 q 693 -125 693 -179 q 680 -56 693 -82 q 628 -15 667 -29 q 518 0 590 0 l 346 0 q 244 8 279 0 q 176 -144 176 -57 q 226 -264 176 -224 q 399 -304 276 -304 m 610 938 l 247 938 l 247 1022 l 610 1022 l 610 938 z "},"h":{"ha":906,"x_min":19,"x_max":860,"o":"m 143 1050 l 19 1063 l 19 1114 l 225 1138 l 228 1138 l 254 1119 l 254 789 l 251 674 q 376 751 296 714 q 535 789 457 789 q 671 756 622 789 q 739 652 719 722 q 758 463 758 582 l 758 71 l 860 60 l 860 0 l 549 0 l 549 60 l 646 71 l 646 464 q 634 603 646 553 q 588 678 622 653 q 486 703 553 703 q 367 676 431 703 q 254 611 303 649 l 254 71 l 357 60 l 357 0 l 56 0 l 56 60 l 143 69 l 143 1050 z "},"ħ":{"ha":919,"x_min":10,"x_max":857,"o":"m 139 1050 l 17 1063 l 17 1114 l 221 1138 l 225 1138 l 251 1119 l 251 944 l 438 944 l 438 878 l 251 878 l 251 789 l 247 674 q 374 751 293 714 q 532 789 454 789 q 667 756 619 789 q 735 652 715 722 q 754 463 754 582 l 754 71 l 857 60 l 857 0 l 546 0 l 546 60 l 643 71 l 643 464 q 631 602 643 551 q 585 678 619 653 q 483 703 550 703 q 364 676 428 703 q 251 611 300 649 l 251 71 l 354 60 l 354 0 l 53 0 l 53 60 l 139 69 l 139 878 l 10 878 l 10 944 l 139 944 l 139 1050 z "},"ĥ":{"ha":906,"x_min":-53,"x_max":860,"o":"m 143 1050 l 19 1063 l 19 1114 l 225 1138 l 228 1138 l 254 1119 l 254 789 l 251 674 q 376 751 296 714 q 535 789 457 789 q 671 756 622 789 q 739 652 719 722 q 758 463 758 582 l 758 71 l 860 60 l 860 0 l 549 0 l 549 60 l 646 71 l 646 464 q 634 603 646 553 q 588 678 622 653 q 486 703 553 703 q 367 676 431 703 q 254 611 303 649 l 254 71 l 357 60 l 357 0 l 56 0 l 56 60 l 143 69 l 143 1050 m 229 1446 l 408 1246 l 358 1215 l 178 1363 l -7 1215 l -53 1244 l 125 1446 l 229 1446 z "},"ḥ":{"ha":906,"x_min":19,"x_max":860,"o":"m 143 1050 l 19 1063 l 19 1114 l 225 1138 l 228 1138 l 254 1119 l 254 789 l 251 674 q 376 751 296 714 q 535 789 457 789 q 671 756 622 789 q 739 652 719 722 q 758 463 758 582 l 758 71 l 860 60 l 860 0 l 549 0 l 549 60 l 646 71 l 646 464 q 634 603 646 553 q 588 678 622 653 q 486 703 553 703 q 367 676 431 703 q 254 611 303 649 l 254 71 l 357 60 l 357 0 l 56 0 l 56 60 l 143 69 l 143 1050 m 443 -272 q 390 -248 410 -272 q 369 -189 369 -224 q 392 -121 369 -150 q 457 -92 415 -92 q 513 -117 492 -92 q 533 -175 533 -142 q 511 -245 533 -218 q 446 -272 489 -272 l 443 -272 z "},"i":{"ha":450,"x_min":58,"x_max":414,"o":"m 225 917 q 150 996 150 917 q 174 1062 150 1036 q 238 1088 197 1088 q 297 1065 279 1088 q 315 1008 315 1042 q 292 941 315 965 q 226 917 269 917 l 225 917 m 181 679 l 72 703 l 72 765 l 263 788 l 265 788 l 293 765 l 293 69 l 414 60 l 414 0 l 58 0 l 58 60 l 181 71 l 181 679 z "},"ı":{"ha":450,"x_min":58,"x_max":414,"o":"m 181 679 l 72 703 l 72 765 l 263 788 l 265 788 l 293 765 l 293 69 l 414 60 l 414 0 l 58 0 l 58 60 l 181 71 l 181 679 z "},"í":{"ha":450,"x_min":58,"x_max":440,"o":"m 181 679 l 72 703 l 72 765 l 263 788 l 265 788 l 293 765 l 293 69 l 414 60 l 414 0 l 58 0 l 58 60 l 181 71 l 181 679 m 131 953 l 346 1221 l 440 1144 q 317 1020 413 1103 q 174 915 222 938 l 131 953 z "},"ĭ":{"ha":450,"x_min":4,"x_max":449,"o":"m 181 679 l 72 703 l 72 765 l 263 788 l 265 788 l 293 765 l 293 69 l 414 60 l 414 0 l 58 0 l 58 60 l 181 71 l 181 679 m 229 925 q 109 957 160 925 q 31 1041 58 989 q 4 1154 4 1093 q 7 1186 4 1175 l 69 1186 q 71 1163 69 1172 q 115 1065 76 1108 q 229 1021 153 1021 q 342 1065 306 1021 q 383 1163 379 1108 q 385 1186 386 1181 l 446 1186 q 449 1156 449 1164 q 422 1042 449 1096 q 344 957 394 989 q 229 925 294 925 z "},"ǐ":{"ha":450,"x_min":-17,"x_max":465,"o":"m 181 679 l 72 703 l 72 765 l 263 788 l 265 788 l 293 765 l 293 69 l 414 60 l 414 0 l 58 0 l 58 60 l 181 71 l 181 679 m 225 981 l 422 1190 l 465 1163 l 278 892 l 172 892 l -17 1161 l 32 1190 l 225 981 z "},"î":{"ha":450,"x_min":-19,"x_max":465,"o":"m 181 679 l 72 703 l 72 765 l 263 788 l 265 788 l 293 765 l 293 69 l 414 60 l 414 0 l 58 0 l 58 60 l 181 71 l 181 679 m 278 1192 l 465 921 l 417 892 l 225 1101 l 25 892 l -19 919 l 174 1192 l 278 1192 z "},"ï":{"ha":450,"x_min":-4,"x_max":454,"o":"m 181 679 l 72 703 l 72 765 l 263 788 l 265 788 l 293 765 l 293 69 l 414 60 l 414 0 l 58 0 l 58 60 l 181 71 l 181 679 m 67 919 q 15 942 35 919 q -4 999 -4 964 q 17 1063 -4 1036 q 78 1090 39 1090 q 131 1066 111 1090 q 151 1010 151 1042 q 129 945 151 971 q 67 919 107 919 m 368 919 q 318 942 338 919 q 299 999 299 965 q 320 1063 299 1036 q 381 1090 342 1090 q 434 1066 414 1090 q 454 1010 454 1042 q 432 945 454 971 q 368 919 410 919 z "},"ị":{"ha":450,"x_min":58,"x_max":414,"o":"m 181 679 l 72 703 l 72 765 l 263 788 l 265 788 l 293 765 l 293 69 l 414 60 l 414 0 l 58 0 l 58 60 l 181 71 l 181 679 m 222 917 q 147 996 147 917 q 171 1062 147 1036 q 235 1088 194 1088 q 294 1065 276 1088 q 313 1008 313 1042 q 290 941 313 965 q 224 917 267 917 l 222 917 m 215 -272 q 162 -248 182 -272 q 142 -189 142 -224 q 165 -121 142 -150 q 229 -92 188 -92 q 285 -117 264 -92 q 306 -175 306 -142 q 283 -245 306 -218 q 218 -272 261 -272 l 215 -272 z "},"ì":{"ha":450,"x_min":3,"x_max":414,"o":"m 181 679 l 72 703 l 72 765 l 263 788 l 265 788 l 293 765 l 293 69 l 414 60 l 414 0 l 58 0 l 58 60 l 181 71 l 181 679 m 265 915 q 128 1017 228 931 q 3 1144 29 1104 l 90 1219 l 307 953 l 267 915 l 265 915 z "},"ỉ":{"ha":450,"x_min":58,"x_max":414,"o":"m 181 679 l 72 703 l 72 765 l 263 788 l 265 788 l 293 765 l 293 69 l 414 60 l 414 0 l 58 0 l 58 60 l 181 71 l 181 679 m 204 867 q 185 899 194 879 q 175 936 175 919 q 185 957 175 949 q 214 978 194 965 q 249 1003 238 992 q 260 1032 260 1014 q 240 1088 260 1067 q 181 1108 219 1108 q 121 1094 146 1108 l 117 1168 q 203 1189 161 1189 q 317 1152 276 1189 q 358 1050 358 1115 q 342 996 358 1015 q 292 956 325 976 q 258 932 271 942 q 250 903 250 924 q 256 867 250 889 l 204 867 z "},"ĳ":{"ha":878,"x_min":58,"x_max":763,"o":"m 225 917 q 150 996 150 917 q 174 1062 150 1036 q 238 1088 197 1088 q 297 1065 279 1088 q 315 1008 315 1042 q 292 941 315 965 q 226 917 269 917 l 225 917 m 181 679 l 72 703 l 72 765 l 263 788 l 265 788 l 293 765 l 293 69 l 414 60 l 414 0 l 58 0 l 58 60 l 181 71 l 181 679 m 672 917 q 597 996 597 917 q 621 1062 597 1036 q 685 1088 644 1088 q 744 1065 726 1088 q 763 1008 763 1042 q 740 941 763 965 q 674 917 717 917 l 672 917 m 511 765 l 704 788 l 707 788 l 733 765 l 733 8 q 521 -337 733 -318 q 476 -337 504 -339 q 442 -332 447 -336 l 436 -275 q 469 -273 447 -276 q 515 -261 492 -269 q 599 -167 575 -243 q 622 35 622 -90 l 621 674 l 511 699 l 511 765 z "},"ī":{"ha":450,"x_min":44,"x_max":414,"o":"m 181 679 l 72 703 l 72 765 l 263 788 l 265 788 l 293 765 l 293 69 l 414 60 l 414 0 l 58 0 l 58 60 l 181 71 l 181 679 m 407 938 l 44 938 l 44 1022 l 407 1022 l 407 938 z "},"į":{"ha":450,"x_min":58,"x_max":414,"o":"m 222 917 q 147 996 147 917 q 171 1062 147 1036 q 235 1088 194 1088 q 294 1065 276 1088 q 313 1008 313 1042 q 290 941 313 965 q 224 917 267 917 l 222 917 m 211 -337 q 111 -303 156 -337 q 67 -210 67 -269 q 113 -94 67 -154 q 228 0 158 -35 l 58 0 l 58 60 l 181 71 l 181 679 l 72 703 l 72 765 l 263 788 l 265 788 l 293 765 l 293 69 l 414 60 l 414 0 l 319 0 q 215 -81 260 -26 q 171 -178 171 -135 q 194 -243 171 -221 q 258 -265 218 -265 q 333 -250 299 -265 q 407 -211 367 -235 l 407 -271 q 326 -319 367 -301 q 211 -337 285 -337 z "},"ĩ":{"ha":450,"x_min":-32,"x_max":489,"o":"m 181 679 l 72 703 l 72 765 l 263 788 l 265 788 l 293 765 l 293 69 l 414 60 l 414 0 l 58 0 l 58 60 l 181 71 l 181 679 m -32 971 q 22 1067 -18 1026 q 128 1108 61 1108 q 197 1092 169 1108 q 261 1042 225 1075 q 301 1007 285 1018 q 338 996 318 996 q 399 1025 376 996 q 425 1082 421 1054 l 489 1053 q 332 913 446 913 q 265 929 292 913 q 204 978 238 946 q 161 1014 178 1003 q 124 1025 144 1025 q 65 1003 85 1025 q 37 963 46 982 q 25 939 28 943 l -32 971 z "},"j":{"ha":428,"x_min":-14,"x_max":313,"o":"m 222 917 q 147 996 147 917 q 171 1062 147 1036 q 235 1088 194 1088 q 294 1065 276 1088 q 313 1008 313 1042 q 290 941 313 965 q 224 917 267 917 l 222 917 m 61 765 l 254 788 l 257 788 l 283 765 l 283 8 q 71 -337 283 -318 q 26 -337 54 -339 q -8 -332 -3 -336 l -14 -275 q 19 -273 -3 -276 q 65 -261 42 -269 q 149 -167 125 -243 q 172 35 172 -90 l 171 674 l 61 699 l 61 765 z "},"ȷ":{"ha":428,"x_min":-14,"x_max":283,"o":"m 61 765 l 254 788 l 257 788 l 283 765 l 283 8 q 71 -337 283 -318 q 26 -337 54 -339 q -8 -332 -3 -336 l -14 -275 q 19 -273 -3 -276 q 65 -261 42 -269 q 149 -167 125 -243 q 172 35 172 -90 l 171 674 l 61 699 l 61 765 z "},"ĵ":{"ha":428,"x_min":-21,"x_max":464,"o":"m 61 765 l 254 788 l 257 788 l 283 765 l 283 8 q 71 -337 283 -318 q 26 -337 54 -339 q -8 -332 -3 -336 l -14 -275 q 19 -273 -3 -276 q 65 -261 42 -269 q 149 -167 125 -243 q 172 35 172 -90 l 171 674 l 61 699 l 61 765 m 276 1192 l 464 921 l 415 892 l 224 1101 l 24 892 l -21 919 l 172 1192 l 276 1192 z "},"k":{"ha":807,"x_min":28,"x_max":847,"o":"m 142 1050 l 28 1063 l 28 1114 l 226 1138 l 228 1138 l 254 1119 l 254 429 l 251 342 l 596 696 l 492 715 l 492 771 l 811 771 l 811 715 l 704 696 l 479 475 l 756 69 l 847 60 l 847 0 l 529 0 l 529 60 l 625 71 l 407 413 l 251 260 l 254 189 l 254 71 l 361 60 l 361 0 l 50 0 l 50 60 l 142 71 l 142 1050 z "},"ķ":{"ha":807,"x_min":28,"x_max":847,"o":"m 142 1050 l 28 1063 l 28 1114 l 226 1138 l 228 1138 l 254 1119 l 254 429 l 251 342 l 596 696 l 492 715 l 492 771 l 811 771 l 811 715 l 704 696 l 479 475 l 756 69 l 847 60 l 847 0 l 529 0 l 529 60 l 625 71 l 407 413 l 251 260 l 254 189 l 254 71 l 361 60 l 361 0 l 50 0 l 50 60 l 142 71 l 142 1050 m 536 -192 q 515 -283 536 -242 q 469 -349 494 -324 q 432 -378 444 -374 l 431 -378 l 393 -351 l 393 -343 q 427 -304 414 -333 q 440 -243 440 -275 q 433 -214 440 -225 q 411 -193 425 -203 q 392 -173 399 -185 q 385 -142 385 -161 q 406 -94 385 -108 q 446 -81 426 -81 l 451 -81 q 513 -110 490 -81 q 536 -192 536 -139 z "},"ĸ":{"ha":911,"x_min":54,"x_max":883,"o":"m 169 679 l 60 703 l 60 765 l 251 788 l 254 788 l 281 765 l 281 485 l 278 344 l 631 694 l 517 713 l 517 769 l 844 769 l 844 713 l 749 700 l 508 464 l 789 68 l 883 58 l 883 0 l 578 0 l 578 57 l 657 68 l 435 399 l 278 257 l 281 188 l 281 68 l 396 57 l 396 0 l 54 0 l 54 58 l 169 68 l 169 679 z "},"l":{"ha":457,"x_min":54,"x_max":419,"o":"m 176 1050 l 58 1063 l 58 1114 l 261 1138 l 263 1138 l 289 1119 l 289 69 l 419 60 l 419 0 l 54 0 l 54 60 l 176 71 l 176 1050 z "},"ĺ":{"ha":457,"x_min":54,"x_max":432,"o":"m 124 1153 l 354 1361 l 432 1290 q 312 1195 400 1249 q 163 1117 224 1142 l 124 1153 m 54 58 l 176 68 l 176 957 l 58 965 l 58 1015 l 261 1040 l 289 1021 l 289 68 l 419 58 l 419 0 l 54 0 l 54 58 z "},"ľ":{"ha":457,"x_min":54,"x_max":518,"o":"m 176 1050 l 58 1063 l 58 1114 l 261 1138 l 263 1138 l 289 1119 l 289 69 l 419 60 l 419 0 l 54 0 l 54 60 l 176 71 l 176 1050 m 407 835 l 403 843 q 411 979 411 918 q 396 1099 411 1067 l 403 1122 l 506 1122 q 518 1021 518 1085 q 505 926 518 988 q 474 835 492 864 l 407 835 z "},"ļ":{"ha":457,"x_min":54,"x_max":419,"o":"m 176 1050 l 58 1063 l 58 1114 l 261 1138 l 263 1138 l 289 1119 l 289 69 l 419 60 l 419 0 l 54 0 l 54 60 l 176 71 l 176 1050 m 332 -192 q 311 -283 332 -242 q 265 -349 290 -324 q 228 -378 240 -374 l 226 -378 l 189 -351 l 189 -343 q 223 -304 210 -333 q 236 -243 236 -275 q 228 -214 236 -225 q 207 -193 221 -203 q 188 -173 194 -185 q 181 -142 181 -161 q 201 -94 181 -108 q 242 -81 222 -81 l 247 -81 q 309 -110 286 -81 q 332 -192 332 -139 z "},"ŀ":{"ha":639,"x_min":54,"x_max":618,"o":"m 176 1050 l 58 1063 l 58 1114 l 261 1138 l 263 1138 l 289 1119 l 289 69 l 419 60 l 419 0 l 54 0 l 54 60 l 176 71 l 176 1050 m 529 444 q 475 466 497 444 q 453 522 453 488 q 480 588 453 561 q 543 614 507 614 q 599 592 581 614 q 618 536 618 569 q 592 471 618 497 q 529 444 565 444 z "},"ḷ":{"ha":457,"x_min":54,"x_max":419,"o":"m 176 1050 l 58 1063 l 58 1114 l 261 1138 l 263 1138 l 289 1119 l 289 69 l 419 60 l 419 0 l 54 0 l 54 60 l 176 71 l 176 1050 m 222 -272 q 169 -248 189 -272 q 149 -189 149 -224 q 172 -121 149 -150 q 236 -92 194 -92 q 292 -117 271 -92 q 313 -175 313 -142 q 290 -245 313 -218 q 225 -272 268 -272 l 222 -272 z "},"ǉ":{"ha":885,"x_min":54,"x_max":769,"o":"m 176 1050 l 58 1063 l 58 1114 l 261 1138 l 263 1138 l 289 1119 l 289 69 l 419 60 l 419 0 l 54 0 l 54 60 l 176 71 l 176 1050 m 679 917 q 604 996 604 917 q 628 1062 604 1036 q 692 1088 651 1088 q 751 1065 733 1088 q 769 1008 769 1042 q 747 941 769 965 q 681 917 724 917 l 679 917 m 518 765 l 711 788 l 714 788 l 740 765 l 740 8 q 528 -337 740 -318 q 483 -337 511 -339 q 449 -332 454 -336 l 443 -275 q 476 -273 454 -276 q 522 -261 499 -269 q 606 -167 582 -243 q 629 35 629 -90 l 628 674 l 518 699 l 518 765 z "},"ł":{"ha":476,"x_min":29,"x_max":458,"o":"m 181 1050 l 63 1063 l 63 1114 l 265 1138 l 267 1138 l 293 1119 l 293 693 l 458 771 l 458 688 l 293 613 l 293 69 l 424 60 l 424 0 l 58 0 l 58 60 l 181 71 l 181 563 l 29 492 l 29 568 l 181 642 l 181 1050 z "},"m":{"ha":1367,"x_min":43,"x_max":1329,"o":"m 61 60 l 150 71 l 150 679 l 43 703 l 43 765 l 219 788 l 250 765 l 250 704 l 249 669 q 383 751 300 714 q 535 789 467 789 q 655 764 610 789 q 724 686 700 739 q 849 756 767 722 q 1001 789 932 789 q 1137 756 1089 789 q 1204 653 1185 722 q 1224 465 1224 583 l 1224 71 l 1329 60 l 1329 0 l 1018 0 l 1018 60 l 1113 71 l 1113 461 q 1100 600 1113 549 q 1051 678 1088 651 q 946 704 1015 704 q 838 681 894 704 q 742 629 782 658 q 756 463 756 565 l 756 71 l 861 60 l 861 0 l 543 0 l 543 60 l 643 71 l 643 464 q 633 603 643 553 q 589 678 622 653 q 490 703 556 703 q 373 676 436 703 q 263 611 310 649 l 263 71 l 361 60 l 361 0 l 61 0 l 61 60 z "},"ḿ":{"ha":1367,"x_min":43,"x_max":1329,"o":"m 61 60 l 150 71 l 150 679 l 43 703 l 43 765 l 219 788 l 250 765 l 250 704 l 249 669 q 383 751 300 714 q 535 789 467 789 q 655 764 610 789 q 724 686 700 739 q 849 756 767 722 q 1001 789 932 789 q 1137 756 1089 789 q 1204 653 1185 722 q 1224 465 1224 583 l 1224 71 l 1329 60 l 1329 0 l 1018 0 l 1018 60 l 1113 71 l 1113 461 q 1100 600 1113 549 q 1051 678 1088 651 q 946 704 1015 704 q 838 681 894 704 q 742 629 782 658 q 756 463 756 565 l 756 71 l 861 60 l 861 0 l 543 0 l 543 60 l 643 71 l 643 464 q 633 603 643 553 q 589 678 622 653 q 490 703 556 703 q 373 676 436 703 q 263 611 310 649 l 263 71 l 361 60 l 361 0 l 61 0 l 61 60 m 589 953 l 804 1221 l 899 1144 q 776 1020 871 1103 q 632 915 681 938 l 589 953 z "},"ṁ":{"ha":1367,"x_min":43,"x_max":1329,"o":"m 61 60 l 150 71 l 150 679 l 43 703 l 43 765 l 219 788 l 250 765 l 250 704 l 249 669 q 383 751 300 714 q 535 789 467 789 q 655 764 610 789 q 724 686 700 739 q 849 756 767 722 q 1001 789 932 789 q 1137 756 1089 789 q 1204 653 1185 722 q 1224 465 1224 583 l 1224 71 l 1329 60 l 1329 0 l 1018 0 l 1018 60 l 1113 71 l 1113 461 q 1100 600 1113 549 q 1051 678 1088 651 q 946 704 1015 704 q 838 681 894 704 q 742 629 782 658 q 756 463 756 565 l 756 71 l 861 60 l 861 0 l 543 0 l 543 60 l 643 71 l 643 464 q 633 603 643 553 q 589 678 622 653 q 490 703 556 703 q 373 676 436 703 q 263 611 310 649 l 263 71 l 361 60 l 361 0 l 61 0 l 61 60 m 681 917 q 606 996 606 917 q 629 1062 606 1036 q 693 1088 653 1088 q 753 1065 735 1088 q 771 1008 771 1042 q 748 941 771 965 q 682 917 725 917 l 681 917 z "},"n":{"ha":907,"x_min":43,"x_max":868,"o":"m 150 679 l 43 703 l 43 765 l 219 788 l 224 788 l 250 765 l 250 704 l 249 669 q 385 751 300 714 q 542 789 469 789 q 678 755 631 789 q 745 651 726 721 q 764 463 764 581 l 764 69 l 868 60 l 868 0 l 558 0 l 558 60 l 651 69 l 651 464 q 640 601 651 551 q 594 677 628 651 q 494 703 560 703 q 374 675 439 703 q 263 610 310 647 l 263 71 l 364 60 l 364 0 l 57 0 l 57 60 l 150 71 l 150 679 z "},"ń":{"ha":907,"x_min":43,"x_max":868,"o":"m 150 679 l 43 703 l 43 765 l 219 788 l 224 788 l 250 765 l 250 704 l 249 669 q 385 751 300 714 q 542 789 469 789 q 678 755 631 789 q 745 651 726 721 q 764 463 764 581 l 764 69 l 868 60 l 868 0 l 558 0 l 558 60 l 651 69 l 651 464 q 640 601 651 551 q 594 677 628 651 q 494 703 560 703 q 374 675 439 703 q 263 610 310 647 l 263 71 l 364 60 l 364 0 l 57 0 l 57 60 l 150 71 l 150 679 m 338 953 l 553 1221 l 647 1144 q 524 1020 619 1103 q 381 915 429 938 l 338 953 z "},"ň":{"ha":907,"x_min":43,"x_max":868,"o":"m 150 679 l 43 703 l 43 765 l 219 788 l 224 788 l 250 765 l 250 704 l 249 669 q 385 751 300 714 q 542 789 469 789 q 678 755 631 789 q 745 651 726 721 q 764 463 764 581 l 764 69 l 868 60 l 868 0 l 558 0 l 558 60 l 651 69 l 651 464 q 640 601 651 551 q 594 677 628 651 q 494 703 560 703 q 374 675 439 703 q 263 610 310 647 l 263 71 l 364 60 l 364 0 l 57 0 l 57 60 l 150 71 l 150 679 m 432 981 l 629 1190 l 672 1163 l 485 892 l 379 892 l 190 1161 l 239 1190 l 432 981 z "},"ņ":{"ha":907,"x_min":43,"x_max":868,"o":"m 150 679 l 43 703 l 43 765 l 219 788 l 224 788 l 250 765 l 250 704 l 249 669 q 385 751 300 714 q 542 789 469 789 q 678 755 631 789 q 745 651 726 721 q 764 463 764 581 l 764 69 l 868 60 l 868 0 l 558 0 l 558 60 l 651 69 l 651 464 q 640 601 651 551 q 594 677 628 651 q 494 703 560 703 q 374 675 439 703 q 263 610 310 647 l 263 71 l 364 60 l 364 0 l 57 0 l 57 60 l 150 71 l 150 679 m 543 -192 q 522 -283 543 -242 q 476 -349 501 -324 q 439 -378 451 -374 l 438 -378 l 400 -351 l 400 -343 q 434 -304 421 -333 q 447 -243 447 -275 q 440 -214 447 -225 q 418 -193 432 -203 q 399 -173 406 -185 q 392 -142 392 -161 q 413 -94 392 -108 q 453 -81 433 -81 l 458 -81 q 520 -110 497 -81 q 543 -192 543 -139 z "},"ṅ":{"ha":907,"x_min":43,"x_max":868,"o":"m 150 679 l 43 703 l 43 765 l 219 788 l 224 788 l 250 765 l 250 704 l 249 669 q 385 751 300 714 q 542 789 469 789 q 678 755 631 789 q 745 651 726 721 q 764 463 764 581 l 764 69 l 868 60 l 868 0 l 558 0 l 558 60 l 651 69 l 651 464 q 640 601 651 551 q 594 677 628 651 q 494 703 560 703 q 374 675 439 703 q 263 610 310 647 l 263 71 l 364 60 l 364 0 l 57 0 l 57 60 l 150 71 l 150 679 m 429 917 q 354 996 354 917 q 378 1062 354 1036 q 442 1088 401 1088 q 501 1065 483 1088 q 519 1008 519 1042 q 497 941 519 965 q 431 917 474 917 l 429 917 z "},"ṇ":{"ha":907,"x_min":43,"x_max":868,"o":"m 150 679 l 43 703 l 43 765 l 219 788 l 224 788 l 250 765 l 250 704 l 249 669 q 385 751 300 714 q 542 789 469 789 q 678 755 631 789 q 745 651 726 721 q 764 463 764 581 l 764 69 l 868 60 l 868 0 l 558 0 l 558 60 l 651 69 l 651 464 q 640 601 651 551 q 594 677 628 651 q 494 703 560 703 q 374 675 439 703 q 263 610 310 647 l 263 71 l 364 60 l 364 0 l 57 0 l 57 60 l 150 71 l 150 679 m 444 -272 q 391 -248 411 -272 q 371 -189 371 -224 q 394 -121 371 -150 q 458 -92 417 -92 q 514 -117 493 -92 q 535 -175 535 -142 q 513 -245 535 -218 q 447 -272 490 -272 l 444 -272 z "},"ŋ":{"ha":925,"x_min":58,"x_max":781,"o":"m 168 681 l 58 704 l 58 767 l 236 789 l 240 789 l 267 767 l 267 710 l 265 671 q 401 753 317 715 q 558 790 486 790 q 695 757 647 790 q 762 655 743 724 q 781 468 781 586 l 781 15 q 724 -243 781 -154 q 561 -340 667 -332 q 488 -335 496 -340 l 482 -276 q 516 -274 492 -278 q 556 -265 540 -271 q 642 -172 617 -247 q 668 31 668 -96 l 668 468 q 656 604 668 556 q 611 678 644 653 q 511 703 578 703 q 392 676 457 703 q 279 611 328 649 l 279 71 l 379 60 l 379 0 l 74 0 l 74 60 l 168 71 l 168 681 z "},"ǌ":{"ha":1335,"x_min":43,"x_max":1219,"o":"m 150 679 l 43 703 l 43 765 l 219 788 l 224 788 l 250 765 l 250 704 l 249 669 q 385 751 300 714 q 542 789 469 789 q 678 755 631 789 q 745 651 726 721 q 764 463 764 581 l 764 69 l 868 60 l 868 0 l 558 0 l 558 60 l 651 69 l 651 464 q 640 601 651 551 q 594 677 628 651 q 494 703 560 703 q 374 675 439 703 q 263 610 310 647 l 263 71 l 364 60 l 364 0 l 57 0 l 57 60 l 150 71 l 150 679 m 1129 917 q 1054 996 1054 917 q 1078 1062 1054 1036 q 1142 1088 1101 1088 q 1201 1065 1183 1088 q 1219 1008 1219 1042 q 1197 941 1219 965 q 1131 917 1174 917 l 1129 917 m 968 765 l 1161 788 l 1164 788 l 1190 765 l 1190 8 q 978 -337 1190 -318 q 933 -337 961 -339 q 899 -332 904 -336 l 893 -275 q 926 -273 904 -276 q 972 -261 949 -269 q 1056 -167 1032 -243 q 1079 35 1079 -90 l 1078 674 l 968 699 l 968 765 z "},"ñ":{"ha":907,"x_min":43,"x_max":868,"o":"m 150 679 l 43 703 l 43 765 l 219 788 l 224 788 l 250 765 l 250 704 l 249 669 q 385 751 300 714 q 542 789 469 789 q 678 755 631 789 q 745 651 726 721 q 764 463 764 581 l 764 69 l 868 60 l 868 0 l 558 0 l 558 60 l 651 69 l 651 464 q 640 601 651 551 q 594 677 628 651 q 494 703 560 703 q 374 675 439 703 q 263 610 310 647 l 263 71 l 364 60 l 364 0 l 57 0 l 57 60 l 150 71 l 150 679 m 175 971 q 228 1067 189 1026 q 335 1108 268 1108 q 404 1092 376 1108 q 468 1042 432 1075 q 508 1007 492 1018 q 544 996 525 996 q 606 1025 583 996 q 632 1082 628 1054 l 696 1053 q 539 913 653 913 q 472 929 499 913 q 411 978 444 946 q 368 1014 385 1003 q 331 1025 351 1025 q 272 1003 292 1025 q 244 963 253 982 q 232 939 235 943 l 175 971 z "},"o":{"ha":826,"x_min":63,"x_max":763,"o":"m 63 390 q 113 603 63 511 q 247 743 164 694 q 419 792 329 792 q 678 678 594 792 q 763 386 763 564 q 712 174 763 265 q 578 33 661 82 q 406 -15 496 -15 q 147 99 231 -15 q 63 390 63 213 m 413 57 q 578 139 519 57 q 636 378 636 221 q 582 624 636 528 q 414 719 528 719 q 248 638 307 719 q 189 399 189 556 q 244 152 189 247 q 413 57 299 57 z "},"ó":{"ha":826,"x_min":63,"x_max":763,"o":"m 63 390 q 113 603 63 511 q 247 743 164 694 q 419 792 329 792 q 678 678 594 792 q 763 386 763 564 q 712 174 763 265 q 578 33 661 82 q 406 -15 496 -15 q 147 99 231 -15 q 63 390 63 213 m 413 57 q 578 139 519 57 q 636 378 636 221 q 582 624 636 528 q 414 719 528 719 q 248 638 307 719 q 189 399 189 556 q 244 152 189 247 q 413 57 299 57 m 319 953 l 535 1221 l 629 1144 q 506 1020 601 1103 q 363 915 411 938 l 319 953 z "},"ŏ":{"ha":826,"x_min":63,"x_max":763,"o":"m 63 390 q 113 603 63 511 q 247 743 164 694 q 419 792 329 792 q 678 678 594 792 q 763 386 763 564 q 712 174 763 265 q 578 33 661 82 q 406 -15 496 -15 q 147 99 231 -15 q 63 390 63 213 m 413 57 q 578 139 519 57 q 636 378 636 221 q 582 624 636 528 q 414 719 528 719 q 248 638 307 719 q 189 399 189 556 q 244 152 189 247 q 413 57 299 57 m 418 925 q 298 957 349 925 q 220 1041 247 989 q 193 1154 193 1093 q 196 1186 193 1175 l 258 1186 q 260 1163 258 1172 q 303 1065 265 1108 q 418 1021 342 1021 q 531 1065 494 1021 q 572 1163 568 1108 q 574 1186 575 1181 l 635 1186 q 638 1156 638 1164 q 610 1042 638 1096 q 533 957 583 989 q 418 925 483 925 z "},"ǒ":{"ha":826,"x_min":63,"x_max":763,"o":"m 63 390 q 113 603 63 511 q 247 743 164 694 q 419 792 329 792 q 678 678 594 792 q 763 386 763 564 q 712 174 763 265 q 578 33 661 82 q 406 -15 496 -15 q 147 99 231 -15 q 63 390 63 213 m 413 57 q 578 139 519 57 q 636 378 636 221 q 582 624 636 528 q 414 719 528 719 q 248 638 307 719 q 189 399 189 556 q 244 152 189 247 q 413 57 299 57 m 414 981 l 611 1190 l 654 1163 l 467 892 l 361 892 l 172 1161 l 221 1190 l 414 981 z "},"ô":{"ha":826,"x_min":63,"x_max":763,"o":"m 63 390 q 113 603 63 511 q 247 743 164 694 q 419 792 329 792 q 678 678 594 792 q 763 386 763 564 q 712 174 763 265 q 578 33 661 82 q 406 -15 496 -15 q 147 99 231 -15 q 63 390 63 213 m 413 57 q 578 139 519 57 q 636 378 636 221 q 582 624 636 528 q 414 719 528 719 q 248 638 307 719 q 189 399 189 556 q 244 152 189 247 q 413 57 299 57 m 467 1192 l 654 921 l 606 892 l 414 1101 l 214 892 l 169 919 l 363 1192 l 467 1192 z "},"ố":{"ha":826,"x_min":63,"x_max":846,"o":"m 63 390 q 113 603 63 511 q 247 743 164 694 q 419 792 329 792 q 678 678 594 792 q 763 386 763 564 q 712 174 763 265 q 578 33 661 82 q 406 -15 496 -15 q 147 99 231 -15 q 63 390 63 213 m 413 57 q 578 139 519 57 q 636 378 636 221 q 582 624 636 528 q 414 719 528 719 q 248 638 307 719 q 189 399 189 556 q 244 152 189 247 q 413 57 299 57 m 579 1131 l 767 1360 l 846 1292 q 739 1183 821 1254 q 617 1093 657 1111 l 579 1131 m 464 1140 l 633 931 l 589 904 l 415 1058 l 233 904 l 193 929 l 368 1140 l 464 1140 z "},"ộ":{"ha":826,"x_min":63,"x_max":763,"o":"m 63 390 q 113 603 63 511 q 247 743 164 694 q 419 792 329 792 q 678 678 594 792 q 763 386 763 564 q 712 174 763 265 q 578 33 661 82 q 406 -15 496 -15 q 147 99 231 -15 q 63 390 63 213 m 413 57 q 578 139 519 57 q 636 378 636 221 q 582 624 636 528 q 414 719 528 719 q 248 638 307 719 q 189 399 189 556 q 244 152 189 247 q 413 57 299 57 m 404 -272 q 351 -248 371 -272 q 331 -189 331 -224 q 353 -121 331 -150 q 418 -92 376 -92 q 474 -117 453 -92 q 494 -175 494 -142 q 472 -245 494 -218 q 407 -272 450 -272 l 404 -272 m 467 1192 l 654 921 l 606 892 l 414 1101 l 214 892 l 169 919 l 363 1192 l 467 1192 z "},"ồ":{"ha":826,"x_min":63,"x_max":763,"o":"m 63 390 q 113 603 63 511 q 247 743 164 694 q 419 792 329 792 q 678 678 594 792 q 763 386 763 564 q 712 174 763 265 q 578 33 661 82 q 406 -15 496 -15 q 147 99 231 -15 q 63 390 63 213 m 413 57 q 578 139 519 57 q 636 378 636 221 q 582 624 636 528 q 414 719 528 719 q 248 638 307 719 q 189 399 189 556 q 244 152 189 247 q 413 57 299 57 m 682 1140 q 591 1201 647 1156 q 489 1297 535 1246 l 568 1365 l 719 1175 l 682 1140 m 464 1140 l 633 931 l 589 904 l 415 1058 l 233 904 l 193 929 l 368 1140 l 464 1140 z "},"ổ":{"ha":826,"x_min":63,"x_max":763,"o":"m 63 390 q 113 603 63 511 q 247 743 164 694 q 419 792 329 792 q 678 678 594 792 q 763 386 763 564 q 712 174 763 265 q 578 33 661 82 q 406 -15 496 -15 q 147 99 231 -15 q 63 390 63 213 m 413 57 q 578 139 519 57 q 636 378 636 221 q 582 624 636 528 q 414 719 528 719 q 248 638 307 719 q 189 399 189 556 q 244 152 189 247 q 413 57 299 57 m 608 1060 q 592 1094 601 1069 q 583 1129 583 1118 q 594 1157 583 1146 q 626 1183 604 1168 q 658 1210 649 1200 q 668 1236 668 1221 q 650 1276 668 1264 q 593 1289 632 1289 q 557 1285 575 1289 q 532 1276 539 1281 l 532 1356 q 560 1363 535 1360 q 617 1367 585 1367 q 722 1333 688 1367 q 756 1247 756 1300 q 737 1190 756 1214 q 698 1149 718 1165 q 672 1128 678 1132 q 661 1101 661 1119 q 667 1071 661 1088 l 608 1060 m 464 1140 l 633 931 l 589 904 l 415 1058 l 233 904 l 193 929 l 368 1140 l 464 1140 z "},"ỗ":{"ha":826,"x_min":63,"x_max":763,"o":"m 63 390 q 113 603 63 511 q 247 743 164 694 q 419 792 329 792 q 678 678 594 792 q 763 386 763 564 q 712 174 763 265 q 578 33 661 82 q 406 -15 496 -15 q 147 99 231 -15 q 63 390 63 213 m 413 57 q 578 139 519 57 q 636 378 636 221 q 582 624 636 528 q 414 719 528 719 q 248 638 307 719 q 189 399 189 556 q 244 152 189 247 q 413 57 299 57 m 213 1239 q 258 1323 224 1289 q 342 1357 293 1357 q 390 1347 371 1357 q 432 1317 410 1336 q 465 1293 453 1300 q 494 1286 478 1286 q 533 1301 517 1286 q 558 1338 550 1317 l 604 1319 q 558 1235 593 1269 q 475 1201 524 1201 q 428 1211 447 1201 q 386 1240 410 1221 q 353 1265 367 1257 q 322 1272 340 1272 q 286 1259 299 1272 q 258 1221 274 1246 l 213 1239 m 464 1140 l 633 931 l 589 904 l 415 1058 l 233 904 l 193 929 l 368 1140 l 464 1140 z "},"ö":{"ha":826,"x_min":63,"x_max":763,"o":"m 63 390 q 113 603 63 511 q 247 743 164 694 q 419 792 329 792 q 678 678 594 792 q 763 386 763 564 q 712 174 763 265 q 578 33 661 82 q 406 -15 496 -15 q 147 99 231 -15 q 63 390 63 213 m 413 57 q 578 139 519 57 q 636 378 636 221 q 582 624 636 528 q 414 719 528 719 q 248 638 307 719 q 189 399 189 556 q 244 152 189 247 q 413 57 299 57 m 256 919 q 204 942 224 919 q 185 999 185 964 q 206 1063 185 1036 q 267 1090 228 1090 q 320 1066 300 1090 q 340 1010 340 1042 q 318 945 340 971 q 256 919 296 919 m 557 919 q 507 942 526 919 q 488 999 488 965 q 509 1063 488 1036 q 569 1090 531 1090 q 623 1066 603 1090 q 643 1010 643 1042 q 621 945 643 971 q 557 919 599 919 z "},"ọ":{"ha":826,"x_min":63,"x_max":763,"o":"m 63 390 q 113 603 63 511 q 247 743 164 694 q 419 792 329 792 q 678 678 594 792 q 763 386 763 564 q 712 174 763 265 q 578 33 661 82 q 406 -15 496 -15 q 147 99 231 -15 q 63 390 63 213 m 413 57 q 578 139 519 57 q 636 378 636 221 q 582 624 636 528 q 414 719 528 719 q 248 638 307 719 q 189 399 189 556 q 244 152 189 247 q 413 57 299 57 m 404 -272 q 351 -248 371 -272 q 331 -189 331 -224 q 353 -121 331 -150 q 418 -92 376 -92 q 474 -117 453 -92 q 494 -175 494 -142 q 472 -245 494 -218 q 407 -272 450 -272 l 404 -272 z "},"ò":{"ha":826,"x_min":63,"x_max":763,"o":"m 63 390 q 113 603 63 511 q 247 743 164 694 q 419 792 329 792 q 678 678 594 792 q 763 386 763 564 q 712 174 763 265 q 578 33 661 82 q 406 -15 496 -15 q 147 99 231 -15 q 63 390 63 213 m 413 57 q 578 139 519 57 q 636 378 636 221 q 582 624 636 528 q 414 719 528 719 q 248 638 307 719 q 189 399 189 556 q 244 152 189 247 q 413 57 299 57 m 454 915 q 317 1017 417 931 q 192 1144 218 1104 l 279 1219 l 496 953 l 456 915 l 454 915 z "},"ỏ":{"ha":826,"x_min":63,"x_max":763,"o":"m 63 390 q 113 603 63 511 q 247 743 164 694 q 419 792 329 792 q 678 678 594 792 q 763 386 763 564 q 712 174 763 265 q 578 33 661 82 q 406 -15 496 -15 q 147 99 231 -15 q 63 390 63 213 m 413 57 q 578 139 519 57 q 636 378 636 221 q 582 624 636 528 q 414 719 528 719 q 248 638 307 719 q 189 399 189 556 q 244 152 189 247 q 413 57 299 57 m 393 867 q 374 899 383 879 q 364 936 364 919 q 374 957 364 949 q 403 978 383 965 q 438 1003 426 992 q 449 1032 449 1014 q 428 1088 449 1067 q 369 1108 408 1108 q 310 1094 335 1108 l 306 1168 q 392 1189 350 1189 q 506 1152 465 1189 q 547 1050 547 1115 q 531 996 547 1015 q 481 956 514 976 q 447 932 460 942 q 439 903 439 924 q 444 867 439 889 l 393 867 z "},"ơ":{"ha":826,"x_min":63,"x_max":815,"o":"m 63 390 q 113 603 63 511 q 247 743 164 694 q 419 792 329 792 q 592 751 519 792 q 676 817 650 769 q 703 915 703 865 q 701 939 703 933 l 813 939 q 815 908 815 917 q 777 776 815 833 q 669 689 739 718 q 740 556 717 635 q 763 386 763 478 q 712 174 763 265 q 578 33 661 82 q 406 -15 496 -15 q 147 99 231 -15 q 63 390 63 213 m 189 399 q 244 152 189 247 q 413 57 299 57 q 578 139 519 57 q 636 378 636 221 q 582 624 636 528 q 414 719 528 719 q 248 638 307 719 q 189 399 189 556 z "}}}
